<?xml version="1.0" encoding="UTF-8" standalone="no"?>
<svg
   xmlns:dc="http://purl.org/dc/elements/1.1/"
   xmlns:cc="http://creativecommons.org/ns#"
   xmlns:rdf="http://www.w3.org/1999/02/22-rdf-syntax-ns#"
   xmlns:svg="http://www.w3.org/2000/svg"
   xmlns="http://www.w3.org/2000/svg"
   xmlns:sodipodi="http://sodipodi.sourceforge.net/DTD/sodipodi-0.dtd"
   xmlns:inkscape="http://www.inkscape.org/namespaces/inkscape"
   sodipodi:docname="logo.svg"
   inkscape:version="1.0alpha2 (883c7bc, 2019-06-02)"
   id="svg8"
   version="1.1"
   viewBox="0 0 209.40022 164.01366"
   height="164.01366mm"
   width="209.40022mm">
  <defs
     id="defs2" />
  <sodipodi:namedview
     inkscape:window-maximized="1"
     inkscape:window-y="0"
     inkscape:window-x="0"
     inkscape:window-height="1013"
     inkscape:window-width="1680"
     showgrid="false"
     inkscape:document-rotation="0"
     inkscape:current-layer="layer1"
     inkscape:document-units="mm"
     inkscape:cy="320.9455"
     inkscape:cx="483.81525"
     inkscape:zoom="0.49497475"
     inkscape:pageshadow="2"
     inkscape:pageopacity="0.0"
     borderopacity="1.0"
     bordercolor="#666666"
     pagecolor="#ffffff"
     id="base" />
  <metadata
     id="metadata5">
    <rdf:RDF>
      <cc:Work
         rdf:about="">
        <dc:format>image/svg+xml</dc:format>
        <dc:type
           rdf:resource="http://purl.org/dc/dcmitype/StillImage" />
        <dc:title></dc:title>
      </cc:Work>
    </rdf:RDF>
  </metadata>
  <g
     transform="translate(-0.47737159,-82.141501)"
     id="layer1"
     inkscape:groupmode="layer"
     inkscape:label="Warstwa 1">
    <g
       transform="matrix(1.6386054,0,0,1.6386054,-61.858655,-165.06508)"
       id="g83"
       style="opacity:1;stop-opacity:1">
      <g
         id="g79">
        <path
           id="path76"
           style="fill:#000000;stroke-width:0.352778"
           d="m 105.10445,250.82897 c -4.50564,-1.1908 5.63862,-0.42601 6.46927,-3.10862 3.87218,-4.70976 -1.58572,-0.10552 -2.9183,0.64581 -1.34881,0.30952 -5.52815,1.45886 -3.26568,-1.7763 2.64285,-2.42717 7.03664,-3.91515 5.86312,-6.14842 -4.18018,-1.59862 -8.24862,3.46411 -11.0873,3.53368 -1.908973,-3.00899 -2.140318,-5.83275 2.28412,-7.11356 3.96424,-1.28489 -3.960142,-0.81608 1.32282,-2.48705 3.30917,-0.0246 6.78415,-2.36217 2.74245,-5.0523 -3.46186,0.53174 -6.788456,4.69559 -9.480012,4.27852 -0.832483,-2.27885 -2.259246,-5.57326 0.872464,-5.95357 -3.349141,-4.21883 -6.456871,0.79024 -4.687858,4.5703 -1.455646,3.69589 3.983533,3.05854 1.246798,4.93378 2.383025,-0.52012 0.02132,7.40789 3.691081,9.3377 0.92165,3.15362 -3.948913,-3.67277 -3.332893,-5.43633 -0.539406,-5.39632 -3.978774,-4.25344 -6.967171,-1.95373 -4.868421,4.32022 -10.500661,-0.17954 -14.794585,-2.95146 -6.909814,-4.46906 -13.919208,-8.81795 -20.760773,-13.36936 -5.158574,-3.38998 -6.73215,-9.40787 -9.647708,-14.18817 -3.401873,-1.13951 1.466729,-1.9176 -1.402614,-4.74614 -1.880873,-1.29103 -1.344854,-4.39147 -0.793755,-4.74233 1.229804,-1.77111 1.945356,-8.91131 5.657077,-10.19784 3.170668,-2.66509 7.879329,-3.98603 11.57685,-6.04376 5.372462,-2.29282 10.044424,-5.75533 14.988842,-8.71593 4.882473,-2.78452 10.282582,-4.63084 14.958567,-7.63454 4.422837,-1.85518 8.314018,-5.07673 12.70586,-6.77731 6.57342,-2.8106 12.72239,-6.72151 19.5445,-8.86803 5.29715,0.99661 9.31561,5.41744 13.96864,8.00988 7.15013,5.07672 14.72254,9.58976 21.58061,15.04864 2.41742,3.84394 5.89154,8.81236 4.6989,13.24514 -0.2787,2.98899 -4.12198,3.13034 -0.84704,6.13446 0.48334,1.87205 0.5808,12.70158 -0.28063,5.76322 -1.38677,-5.43244 -8.3098,5.5663 -7.034,-1.66369 -2.83543,-3.87845 9.41409,-0.23923 5.32119,-6.47496 1.84385,-3.67694 -5.62219,-3.83586 -7.42402,-0.85524 -3.22593,2.49153 -1.93057,3.89089 0.38707,6.17402 -5.46912,-2.1128 -6.28544,7.52114 -0.861,4.94792 -2.96678,-1.79144 5.18281,0.24878 0.93231,0.44301 -0.96897,2.58499 0.1536,4.01154 -0.2225,5.24076 -0.50474,2.48068 6.79389,0.59399 4.84638,-1.21195 2.78252,-1.59477 5.25969,6.90857 4.66162,0.50881 0.72282,-7.15076 -0.49267,4.09092 3.56619,4.43579 5.31465,3.17818 1.85507,10.11636 -3.50675,11.10445 -2.55601,1.96789 -4.74843,0.80412 -0.93733,-0.28985 1.43326,-0.89298 8.38777,-3.71109 5.27945,-4.53576 -2.00566,2.4932 -10.2164,4.27033 -5.73747,-0.35827 2.71063,0.43748 9.5332,-4.11246 3.77673,-5.50317 -3.2778,1.34064 -9.46654,5.29822 -11.10908,2.81881 -1.63788,1.25701 5.56602,10.47417 1.08584,5.7076 -3.45724,-2.9781 -5.09186,-9.79059 -7.77157,-11.83183 -3.77998,2.87324 -11.63474,4.71808 -8.49476,10.86591 -2.75808,5.9193 9.87487,11.30923 1.69477,15.14047 -1.86641,0.86371 -6.32202,1.76919 -2.1766,0.082 2.70514,0.0345 6.6051,-5.17487 2.38978,-2.03697 -1.89949,2.02328 -9.1835,3.11077 -4.75534,-0.78749 2.28265,-1.61639 5.26418,-3.25266 4.83793,-4.46491 -3.75734,-2.87926 -8.16497,3.64468 -11.95021,3.44489 -4.85598,-4.63425 2.63015,6.97149 5.62087,5.17411 2.9266,0.76234 -4.24076,1.77246 -4.42393,-1.29549 -3.47881,-3.57469 -6.69608,-7.73217 -8.07126,-12.54925 -5.24532,2.39057 -11.3705,5.79861 -9.07323,12.64261 -1.27689,5.55317 8.44315,10.62849 1.15477,14.91101 -1.77237,1.21502 -3.64222,2.52936 -5.9115,1.98027 z m 2.46944,-13.54067 c 4.73569,-1.66279 -5.15432,-4.53921 -2.07924,0.21195 0.65595,0.0487 1.51997,0.29459 2.07924,-0.21195 z m -5.9982,-12.82097 c -2.696016,-2.09613 -0.94149,-1.98597 0.87978,-1.25728 1.47964,-1.0233 3.83011,-2.93712 0.88509,-4.68685 0.0393,-3.68619 -7.505537,0.27723 -9.217053,2.5374 1.285907,2.8869 1.49212,4.33318 5.578605,3.5311 l 0.952028,-0.0272 0.92155,-0.0972 z m 31.04542,-0.63164 c 0.98178,-1.40919 3.90768,2.2519 2.32737,-1.557 -0.0307,-2.35511 -0.80965,-10.49115 -1.96366,-9.37911 -1.36381,3.74119 -8.28674,2.28517 -8.77156,7.17721 -2.9038,4.2687 6.19102,3.44891 4.42885,0.5001 1.83333,-0.24769 0.63696,2.16587 3.7515,2.01615 -0.0452,-0.12185 -0.89033,2.72483 0.2275,1.24265 z m -38.805548,-4.7625 c -3.169634,-2.57167 4.921175,-0.72074 3.87383,-3.52778 4.343028,2.90248 2.455908,-4.30049 -1.594612,-0.64354 -2.592513,1.37403 -7.907296,3.5888 -2.279218,4.17132 z m 29.323578,-4.93889 c 2.30704,0.13044 -1.32251,-2.01237 1.3307,-2.24376 -2.66659,-0.23006 -9.71284,0.79915 -4.04148,3.04378 0.95198,1.69792 1.41906,-1.40623 2.71078,-0.80002 z m 0.48902,-3.87816 c 1.76035,-0.43255 4.52066,-2.98921 7.6867,-3.18765 0.0596,-3.67735 -2.27627,-4.49272 -4.14233,-5.76258 -0.0707,-5.00939 -7.32012,0.92218 -10.66817,2.80654 -1.96102,3.39915 3.59304,-0.46716 1.15424,3.25552 2.07353,1.32971 3.65805,2.51678 1.57102,-0.31783 2.89116,-1.16601 2.1873,3.4241 2.77617,3.1619 l 0.97683,-0.20753 0.64553,0.25163 z m -2.46634,-3.87633 c -0.93114,-4.16784 4.21797,2.80886 0,0 z m 3.35562,-3.16784 c -0.51193,-2.04394 3.64376,1.33929 0,-6e-5 z m 21.6368,-12.89016 c 0.99658,-0.43116 5.17244,-2.79675 2.00949,-2.47353 5.94583,-3.33464 -4.92642,-0.3065 -1.93973,0.76513 2.58774,0.0151 -5.342,1.07674 -1.49836,2.20053 0.4584,0.066 1.20915,0.0416 1.4286,-0.49213 z M 38.768905,206.38753 c -3.0889,-2.98492 4.981467,3.12405 0,0 z"
           inkscape:connector-curvature="0" />
      </g>
    </g>
  </g>
</svg>
