G04 #@! TF.GenerationSoftware,KiCad,Pcbnew,5.99.0-unknown-r17001-43768b71*
G04 #@! TF.CreationDate,2020-02-09T00:01:33+01:00*
G04 #@! TF.ProjectId,PD243X Display,50443234-3358-4204-9469-73706c61792e,1*
G04 #@! TF.SameCoordinates,Original*
G04 #@! TF.FileFunction,Soldermask,Top*
G04 #@! TF.FilePolarity,Negative*
%FSLAX46Y46*%
G04 Gerber Fmt 4.6, Leading zero omitted, Abs format (unit mm)*
G04 Created by KiCad (PCBNEW 5.99.0-unknown-r17001-43768b71) date 2020-02-09 00:01:33*
%MOMM*%
%LPD*%
G04 APERTURE LIST*
G04 APERTURE END LIST*
G36*
X89535542Y-90052711D02*
G01*
X89557506Y-90052730D01*
X89677500Y-90068634D01*
X89807510Y-90083217D01*
X89830187Y-90088871D01*
X89850022Y-90091500D01*
X89968493Y-90123355D01*
X90097660Y-90155560D01*
X90117540Y-90163431D01*
X90134975Y-90168119D01*
X90249663Y-90215742D01*
X90375694Y-90265641D01*
X90392639Y-90275111D01*
X90407490Y-90281278D01*
X90516170Y-90344151D01*
X90636726Y-90411527D01*
X90650679Y-90421965D01*
X90662910Y-90429041D01*
X90763502Y-90506368D01*
X90876171Y-90590655D01*
X90887205Y-90601460D01*
X90896852Y-90608876D01*
X90987208Y-90699390D01*
X91089822Y-90799877D01*
X91098114Y-90810491D01*
X91105318Y-90817707D01*
X91183475Y-90919748D01*
X91273925Y-91035519D01*
X91279740Y-91045430D01*
X91284746Y-91051966D01*
X91348964Y-91163419D01*
X91425246Y-91293438D01*
X91428933Y-91302209D01*
X91432060Y-91307636D01*
X91480838Y-91425687D01*
X91541126Y-91569106D01*
X91543099Y-91576367D01*
X91544747Y-91580356D01*
X91576943Y-91700935D01*
X91619529Y-91857678D01*
X91620262Y-91863171D01*
X91620867Y-91865437D01*
X91635739Y-91979165D01*
X91659078Y-92154084D01*
X91659005Y-92157084D01*
X91659128Y-92158027D01*
X91658870Y-92453106D01*
X91650165Y-92518783D01*
X91649087Y-92562903D01*
X91631921Y-92656433D01*
X91620100Y-92745622D01*
X91605772Y-92798911D01*
X91595106Y-92857023D01*
X91566348Y-92945529D01*
X91543481Y-93030575D01*
X91521569Y-93083344D01*
X91502699Y-93141420D01*
X91463358Y-93223531D01*
X91430322Y-93303090D01*
X91400740Y-93354224D01*
X91373491Y-93411098D01*
X91324737Y-93485603D01*
X91282559Y-93558510D01*
X91245369Y-93606889D01*
X91209752Y-93661318D01*
X91152885Y-93727199D01*
X91102724Y-93792452D01*
X91058165Y-93836933D01*
X91014358Y-93887684D01*
X90950772Y-93944138D01*
X90893893Y-94000918D01*
X90842378Y-94040375D01*
X90790742Y-94086220D01*
X90721896Y-94132657D01*
X90659634Y-94180346D01*
X90601733Y-94213708D01*
X90542832Y-94253437D01*
X90470249Y-94289468D01*
X90403964Y-94327660D01*
X90340405Y-94353923D01*
X90274985Y-94386397D01*
X90200182Y-94411862D01*
X90131244Y-94440347D01*
X90062914Y-94458592D01*
X89991906Y-94482765D01*
X89916359Y-94497724D01*
X89846163Y-94516467D01*
X89774125Y-94525887D01*
X89698568Y-94540848D01*
X89623693Y-94545559D01*
X89553573Y-94554728D01*
X89478983Y-94554663D01*
X89400125Y-94559624D01*
X89327278Y-94554530D01*
X89258494Y-94554470D01*
X89182639Y-94544416D01*
X89101821Y-94538765D01*
X89032244Y-94524483D01*
X88965978Y-94515700D01*
X88890214Y-94495328D01*
X88808895Y-94478636D01*
X88743708Y-94455935D01*
X88681025Y-94439081D01*
X88606786Y-94408254D01*
X88526496Y-94380294D01*
X88466653Y-94350065D01*
X88408510Y-94325922D01*
X88337276Y-94284712D01*
X88259583Y-94245467D01*
X88205907Y-94208714D01*
X88153090Y-94178159D01*
X88086312Y-94126825D01*
X88012847Y-94076523D01*
X87965985Y-94034329D01*
X87919148Y-93998324D01*
X87858290Y-93937360D01*
X87790622Y-93876431D01*
X87751037Y-93829918D01*
X87710682Y-93789493D01*
X87657146Y-93719597D01*
X87596813Y-93648706D01*
X87564799Y-93599031D01*
X87531254Y-93555234D01*
X87486346Y-93477295D01*
X87434825Y-93397349D01*
X87410511Y-93345679D01*
X87383940Y-93299564D01*
X87348857Y-93214658D01*
X87307503Y-93126776D01*
X87290840Y-93074246D01*
X87271253Y-93026844D01*
X87247059Y-92936232D01*
X87217084Y-92841741D01*
X87207859Y-92789426D01*
X87195133Y-92741763D01*
X87182727Y-92646888D01*
X87165158Y-92547251D01*
X87163017Y-92496162D01*
X87156872Y-92449173D01*
X87156957Y-92351601D01*
X87152635Y-92248480D01*
X87157090Y-92199526D01*
X87157130Y-92154094D01*
X87170199Y-92055488D01*
X87179738Y-91950678D01*
X87190186Y-91904692D01*
X87195900Y-91861578D01*
X87222220Y-91763690D01*
X87245988Y-91659076D01*
X87261733Y-91616738D01*
X87272519Y-91576625D01*
X87312105Y-91481293D01*
X87350222Y-91378798D01*
X87370503Y-91340655D01*
X87385678Y-91304110D01*
X87438297Y-91213154D01*
X87490610Y-91114768D01*
X87514597Y-91081263D01*
X87533441Y-91048690D01*
X87598627Y-90963892D01*
X87664684Y-90871624D01*
X87691534Y-90843032D01*
X87713276Y-90814748D01*
X87790264Y-90737894D01*
X87869386Y-90653638D01*
X87898251Y-90630097D01*
X87922107Y-90606282D01*
X88009900Y-90539038D01*
X88101120Y-90464641D01*
X88131160Y-90446160D01*
X88156366Y-90426854D01*
X88253744Y-90370746D01*
X88355814Y-90307952D01*
X88386224Y-90294412D01*
X88412036Y-90279540D01*
X88517559Y-90235938D01*
X88628994Y-90186324D01*
X88659021Y-90177487D01*
X88684756Y-90166853D01*
X88796815Y-90136932D01*
X88915861Y-90101895D01*
X88944829Y-90097411D01*
X88969837Y-90090733D01*
X89086547Y-90075471D01*
X89211373Y-90056147D01*
X89238702Y-90055575D01*
X89262427Y-90052472D01*
X89381818Y-90052576D01*
X89510341Y-90049884D01*
X89535542Y-90052711D01*
G37*
G36*
X117440055Y-91208646D02*
G01*
X117478862Y-91210680D01*
X117525116Y-91222728D01*
X117578199Y-91231516D01*
X117614324Y-91245965D01*
X117646166Y-91254259D01*
X117694396Y-91277991D01*
X117749875Y-91300181D01*
X117777118Y-91318696D01*
X117801287Y-91330588D01*
X117848462Y-91367181D01*
X117902802Y-91404110D01*
X117921330Y-91423703D01*
X117937894Y-91436551D01*
X117980614Y-91486393D01*
X118029844Y-91538452D01*
X118040654Y-91556443D01*
X118050401Y-91567815D01*
X118085098Y-91630411D01*
X118125074Y-91696941D01*
X118129860Y-91711162D01*
X118134220Y-91719028D01*
X118157404Y-91793009D01*
X118184049Y-91872183D01*
X118185022Y-91881137D01*
X118185919Y-91884000D01*
X118194354Y-91967046D01*
X118199000Y-92009809D01*
X118199000Y-92886311D01*
X118181292Y-92993278D01*
X118162032Y-93117689D01*
X118159868Y-93122690D01*
X118158349Y-93131865D01*
X118124291Y-93204903D01*
X118094687Y-93273312D01*
X118087813Y-93283129D01*
X118080207Y-93299440D01*
X118034879Y-93358726D01*
X117995526Y-93414929D01*
X117982470Y-93427276D01*
X117967904Y-93446327D01*
X117915446Y-93490657D01*
X117869914Y-93533715D01*
X117849561Y-93546335D01*
X117826679Y-93565671D01*
X117771184Y-93594930D01*
X117722978Y-93624819D01*
X117694901Y-93635150D01*
X117663121Y-93651905D01*
X117608381Y-93666983D01*
X117560728Y-93684516D01*
X117525247Y-93689882D01*
X117484861Y-93701006D01*
X117434098Y-93703666D01*
X117389785Y-93710368D01*
X117348006Y-93708178D01*
X117300217Y-93710683D01*
X117255945Y-93703354D01*
X117217138Y-93701320D01*
X117170884Y-93689272D01*
X117117801Y-93680484D01*
X117081676Y-93666035D01*
X117049834Y-93657741D01*
X117001605Y-93634009D01*
X116946125Y-93611819D01*
X116918880Y-93593303D01*
X116894716Y-93581413D01*
X116847547Y-93544825D01*
X116793199Y-93507890D01*
X116774669Y-93488296D01*
X116758105Y-93475447D01*
X116715385Y-93425605D01*
X116666157Y-93373548D01*
X116655347Y-93355557D01*
X116645600Y-93344185D01*
X116610903Y-93281589D01*
X116570927Y-93215059D01*
X116566141Y-93200838D01*
X116561781Y-93192972D01*
X116538597Y-93118991D01*
X116511952Y-93039817D01*
X116510979Y-93030863D01*
X116510082Y-93028000D01*
X116501649Y-92944979D01*
X116497000Y-92902191D01*
X116497000Y-92025690D01*
X116514707Y-91918731D01*
X116533968Y-91794312D01*
X116536132Y-91789311D01*
X116537651Y-91780136D01*
X116571707Y-91707103D01*
X116601311Y-91638693D01*
X116608186Y-91628875D01*
X116615793Y-91612561D01*
X116661129Y-91553263D01*
X116700477Y-91497068D01*
X116713531Y-91484723D01*
X116728096Y-91465673D01*
X116780554Y-91421343D01*
X116826086Y-91378285D01*
X116846439Y-91365665D01*
X116869321Y-91346329D01*
X116924816Y-91317070D01*
X116973022Y-91287181D01*
X117001099Y-91276850D01*
X117032879Y-91260095D01*
X117087619Y-91245017D01*
X117135272Y-91227484D01*
X117170753Y-91222118D01*
X117211139Y-91210994D01*
X117261902Y-91208334D01*
X117306215Y-91201632D01*
X117347994Y-91203822D01*
X117395783Y-91201317D01*
X117440055Y-91208646D01*
G37*
G36*
X97120055Y-91208646D02*
G01*
X97158862Y-91210680D01*
X97205116Y-91222728D01*
X97258199Y-91231516D01*
X97294324Y-91245965D01*
X97326166Y-91254259D01*
X97374396Y-91277991D01*
X97429875Y-91300181D01*
X97457118Y-91318696D01*
X97481287Y-91330588D01*
X97528462Y-91367181D01*
X97582802Y-91404110D01*
X97601330Y-91423703D01*
X97617894Y-91436551D01*
X97660614Y-91486393D01*
X97709844Y-91538452D01*
X97720654Y-91556443D01*
X97730401Y-91567815D01*
X97765098Y-91630411D01*
X97805074Y-91696941D01*
X97809860Y-91711162D01*
X97814220Y-91719028D01*
X97837404Y-91793009D01*
X97864049Y-91872183D01*
X97865022Y-91881137D01*
X97865919Y-91884000D01*
X97874354Y-91967046D01*
X97879000Y-92009809D01*
X97879000Y-92886311D01*
X97861292Y-92993278D01*
X97842032Y-93117689D01*
X97839868Y-93122690D01*
X97838349Y-93131865D01*
X97804291Y-93204903D01*
X97774687Y-93273312D01*
X97767813Y-93283129D01*
X97760207Y-93299440D01*
X97714879Y-93358726D01*
X97675526Y-93414929D01*
X97662470Y-93427276D01*
X97647904Y-93446327D01*
X97595446Y-93490657D01*
X97549914Y-93533715D01*
X97529561Y-93546335D01*
X97506679Y-93565671D01*
X97451184Y-93594930D01*
X97402978Y-93624819D01*
X97374901Y-93635150D01*
X97343121Y-93651905D01*
X97288381Y-93666983D01*
X97240728Y-93684516D01*
X97205247Y-93689882D01*
X97164861Y-93701006D01*
X97114098Y-93703666D01*
X97069785Y-93710368D01*
X97028006Y-93708178D01*
X96980217Y-93710683D01*
X96935945Y-93703354D01*
X96897138Y-93701320D01*
X96850884Y-93689272D01*
X96797801Y-93680484D01*
X96761676Y-93666035D01*
X96729834Y-93657741D01*
X96681605Y-93634009D01*
X96626125Y-93611819D01*
X96598880Y-93593303D01*
X96574716Y-93581413D01*
X96527547Y-93544825D01*
X96473199Y-93507890D01*
X96454669Y-93488296D01*
X96438105Y-93475447D01*
X96395385Y-93425605D01*
X96346157Y-93373548D01*
X96335347Y-93355557D01*
X96325600Y-93344185D01*
X96290903Y-93281589D01*
X96250927Y-93215059D01*
X96246141Y-93200838D01*
X96241781Y-93192972D01*
X96218597Y-93118991D01*
X96191952Y-93039817D01*
X96190979Y-93030863D01*
X96190082Y-93028000D01*
X96181649Y-92944979D01*
X96177000Y-92902191D01*
X96177000Y-92025690D01*
X96194707Y-91918731D01*
X96213968Y-91794312D01*
X96216132Y-91789311D01*
X96217651Y-91780136D01*
X96251707Y-91707103D01*
X96281311Y-91638693D01*
X96288186Y-91628875D01*
X96295793Y-91612561D01*
X96341129Y-91553263D01*
X96380477Y-91497068D01*
X96393531Y-91484723D01*
X96408096Y-91465673D01*
X96460554Y-91421343D01*
X96506086Y-91378285D01*
X96526439Y-91365665D01*
X96549321Y-91346329D01*
X96604816Y-91317070D01*
X96653022Y-91287181D01*
X96681099Y-91276850D01*
X96712879Y-91260095D01*
X96767619Y-91245017D01*
X96815272Y-91227484D01*
X96850753Y-91222118D01*
X96891139Y-91210994D01*
X96941902Y-91208334D01*
X96986215Y-91201632D01*
X97027994Y-91203822D01*
X97075783Y-91201317D01*
X97120055Y-91208646D01*
G37*
G36*
X114900055Y-91208646D02*
G01*
X114938862Y-91210680D01*
X114985116Y-91222728D01*
X115038199Y-91231516D01*
X115074324Y-91245965D01*
X115106166Y-91254259D01*
X115154396Y-91277991D01*
X115209875Y-91300181D01*
X115237118Y-91318696D01*
X115261287Y-91330588D01*
X115308462Y-91367181D01*
X115362802Y-91404110D01*
X115381330Y-91423703D01*
X115397894Y-91436551D01*
X115440614Y-91486393D01*
X115489844Y-91538452D01*
X115500654Y-91556443D01*
X115510401Y-91567815D01*
X115545098Y-91630411D01*
X115585074Y-91696941D01*
X115589860Y-91711162D01*
X115594220Y-91719028D01*
X115617404Y-91793009D01*
X115644049Y-91872183D01*
X115645022Y-91881137D01*
X115645919Y-91884000D01*
X115654354Y-91967046D01*
X115659000Y-92009809D01*
X115659000Y-92886311D01*
X115641292Y-92993278D01*
X115622032Y-93117689D01*
X115619868Y-93122690D01*
X115618349Y-93131865D01*
X115584291Y-93204903D01*
X115554687Y-93273312D01*
X115547813Y-93283129D01*
X115540207Y-93299440D01*
X115494879Y-93358726D01*
X115455526Y-93414929D01*
X115442470Y-93427276D01*
X115427904Y-93446327D01*
X115375446Y-93490657D01*
X115329914Y-93533715D01*
X115309561Y-93546335D01*
X115286679Y-93565671D01*
X115231184Y-93594930D01*
X115182978Y-93624819D01*
X115154901Y-93635150D01*
X115123121Y-93651905D01*
X115068381Y-93666983D01*
X115020728Y-93684516D01*
X114985247Y-93689882D01*
X114944861Y-93701006D01*
X114894098Y-93703666D01*
X114849785Y-93710368D01*
X114808006Y-93708178D01*
X114760217Y-93710683D01*
X114715945Y-93703354D01*
X114677138Y-93701320D01*
X114630884Y-93689272D01*
X114577801Y-93680484D01*
X114541676Y-93666035D01*
X114509834Y-93657741D01*
X114461605Y-93634009D01*
X114406125Y-93611819D01*
X114378880Y-93593303D01*
X114354716Y-93581413D01*
X114307547Y-93544825D01*
X114253199Y-93507890D01*
X114234669Y-93488296D01*
X114218105Y-93475447D01*
X114175385Y-93425605D01*
X114126157Y-93373548D01*
X114115347Y-93355557D01*
X114105600Y-93344185D01*
X114070903Y-93281589D01*
X114030927Y-93215059D01*
X114026141Y-93200838D01*
X114021781Y-93192972D01*
X113998597Y-93118991D01*
X113971952Y-93039817D01*
X113970979Y-93030863D01*
X113970082Y-93028000D01*
X113961649Y-92944979D01*
X113957000Y-92902191D01*
X113957000Y-92025690D01*
X113974707Y-91918731D01*
X113993968Y-91794312D01*
X113996132Y-91789311D01*
X113997651Y-91780136D01*
X114031707Y-91707103D01*
X114061311Y-91638693D01*
X114068186Y-91628875D01*
X114075793Y-91612561D01*
X114121129Y-91553263D01*
X114160477Y-91497068D01*
X114173531Y-91484723D01*
X114188096Y-91465673D01*
X114240554Y-91421343D01*
X114286086Y-91378285D01*
X114306439Y-91365665D01*
X114329321Y-91346329D01*
X114384816Y-91317070D01*
X114433022Y-91287181D01*
X114461099Y-91276850D01*
X114492879Y-91260095D01*
X114547619Y-91245017D01*
X114595272Y-91227484D01*
X114630753Y-91222118D01*
X114671139Y-91210994D01*
X114721902Y-91208334D01*
X114766215Y-91201632D01*
X114807994Y-91203822D01*
X114855783Y-91201317D01*
X114900055Y-91208646D01*
G37*
G36*
X99660055Y-91208646D02*
G01*
X99698862Y-91210680D01*
X99745116Y-91222728D01*
X99798199Y-91231516D01*
X99834324Y-91245965D01*
X99866166Y-91254259D01*
X99914396Y-91277991D01*
X99969875Y-91300181D01*
X99997118Y-91318696D01*
X100021287Y-91330588D01*
X100068462Y-91367181D01*
X100122802Y-91404110D01*
X100141330Y-91423703D01*
X100157894Y-91436551D01*
X100200614Y-91486393D01*
X100249844Y-91538452D01*
X100260654Y-91556443D01*
X100270401Y-91567815D01*
X100305098Y-91630411D01*
X100345074Y-91696941D01*
X100349860Y-91711162D01*
X100354220Y-91719028D01*
X100377404Y-91793009D01*
X100404049Y-91872183D01*
X100405022Y-91881137D01*
X100405919Y-91884000D01*
X100414354Y-91967046D01*
X100419000Y-92009809D01*
X100419000Y-92886311D01*
X100401292Y-92993278D01*
X100382032Y-93117689D01*
X100379868Y-93122690D01*
X100378349Y-93131865D01*
X100344291Y-93204903D01*
X100314687Y-93273312D01*
X100307813Y-93283129D01*
X100300207Y-93299440D01*
X100254879Y-93358726D01*
X100215526Y-93414929D01*
X100202470Y-93427276D01*
X100187904Y-93446327D01*
X100135446Y-93490657D01*
X100089914Y-93533715D01*
X100069561Y-93546335D01*
X100046679Y-93565671D01*
X99991184Y-93594930D01*
X99942978Y-93624819D01*
X99914901Y-93635150D01*
X99883121Y-93651905D01*
X99828381Y-93666983D01*
X99780728Y-93684516D01*
X99745247Y-93689882D01*
X99704861Y-93701006D01*
X99654098Y-93703666D01*
X99609785Y-93710368D01*
X99568006Y-93708178D01*
X99520217Y-93710683D01*
X99475945Y-93703354D01*
X99437138Y-93701320D01*
X99390884Y-93689272D01*
X99337801Y-93680484D01*
X99301676Y-93666035D01*
X99269834Y-93657741D01*
X99221605Y-93634009D01*
X99166125Y-93611819D01*
X99138880Y-93593303D01*
X99114716Y-93581413D01*
X99067547Y-93544825D01*
X99013199Y-93507890D01*
X98994669Y-93488296D01*
X98978105Y-93475447D01*
X98935385Y-93425605D01*
X98886157Y-93373548D01*
X98875347Y-93355557D01*
X98865600Y-93344185D01*
X98830903Y-93281589D01*
X98790927Y-93215059D01*
X98786141Y-93200838D01*
X98781781Y-93192972D01*
X98758597Y-93118991D01*
X98731952Y-93039817D01*
X98730979Y-93030863D01*
X98730082Y-93028000D01*
X98721649Y-92944979D01*
X98717000Y-92902191D01*
X98717000Y-92025690D01*
X98734707Y-91918731D01*
X98753968Y-91794312D01*
X98756132Y-91789311D01*
X98757651Y-91780136D01*
X98791707Y-91707103D01*
X98821311Y-91638693D01*
X98828186Y-91628875D01*
X98835793Y-91612561D01*
X98881129Y-91553263D01*
X98920477Y-91497068D01*
X98933531Y-91484723D01*
X98948096Y-91465673D01*
X99000554Y-91421343D01*
X99046086Y-91378285D01*
X99066439Y-91365665D01*
X99089321Y-91346329D01*
X99144816Y-91317070D01*
X99193022Y-91287181D01*
X99221099Y-91276850D01*
X99252879Y-91260095D01*
X99307619Y-91245017D01*
X99355272Y-91227484D01*
X99390753Y-91222118D01*
X99431139Y-91210994D01*
X99481902Y-91208334D01*
X99526215Y-91201632D01*
X99567994Y-91203822D01*
X99615783Y-91201317D01*
X99660055Y-91208646D01*
G37*
G36*
X112360055Y-91208646D02*
G01*
X112398862Y-91210680D01*
X112445116Y-91222728D01*
X112498199Y-91231516D01*
X112534324Y-91245965D01*
X112566166Y-91254259D01*
X112614396Y-91277991D01*
X112669875Y-91300181D01*
X112697118Y-91318696D01*
X112721287Y-91330588D01*
X112768462Y-91367181D01*
X112822802Y-91404110D01*
X112841330Y-91423703D01*
X112857894Y-91436551D01*
X112900614Y-91486393D01*
X112949844Y-91538452D01*
X112960654Y-91556443D01*
X112970401Y-91567815D01*
X113005098Y-91630411D01*
X113045074Y-91696941D01*
X113049860Y-91711162D01*
X113054220Y-91719028D01*
X113077404Y-91793009D01*
X113104049Y-91872183D01*
X113105022Y-91881137D01*
X113105919Y-91884000D01*
X113114354Y-91967046D01*
X113119000Y-92009809D01*
X113119000Y-92886311D01*
X113101292Y-92993278D01*
X113082032Y-93117689D01*
X113079868Y-93122690D01*
X113078349Y-93131865D01*
X113044291Y-93204903D01*
X113014687Y-93273312D01*
X113007813Y-93283129D01*
X113000207Y-93299440D01*
X112954879Y-93358726D01*
X112915526Y-93414929D01*
X112902470Y-93427276D01*
X112887904Y-93446327D01*
X112835446Y-93490657D01*
X112789914Y-93533715D01*
X112769561Y-93546335D01*
X112746679Y-93565671D01*
X112691184Y-93594930D01*
X112642978Y-93624819D01*
X112614901Y-93635150D01*
X112583121Y-93651905D01*
X112528381Y-93666983D01*
X112480728Y-93684516D01*
X112445247Y-93689882D01*
X112404861Y-93701006D01*
X112354098Y-93703666D01*
X112309785Y-93710368D01*
X112268006Y-93708178D01*
X112220217Y-93710683D01*
X112175945Y-93703354D01*
X112137138Y-93701320D01*
X112090884Y-93689272D01*
X112037801Y-93680484D01*
X112001676Y-93666035D01*
X111969834Y-93657741D01*
X111921605Y-93634009D01*
X111866125Y-93611819D01*
X111838880Y-93593303D01*
X111814716Y-93581413D01*
X111767547Y-93544825D01*
X111713199Y-93507890D01*
X111694669Y-93488296D01*
X111678105Y-93475447D01*
X111635385Y-93425605D01*
X111586157Y-93373548D01*
X111575347Y-93355557D01*
X111565600Y-93344185D01*
X111530903Y-93281589D01*
X111490927Y-93215059D01*
X111486141Y-93200838D01*
X111481781Y-93192972D01*
X111458597Y-93118991D01*
X111431952Y-93039817D01*
X111430979Y-93030863D01*
X111430082Y-93028000D01*
X111421649Y-92944979D01*
X111417000Y-92902191D01*
X111417000Y-92025690D01*
X111434707Y-91918731D01*
X111453968Y-91794312D01*
X111456132Y-91789311D01*
X111457651Y-91780136D01*
X111491707Y-91707103D01*
X111521311Y-91638693D01*
X111528186Y-91628875D01*
X111535793Y-91612561D01*
X111581129Y-91553263D01*
X111620477Y-91497068D01*
X111633531Y-91484723D01*
X111648096Y-91465673D01*
X111700554Y-91421343D01*
X111746086Y-91378285D01*
X111766439Y-91365665D01*
X111789321Y-91346329D01*
X111844816Y-91317070D01*
X111893022Y-91287181D01*
X111921099Y-91276850D01*
X111952879Y-91260095D01*
X112007619Y-91245017D01*
X112055272Y-91227484D01*
X112090753Y-91222118D01*
X112131139Y-91210994D01*
X112181902Y-91208334D01*
X112226215Y-91201632D01*
X112267994Y-91203822D01*
X112315783Y-91201317D01*
X112360055Y-91208646D01*
G37*
G36*
X102200055Y-91208646D02*
G01*
X102238862Y-91210680D01*
X102285116Y-91222728D01*
X102338199Y-91231516D01*
X102374324Y-91245965D01*
X102406166Y-91254259D01*
X102454396Y-91277991D01*
X102509875Y-91300181D01*
X102537118Y-91318696D01*
X102561287Y-91330588D01*
X102608462Y-91367181D01*
X102662802Y-91404110D01*
X102681330Y-91423703D01*
X102697894Y-91436551D01*
X102740614Y-91486393D01*
X102789844Y-91538452D01*
X102800654Y-91556443D01*
X102810401Y-91567815D01*
X102845098Y-91630411D01*
X102885074Y-91696941D01*
X102889860Y-91711162D01*
X102894220Y-91719028D01*
X102917404Y-91793009D01*
X102944049Y-91872183D01*
X102945022Y-91881137D01*
X102945919Y-91884000D01*
X102954354Y-91967046D01*
X102959000Y-92009809D01*
X102959000Y-92886311D01*
X102941292Y-92993278D01*
X102922032Y-93117689D01*
X102919868Y-93122690D01*
X102918349Y-93131865D01*
X102884291Y-93204903D01*
X102854687Y-93273312D01*
X102847813Y-93283129D01*
X102840207Y-93299440D01*
X102794879Y-93358726D01*
X102755526Y-93414929D01*
X102742470Y-93427276D01*
X102727904Y-93446327D01*
X102675446Y-93490657D01*
X102629914Y-93533715D01*
X102609561Y-93546335D01*
X102586679Y-93565671D01*
X102531184Y-93594930D01*
X102482978Y-93624819D01*
X102454901Y-93635150D01*
X102423121Y-93651905D01*
X102368381Y-93666983D01*
X102320728Y-93684516D01*
X102285247Y-93689882D01*
X102244861Y-93701006D01*
X102194098Y-93703666D01*
X102149785Y-93710368D01*
X102108006Y-93708178D01*
X102060217Y-93710683D01*
X102015945Y-93703354D01*
X101977138Y-93701320D01*
X101930884Y-93689272D01*
X101877801Y-93680484D01*
X101841676Y-93666035D01*
X101809834Y-93657741D01*
X101761605Y-93634009D01*
X101706125Y-93611819D01*
X101678880Y-93593303D01*
X101654716Y-93581413D01*
X101607547Y-93544825D01*
X101553199Y-93507890D01*
X101534669Y-93488296D01*
X101518105Y-93475447D01*
X101475385Y-93425605D01*
X101426157Y-93373548D01*
X101415347Y-93355557D01*
X101405600Y-93344185D01*
X101370903Y-93281589D01*
X101330927Y-93215059D01*
X101326141Y-93200838D01*
X101321781Y-93192972D01*
X101298597Y-93118991D01*
X101271952Y-93039817D01*
X101270979Y-93030863D01*
X101270082Y-93028000D01*
X101261649Y-92944979D01*
X101257000Y-92902191D01*
X101257000Y-92025690D01*
X101274707Y-91918731D01*
X101293968Y-91794312D01*
X101296132Y-91789311D01*
X101297651Y-91780136D01*
X101331707Y-91707103D01*
X101361311Y-91638693D01*
X101368186Y-91628875D01*
X101375793Y-91612561D01*
X101421129Y-91553263D01*
X101460477Y-91497068D01*
X101473531Y-91484723D01*
X101488096Y-91465673D01*
X101540554Y-91421343D01*
X101586086Y-91378285D01*
X101606439Y-91365665D01*
X101629321Y-91346329D01*
X101684816Y-91317070D01*
X101733022Y-91287181D01*
X101761099Y-91276850D01*
X101792879Y-91260095D01*
X101847619Y-91245017D01*
X101895272Y-91227484D01*
X101930753Y-91222118D01*
X101971139Y-91210994D01*
X102021902Y-91208334D01*
X102066215Y-91201632D01*
X102107994Y-91203822D01*
X102155783Y-91201317D01*
X102200055Y-91208646D01*
G37*
G36*
X109820055Y-91208646D02*
G01*
X109858862Y-91210680D01*
X109905116Y-91222728D01*
X109958199Y-91231516D01*
X109994324Y-91245965D01*
X110026166Y-91254259D01*
X110074396Y-91277991D01*
X110129875Y-91300181D01*
X110157118Y-91318696D01*
X110181287Y-91330588D01*
X110228462Y-91367181D01*
X110282802Y-91404110D01*
X110301330Y-91423703D01*
X110317894Y-91436551D01*
X110360614Y-91486393D01*
X110409844Y-91538452D01*
X110420654Y-91556443D01*
X110430401Y-91567815D01*
X110465098Y-91630411D01*
X110505074Y-91696941D01*
X110509860Y-91711162D01*
X110514220Y-91719028D01*
X110537404Y-91793009D01*
X110564049Y-91872183D01*
X110565022Y-91881137D01*
X110565919Y-91884000D01*
X110574354Y-91967046D01*
X110579000Y-92009809D01*
X110579000Y-92886311D01*
X110561292Y-92993278D01*
X110542032Y-93117689D01*
X110539868Y-93122690D01*
X110538349Y-93131865D01*
X110504291Y-93204903D01*
X110474687Y-93273312D01*
X110467813Y-93283129D01*
X110460207Y-93299440D01*
X110414879Y-93358726D01*
X110375526Y-93414929D01*
X110362470Y-93427276D01*
X110347904Y-93446327D01*
X110295446Y-93490657D01*
X110249914Y-93533715D01*
X110229561Y-93546335D01*
X110206679Y-93565671D01*
X110151184Y-93594930D01*
X110102978Y-93624819D01*
X110074901Y-93635150D01*
X110043121Y-93651905D01*
X109988381Y-93666983D01*
X109940728Y-93684516D01*
X109905247Y-93689882D01*
X109864861Y-93701006D01*
X109814098Y-93703666D01*
X109769785Y-93710368D01*
X109728006Y-93708178D01*
X109680217Y-93710683D01*
X109635945Y-93703354D01*
X109597138Y-93701320D01*
X109550884Y-93689272D01*
X109497801Y-93680484D01*
X109461676Y-93666035D01*
X109429834Y-93657741D01*
X109381605Y-93634009D01*
X109326125Y-93611819D01*
X109298880Y-93593303D01*
X109274716Y-93581413D01*
X109227547Y-93544825D01*
X109173199Y-93507890D01*
X109154669Y-93488296D01*
X109138105Y-93475447D01*
X109095385Y-93425605D01*
X109046157Y-93373548D01*
X109035347Y-93355557D01*
X109025600Y-93344185D01*
X108990903Y-93281589D01*
X108950927Y-93215059D01*
X108946141Y-93200838D01*
X108941781Y-93192972D01*
X108918597Y-93118991D01*
X108891952Y-93039817D01*
X108890979Y-93030863D01*
X108890082Y-93028000D01*
X108881649Y-92944979D01*
X108877000Y-92902191D01*
X108877000Y-92025690D01*
X108894707Y-91918731D01*
X108913968Y-91794312D01*
X108916132Y-91789311D01*
X108917651Y-91780136D01*
X108951707Y-91707103D01*
X108981311Y-91638693D01*
X108988186Y-91628875D01*
X108995793Y-91612561D01*
X109041129Y-91553263D01*
X109080477Y-91497068D01*
X109093531Y-91484723D01*
X109108096Y-91465673D01*
X109160554Y-91421343D01*
X109206086Y-91378285D01*
X109226439Y-91365665D01*
X109249321Y-91346329D01*
X109304816Y-91317070D01*
X109353022Y-91287181D01*
X109381099Y-91276850D01*
X109412879Y-91260095D01*
X109467619Y-91245017D01*
X109515272Y-91227484D01*
X109550753Y-91222118D01*
X109591139Y-91210994D01*
X109641902Y-91208334D01*
X109686215Y-91201632D01*
X109727994Y-91203822D01*
X109775783Y-91201317D01*
X109820055Y-91208646D01*
G37*
G36*
X104740055Y-91208646D02*
G01*
X104778862Y-91210680D01*
X104825116Y-91222728D01*
X104878199Y-91231516D01*
X104914324Y-91245965D01*
X104946166Y-91254259D01*
X104994396Y-91277991D01*
X105049875Y-91300181D01*
X105077118Y-91318696D01*
X105101287Y-91330588D01*
X105148462Y-91367181D01*
X105202802Y-91404110D01*
X105221330Y-91423703D01*
X105237894Y-91436551D01*
X105280614Y-91486393D01*
X105329844Y-91538452D01*
X105340654Y-91556443D01*
X105350401Y-91567815D01*
X105385098Y-91630411D01*
X105425074Y-91696941D01*
X105429860Y-91711162D01*
X105434220Y-91719028D01*
X105457404Y-91793009D01*
X105484049Y-91872183D01*
X105485022Y-91881137D01*
X105485919Y-91884000D01*
X105494354Y-91967046D01*
X105499000Y-92009809D01*
X105499000Y-92886311D01*
X105481292Y-92993278D01*
X105462032Y-93117689D01*
X105459868Y-93122690D01*
X105458349Y-93131865D01*
X105424291Y-93204903D01*
X105394687Y-93273312D01*
X105387813Y-93283129D01*
X105380207Y-93299440D01*
X105334879Y-93358726D01*
X105295526Y-93414929D01*
X105282470Y-93427276D01*
X105267904Y-93446327D01*
X105215446Y-93490657D01*
X105169914Y-93533715D01*
X105149561Y-93546335D01*
X105126679Y-93565671D01*
X105071184Y-93594930D01*
X105022978Y-93624819D01*
X104994901Y-93635150D01*
X104963121Y-93651905D01*
X104908381Y-93666983D01*
X104860728Y-93684516D01*
X104825247Y-93689882D01*
X104784861Y-93701006D01*
X104734098Y-93703666D01*
X104689785Y-93710368D01*
X104648006Y-93708178D01*
X104600217Y-93710683D01*
X104555945Y-93703354D01*
X104517138Y-93701320D01*
X104470884Y-93689272D01*
X104417801Y-93680484D01*
X104381676Y-93666035D01*
X104349834Y-93657741D01*
X104301605Y-93634009D01*
X104246125Y-93611819D01*
X104218880Y-93593303D01*
X104194716Y-93581413D01*
X104147547Y-93544825D01*
X104093199Y-93507890D01*
X104074669Y-93488296D01*
X104058105Y-93475447D01*
X104015385Y-93425605D01*
X103966157Y-93373548D01*
X103955347Y-93355557D01*
X103945600Y-93344185D01*
X103910903Y-93281589D01*
X103870927Y-93215059D01*
X103866141Y-93200838D01*
X103861781Y-93192972D01*
X103838597Y-93118991D01*
X103811952Y-93039817D01*
X103810979Y-93030863D01*
X103810082Y-93028000D01*
X103801649Y-92944979D01*
X103797000Y-92902191D01*
X103797000Y-92025690D01*
X103814707Y-91918731D01*
X103833968Y-91794312D01*
X103836132Y-91789311D01*
X103837651Y-91780136D01*
X103871707Y-91707103D01*
X103901311Y-91638693D01*
X103908186Y-91628875D01*
X103915793Y-91612561D01*
X103961129Y-91553263D01*
X104000477Y-91497068D01*
X104013531Y-91484723D01*
X104028096Y-91465673D01*
X104080554Y-91421343D01*
X104126086Y-91378285D01*
X104146439Y-91365665D01*
X104169321Y-91346329D01*
X104224816Y-91317070D01*
X104273022Y-91287181D01*
X104301099Y-91276850D01*
X104332879Y-91260095D01*
X104387619Y-91245017D01*
X104435272Y-91227484D01*
X104470753Y-91222118D01*
X104511139Y-91210994D01*
X104561902Y-91208334D01*
X104606215Y-91201632D01*
X104647994Y-91203822D01*
X104695783Y-91201317D01*
X104740055Y-91208646D01*
G37*
G36*
X107280055Y-91208646D02*
G01*
X107318862Y-91210680D01*
X107365116Y-91222728D01*
X107418199Y-91231516D01*
X107454324Y-91245965D01*
X107486166Y-91254259D01*
X107534396Y-91277991D01*
X107589875Y-91300181D01*
X107617118Y-91318696D01*
X107641287Y-91330588D01*
X107688462Y-91367181D01*
X107742802Y-91404110D01*
X107761330Y-91423703D01*
X107777894Y-91436551D01*
X107820614Y-91486393D01*
X107869844Y-91538452D01*
X107880654Y-91556443D01*
X107890401Y-91567815D01*
X107925098Y-91630411D01*
X107965074Y-91696941D01*
X107969860Y-91711162D01*
X107974220Y-91719028D01*
X107997404Y-91793009D01*
X108024049Y-91872183D01*
X108025022Y-91881137D01*
X108025919Y-91884000D01*
X108034354Y-91967046D01*
X108039000Y-92009809D01*
X108039000Y-92886311D01*
X108021292Y-92993278D01*
X108002032Y-93117689D01*
X107999868Y-93122690D01*
X107998349Y-93131865D01*
X107964291Y-93204903D01*
X107934687Y-93273312D01*
X107927813Y-93283129D01*
X107920207Y-93299440D01*
X107874879Y-93358726D01*
X107835526Y-93414929D01*
X107822470Y-93427276D01*
X107807904Y-93446327D01*
X107755446Y-93490657D01*
X107709914Y-93533715D01*
X107689561Y-93546335D01*
X107666679Y-93565671D01*
X107611184Y-93594930D01*
X107562978Y-93624819D01*
X107534901Y-93635150D01*
X107503121Y-93651905D01*
X107448381Y-93666983D01*
X107400728Y-93684516D01*
X107365247Y-93689882D01*
X107324861Y-93701006D01*
X107274098Y-93703666D01*
X107229785Y-93710368D01*
X107188006Y-93708178D01*
X107140217Y-93710683D01*
X107095945Y-93703354D01*
X107057138Y-93701320D01*
X107010884Y-93689272D01*
X106957801Y-93680484D01*
X106921676Y-93666035D01*
X106889834Y-93657741D01*
X106841605Y-93634009D01*
X106786125Y-93611819D01*
X106758880Y-93593303D01*
X106734716Y-93581413D01*
X106687547Y-93544825D01*
X106633199Y-93507890D01*
X106614669Y-93488296D01*
X106598105Y-93475447D01*
X106555385Y-93425605D01*
X106506157Y-93373548D01*
X106495347Y-93355557D01*
X106485600Y-93344185D01*
X106450903Y-93281589D01*
X106410927Y-93215059D01*
X106406141Y-93200838D01*
X106401781Y-93192972D01*
X106378597Y-93118991D01*
X106351952Y-93039817D01*
X106350979Y-93030863D01*
X106350082Y-93028000D01*
X106341649Y-92944979D01*
X106337000Y-92902191D01*
X106337000Y-92025690D01*
X106354707Y-91918731D01*
X106373968Y-91794312D01*
X106376132Y-91789311D01*
X106377651Y-91780136D01*
X106411707Y-91707103D01*
X106441311Y-91638693D01*
X106448186Y-91628875D01*
X106455793Y-91612561D01*
X106501129Y-91553263D01*
X106540477Y-91497068D01*
X106553531Y-91484723D01*
X106568096Y-91465673D01*
X106620554Y-91421343D01*
X106666086Y-91378285D01*
X106686439Y-91365665D01*
X106709321Y-91346329D01*
X106764816Y-91317070D01*
X106813022Y-91287181D01*
X106841099Y-91276850D01*
X106872879Y-91260095D01*
X106927619Y-91245017D01*
X106975272Y-91227484D01*
X107010753Y-91222118D01*
X107051139Y-91210994D01*
X107101902Y-91208334D01*
X107146215Y-91201632D01*
X107187994Y-91203822D01*
X107235783Y-91201317D01*
X107280055Y-91208646D01*
G37*
G36*
X95307899Y-91207959D02*
G01*
X95324769Y-91219231D01*
X95336041Y-91236101D01*
X95342448Y-91268312D01*
X95342448Y-93643688D01*
X95339999Y-93656000D01*
X95336041Y-93675899D01*
X95324769Y-93692769D01*
X95307899Y-93704041D01*
X95288000Y-93707999D01*
X95275688Y-93710448D01*
X93700312Y-93710448D01*
X93668101Y-93704041D01*
X93651231Y-93692769D01*
X93639959Y-93675899D01*
X93633552Y-93643688D01*
X93633552Y-91268312D01*
X93639959Y-91236101D01*
X93651231Y-91219231D01*
X93668101Y-91207959D01*
X93700312Y-91201552D01*
X95275688Y-91201552D01*
X95307899Y-91207959D01*
G37*
G36*
X120789756Y-88415764D02*
G01*
X120801227Y-88421288D01*
X120809287Y-88422795D01*
X120826547Y-88433482D01*
X120871638Y-88455197D01*
X120891738Y-88473847D01*
X120904964Y-88482036D01*
X120915265Y-88495676D01*
X120938264Y-88517016D01*
X120960614Y-88555727D01*
X120972781Y-88571839D01*
X120974751Y-88580213D01*
X120982506Y-88593646D01*
X121001419Y-88693601D01*
X121004883Y-88708330D01*
X121004883Y-88711909D01*
X121006194Y-88718838D01*
X121006194Y-89591517D01*
X120991236Y-89690756D01*
X120985712Y-89702227D01*
X120984205Y-89710287D01*
X120973518Y-89727547D01*
X120951803Y-89772638D01*
X120933153Y-89792738D01*
X120924964Y-89805964D01*
X120911324Y-89816265D01*
X120889984Y-89839264D01*
X120851273Y-89861614D01*
X120835161Y-89873781D01*
X120826787Y-89875751D01*
X120813354Y-89883506D01*
X120713399Y-89902419D01*
X120698670Y-89905883D01*
X120695091Y-89905883D01*
X120688162Y-89907194D01*
X120065483Y-89907194D01*
X119966244Y-89892236D01*
X119954773Y-89886712D01*
X119946713Y-89885205D01*
X119929453Y-89874518D01*
X119884362Y-89852803D01*
X119864262Y-89834153D01*
X119851036Y-89825964D01*
X119840735Y-89812324D01*
X119817736Y-89790984D01*
X119795386Y-89752273D01*
X119783219Y-89736161D01*
X119781249Y-89727787D01*
X119773494Y-89714354D01*
X119754581Y-89614399D01*
X119751117Y-89599670D01*
X119751117Y-89596091D01*
X119749806Y-89589162D01*
X119749806Y-88716483D01*
X119764764Y-88617244D01*
X119770288Y-88605773D01*
X119771795Y-88597713D01*
X119782482Y-88580453D01*
X119804197Y-88535362D01*
X119822847Y-88515262D01*
X119831036Y-88502036D01*
X119844676Y-88491735D01*
X119866016Y-88468736D01*
X119904727Y-88446386D01*
X119920839Y-88434219D01*
X119929213Y-88432249D01*
X119942646Y-88424494D01*
X120042601Y-88405581D01*
X120057330Y-88402117D01*
X120060909Y-88402117D01*
X120067838Y-88400806D01*
X120690517Y-88400806D01*
X120789756Y-88415764D01*
G37*
G36*
X122839756Y-88415764D02*
G01*
X122851227Y-88421288D01*
X122859287Y-88422795D01*
X122876547Y-88433482D01*
X122921638Y-88455197D01*
X122941738Y-88473847D01*
X122954964Y-88482036D01*
X122965265Y-88495676D01*
X122988264Y-88517016D01*
X123010614Y-88555727D01*
X123022781Y-88571839D01*
X123024751Y-88580213D01*
X123032506Y-88593646D01*
X123051419Y-88693601D01*
X123054883Y-88708330D01*
X123054883Y-88711909D01*
X123056194Y-88718838D01*
X123056194Y-89591517D01*
X123041236Y-89690756D01*
X123035712Y-89702227D01*
X123034205Y-89710287D01*
X123023518Y-89727547D01*
X123001803Y-89772638D01*
X122983153Y-89792738D01*
X122974964Y-89805964D01*
X122961324Y-89816265D01*
X122939984Y-89839264D01*
X122901273Y-89861614D01*
X122885161Y-89873781D01*
X122876787Y-89875751D01*
X122863354Y-89883506D01*
X122763399Y-89902419D01*
X122748670Y-89905883D01*
X122745091Y-89905883D01*
X122738162Y-89907194D01*
X122115483Y-89907194D01*
X122016244Y-89892236D01*
X122004773Y-89886712D01*
X121996713Y-89885205D01*
X121979453Y-89874518D01*
X121934362Y-89852803D01*
X121914262Y-89834153D01*
X121901036Y-89825964D01*
X121890735Y-89812324D01*
X121867736Y-89790984D01*
X121845386Y-89752273D01*
X121833219Y-89736161D01*
X121831249Y-89727787D01*
X121823494Y-89714354D01*
X121804581Y-89614399D01*
X121801117Y-89599670D01*
X121801117Y-89596091D01*
X121799806Y-89589162D01*
X121799806Y-88716483D01*
X121814764Y-88617244D01*
X121820288Y-88605773D01*
X121821795Y-88597713D01*
X121832482Y-88580453D01*
X121854197Y-88535362D01*
X121872847Y-88515262D01*
X121881036Y-88502036D01*
X121894676Y-88491735D01*
X121916016Y-88468736D01*
X121954727Y-88446386D01*
X121970839Y-88434219D01*
X121979213Y-88432249D01*
X121992646Y-88424494D01*
X122092601Y-88405581D01*
X122107330Y-88402117D01*
X122110909Y-88402117D01*
X122117838Y-88400806D01*
X122740517Y-88400806D01*
X122839756Y-88415764D01*
G37*
G36*
X97077902Y-87741283D02*
G01*
X97122637Y-87741595D01*
X97166460Y-87750590D01*
X97216360Y-87755835D01*
X97258132Y-87769408D01*
X97295723Y-87777124D01*
X97342851Y-87796935D01*
X97396488Y-87814363D01*
X97429099Y-87833191D01*
X97458614Y-87845598D01*
X97506301Y-87877763D01*
X97560511Y-87909061D01*
X97583826Y-87930054D01*
X97605101Y-87944404D01*
X97650183Y-87989802D01*
X97701261Y-88035793D01*
X97716003Y-88056083D01*
X97729608Y-88069784D01*
X97768643Y-88128537D01*
X97812586Y-88189019D01*
X97820221Y-88206168D01*
X97827388Y-88216955D01*
X97856865Y-88288472D01*
X97889621Y-88362042D01*
X97892211Y-88374225D01*
X97894724Y-88380323D01*
X97911292Y-88463997D01*
X97928999Y-88547301D01*
X97928999Y-88736699D01*
X97926115Y-88750269D01*
X97926030Y-88756331D01*
X97907342Y-88838585D01*
X97889621Y-88921958D01*
X97887129Y-88927555D01*
X97887078Y-88927780D01*
X97815210Y-89089197D01*
X97815078Y-89089385D01*
X97812586Y-89094981D01*
X97762480Y-89163946D01*
X97713357Y-89233582D01*
X97708585Y-89238126D01*
X97701261Y-89248207D01*
X97641396Y-89302110D01*
X97585396Y-89355438D01*
X97574464Y-89362376D01*
X97560511Y-89374939D01*
X97495764Y-89412321D01*
X97436211Y-89450114D01*
X97418209Y-89457097D01*
X97396488Y-89469637D01*
X97331115Y-89490878D01*
X97271468Y-89514014D01*
X97246200Y-89518469D01*
X97216360Y-89528165D01*
X97154095Y-89534709D01*
X97097460Y-89544695D01*
X97065459Y-89544025D01*
X97028000Y-89547962D01*
X96971902Y-89542066D01*
X96920799Y-89540996D01*
X96883323Y-89532756D01*
X96839640Y-89528165D01*
X96791917Y-89512659D01*
X96748225Y-89503052D01*
X96707230Y-89485142D01*
X96659512Y-89469637D01*
X96621473Y-89447675D01*
X96586310Y-89432313D01*
X96544337Y-89403141D01*
X96495489Y-89374939D01*
X96467504Y-89349741D01*
X96441215Y-89331470D01*
X96401257Y-89290092D01*
X96354739Y-89248207D01*
X96336296Y-89222823D01*
X96318473Y-89204366D01*
X96283821Y-89150597D01*
X96243414Y-89094981D01*
X96233212Y-89072066D01*
X96222754Y-89055839D01*
X96196789Y-88990261D01*
X96166379Y-88921958D01*
X96162476Y-88903596D01*
X96157707Y-88891551D01*
X96143740Y-88815448D01*
X96127001Y-88736699D01*
X96127001Y-88724246D01*
X96125811Y-88717762D01*
X96127001Y-88632535D01*
X96127001Y-88547301D01*
X96128275Y-88541308D01*
X96128278Y-88541077D01*
X96165015Y-88368246D01*
X96165105Y-88368036D01*
X96166379Y-88362042D01*
X96201042Y-88284188D01*
X96234622Y-88205839D01*
X96238348Y-88200397D01*
X96243414Y-88189019D01*
X96290746Y-88123872D01*
X96334452Y-88060041D01*
X96343706Y-88050979D01*
X96354739Y-88035793D01*
X96410297Y-87985769D01*
X96460693Y-87936417D01*
X96476848Y-87925846D01*
X96495489Y-87909061D01*
X96555026Y-87874687D01*
X96608551Y-87839662D01*
X96632340Y-87830050D01*
X96659512Y-87814363D01*
X96719045Y-87795019D01*
X96772376Y-87773472D01*
X96803820Y-87767474D01*
X96839640Y-87755835D01*
X96895744Y-87749938D01*
X96945945Y-87740362D01*
X96984312Y-87740630D01*
X97028000Y-87736038D01*
X97077902Y-87741283D01*
G37*
G36*
X123612256Y-85954764D02*
G01*
X123623728Y-85960289D01*
X123631786Y-85961795D01*
X123649043Y-85972480D01*
X123694138Y-85994197D01*
X123714238Y-86012847D01*
X123727464Y-86021036D01*
X123737764Y-86034676D01*
X123760765Y-86056017D01*
X123783117Y-86094732D01*
X123795281Y-86110840D01*
X123797250Y-86119212D01*
X123805006Y-86132646D01*
X123823919Y-86232603D01*
X123827383Y-86247331D01*
X123827383Y-86250910D01*
X123828694Y-86257839D01*
X123828694Y-87480516D01*
X123813736Y-87579756D01*
X123808211Y-87591228D01*
X123806705Y-87599286D01*
X123796020Y-87616543D01*
X123774303Y-87661638D01*
X123755653Y-87681738D01*
X123747464Y-87694964D01*
X123733824Y-87705264D01*
X123712483Y-87728265D01*
X123673768Y-87750617D01*
X123657660Y-87762781D01*
X123649288Y-87764750D01*
X123635854Y-87772506D01*
X123535897Y-87791419D01*
X123521169Y-87794883D01*
X123517590Y-87794883D01*
X123510661Y-87796194D01*
X122612984Y-87796194D01*
X122513744Y-87781236D01*
X122502272Y-87775711D01*
X122494214Y-87774205D01*
X122476957Y-87763520D01*
X122431862Y-87741803D01*
X122411762Y-87723153D01*
X122398536Y-87714964D01*
X122388236Y-87701324D01*
X122365235Y-87679983D01*
X122342883Y-87641268D01*
X122330719Y-87625160D01*
X122328750Y-87616788D01*
X122320994Y-87603354D01*
X122302081Y-87503397D01*
X122298617Y-87488669D01*
X122298617Y-87485090D01*
X122297306Y-87478161D01*
X122297306Y-86255484D01*
X122312264Y-86156244D01*
X122317789Y-86144772D01*
X122319295Y-86136714D01*
X122329980Y-86119457D01*
X122351697Y-86074362D01*
X122370347Y-86054262D01*
X122378536Y-86041036D01*
X122392176Y-86030736D01*
X122413517Y-86007735D01*
X122452232Y-85985383D01*
X122468340Y-85973219D01*
X122476712Y-85971250D01*
X122490146Y-85963494D01*
X122590103Y-85944581D01*
X122604831Y-85941117D01*
X122608410Y-85941117D01*
X122615339Y-85939806D01*
X123513016Y-85939806D01*
X123612256Y-85954764D01*
G37*
G36*
X120637256Y-85954764D02*
G01*
X120648728Y-85960289D01*
X120656786Y-85961795D01*
X120674043Y-85972480D01*
X120719138Y-85994197D01*
X120739238Y-86012847D01*
X120752464Y-86021036D01*
X120762764Y-86034676D01*
X120785765Y-86056017D01*
X120808117Y-86094732D01*
X120820281Y-86110840D01*
X120822250Y-86119212D01*
X120830006Y-86132646D01*
X120848919Y-86232603D01*
X120852383Y-86247331D01*
X120852383Y-86250910D01*
X120853694Y-86257839D01*
X120853694Y-87480516D01*
X120838736Y-87579756D01*
X120833211Y-87591228D01*
X120831705Y-87599286D01*
X120821020Y-87616543D01*
X120799303Y-87661638D01*
X120780653Y-87681738D01*
X120772464Y-87694964D01*
X120758824Y-87705264D01*
X120737483Y-87728265D01*
X120698768Y-87750617D01*
X120682660Y-87762781D01*
X120674288Y-87764750D01*
X120660854Y-87772506D01*
X120560897Y-87791419D01*
X120546169Y-87794883D01*
X120542590Y-87794883D01*
X120535661Y-87796194D01*
X119637984Y-87796194D01*
X119538744Y-87781236D01*
X119527272Y-87775711D01*
X119519214Y-87774205D01*
X119501957Y-87763520D01*
X119456862Y-87741803D01*
X119436762Y-87723153D01*
X119423536Y-87714964D01*
X119413236Y-87701324D01*
X119390235Y-87679983D01*
X119367883Y-87641268D01*
X119355719Y-87625160D01*
X119353750Y-87616788D01*
X119345994Y-87603354D01*
X119327081Y-87503397D01*
X119323617Y-87488669D01*
X119323617Y-87485090D01*
X119322306Y-87478161D01*
X119322306Y-86255484D01*
X119337264Y-86156244D01*
X119342789Y-86144772D01*
X119344295Y-86136714D01*
X119354980Y-86119457D01*
X119376697Y-86074362D01*
X119395347Y-86054262D01*
X119403536Y-86041036D01*
X119417176Y-86030736D01*
X119438517Y-86007735D01*
X119477232Y-85985383D01*
X119493340Y-85973219D01*
X119501712Y-85971250D01*
X119515146Y-85963494D01*
X119615103Y-85944581D01*
X119629831Y-85941117D01*
X119633410Y-85941117D01*
X119640339Y-85939806D01*
X120538016Y-85939806D01*
X120637256Y-85954764D01*
G37*
G36*
X126995542Y-82585111D02*
G01*
X127017506Y-82585130D01*
X127137500Y-82601034D01*
X127267510Y-82615617D01*
X127290187Y-82621271D01*
X127310022Y-82623900D01*
X127428493Y-82655755D01*
X127557660Y-82687960D01*
X127577540Y-82695831D01*
X127594975Y-82700519D01*
X127709663Y-82748142D01*
X127835694Y-82798041D01*
X127852639Y-82807511D01*
X127867490Y-82813678D01*
X127976170Y-82876551D01*
X128096726Y-82943927D01*
X128110679Y-82954365D01*
X128122910Y-82961441D01*
X128223502Y-83038768D01*
X128336171Y-83123055D01*
X128347205Y-83133860D01*
X128356852Y-83141276D01*
X128447208Y-83231790D01*
X128549822Y-83332277D01*
X128558114Y-83342891D01*
X128565318Y-83350107D01*
X128643475Y-83452148D01*
X128733925Y-83567919D01*
X128739740Y-83577830D01*
X128744746Y-83584366D01*
X128808964Y-83695819D01*
X128885246Y-83825838D01*
X128888933Y-83834609D01*
X128892060Y-83840036D01*
X128940838Y-83958087D01*
X129001126Y-84101506D01*
X129003099Y-84108767D01*
X129004747Y-84112756D01*
X129036943Y-84233335D01*
X129079529Y-84390078D01*
X129080262Y-84395571D01*
X129080867Y-84397837D01*
X129095739Y-84511565D01*
X129119078Y-84686484D01*
X129119005Y-84689484D01*
X129119128Y-84690427D01*
X129118870Y-84985506D01*
X129110165Y-85051183D01*
X129109087Y-85095303D01*
X129091921Y-85188833D01*
X129080100Y-85278022D01*
X129065772Y-85331311D01*
X129055106Y-85389423D01*
X129026348Y-85477929D01*
X129003481Y-85562975D01*
X128981569Y-85615744D01*
X128962699Y-85673820D01*
X128923358Y-85755931D01*
X128890322Y-85835490D01*
X128860740Y-85886624D01*
X128833491Y-85943498D01*
X128784737Y-86018003D01*
X128742559Y-86090910D01*
X128705369Y-86139289D01*
X128669752Y-86193718D01*
X128612885Y-86259599D01*
X128562724Y-86324852D01*
X128518165Y-86369333D01*
X128474358Y-86420084D01*
X128410772Y-86476538D01*
X128353893Y-86533318D01*
X128302378Y-86572775D01*
X128250742Y-86618620D01*
X128181896Y-86665057D01*
X128119634Y-86712746D01*
X128061733Y-86746108D01*
X128002832Y-86785837D01*
X127930249Y-86821868D01*
X127863964Y-86860060D01*
X127800405Y-86886323D01*
X127734985Y-86918797D01*
X127660182Y-86944262D01*
X127591244Y-86972747D01*
X127522914Y-86990992D01*
X127451906Y-87015165D01*
X127376359Y-87030124D01*
X127306163Y-87048867D01*
X127234125Y-87058287D01*
X127158568Y-87073248D01*
X127083693Y-87077959D01*
X127013573Y-87087128D01*
X126938983Y-87087063D01*
X126860125Y-87092024D01*
X126787278Y-87086930D01*
X126718494Y-87086870D01*
X126642639Y-87076816D01*
X126561821Y-87071165D01*
X126492244Y-87056883D01*
X126425978Y-87048100D01*
X126350214Y-87027728D01*
X126268895Y-87011036D01*
X126203708Y-86988335D01*
X126141025Y-86971481D01*
X126066786Y-86940654D01*
X125986496Y-86912694D01*
X125926653Y-86882465D01*
X125868510Y-86858322D01*
X125797276Y-86817112D01*
X125719583Y-86777867D01*
X125665907Y-86741114D01*
X125613090Y-86710559D01*
X125546312Y-86659225D01*
X125472847Y-86608923D01*
X125425985Y-86566729D01*
X125379148Y-86530724D01*
X125318290Y-86469760D01*
X125250622Y-86408831D01*
X125211037Y-86362318D01*
X125170682Y-86321893D01*
X125117146Y-86251997D01*
X125056813Y-86181106D01*
X125024799Y-86131431D01*
X124991254Y-86087634D01*
X124946346Y-86009695D01*
X124894825Y-85929749D01*
X124870511Y-85878079D01*
X124843940Y-85831964D01*
X124808857Y-85747058D01*
X124767503Y-85659176D01*
X124750840Y-85606646D01*
X124731253Y-85559244D01*
X124707059Y-85468632D01*
X124677084Y-85374141D01*
X124667859Y-85321826D01*
X124655133Y-85274163D01*
X124642727Y-85179288D01*
X124625158Y-85079651D01*
X124623017Y-85028562D01*
X124616872Y-84981573D01*
X124616957Y-84884001D01*
X124612635Y-84780880D01*
X124617090Y-84731926D01*
X124617130Y-84686494D01*
X124630199Y-84587888D01*
X124639738Y-84483078D01*
X124650186Y-84437092D01*
X124655900Y-84393978D01*
X124682220Y-84296090D01*
X124705988Y-84191476D01*
X124721733Y-84149138D01*
X124732519Y-84109025D01*
X124772105Y-84013693D01*
X124810222Y-83911198D01*
X124830503Y-83873055D01*
X124845678Y-83836510D01*
X124898297Y-83745554D01*
X124950610Y-83647168D01*
X124974597Y-83613663D01*
X124993441Y-83581090D01*
X125058627Y-83496292D01*
X125124684Y-83404024D01*
X125151534Y-83375432D01*
X125173276Y-83347148D01*
X125250264Y-83270294D01*
X125329386Y-83186038D01*
X125358251Y-83162497D01*
X125382107Y-83138682D01*
X125469900Y-83071438D01*
X125561120Y-82997041D01*
X125591160Y-82978560D01*
X125616366Y-82959254D01*
X125713744Y-82903146D01*
X125815814Y-82840352D01*
X125846224Y-82826812D01*
X125872036Y-82811940D01*
X125977559Y-82768338D01*
X126088994Y-82718724D01*
X126119021Y-82709887D01*
X126144756Y-82699253D01*
X126256815Y-82669332D01*
X126375861Y-82634295D01*
X126404829Y-82629811D01*
X126429837Y-82623133D01*
X126546547Y-82607871D01*
X126671373Y-82588547D01*
X126698702Y-82587975D01*
X126722427Y-82584872D01*
X126841818Y-82584976D01*
X126970341Y-82582284D01*
X126995542Y-82585111D01*
G37*
G36*
X97077902Y-85201283D02*
G01*
X97122637Y-85201595D01*
X97166460Y-85210590D01*
X97216360Y-85215835D01*
X97258132Y-85229408D01*
X97295723Y-85237124D01*
X97342851Y-85256935D01*
X97396488Y-85274363D01*
X97429099Y-85293191D01*
X97458614Y-85305598D01*
X97506301Y-85337763D01*
X97560511Y-85369061D01*
X97583826Y-85390054D01*
X97605101Y-85404404D01*
X97650183Y-85449802D01*
X97701261Y-85495793D01*
X97716003Y-85516083D01*
X97729608Y-85529784D01*
X97768643Y-85588537D01*
X97812586Y-85649019D01*
X97820221Y-85666168D01*
X97827388Y-85676955D01*
X97856865Y-85748472D01*
X97889621Y-85822042D01*
X97892211Y-85834225D01*
X97894724Y-85840323D01*
X97911292Y-85923997D01*
X97928999Y-86007301D01*
X97928999Y-86196699D01*
X97926115Y-86210269D01*
X97926030Y-86216331D01*
X97907342Y-86298585D01*
X97889621Y-86381958D01*
X97887129Y-86387555D01*
X97887078Y-86387780D01*
X97815210Y-86549197D01*
X97815078Y-86549385D01*
X97812586Y-86554981D01*
X97762480Y-86623946D01*
X97713357Y-86693582D01*
X97708585Y-86698126D01*
X97701261Y-86708207D01*
X97641396Y-86762110D01*
X97585396Y-86815438D01*
X97574464Y-86822376D01*
X97560511Y-86834939D01*
X97495764Y-86872321D01*
X97436211Y-86910114D01*
X97418209Y-86917097D01*
X97396488Y-86929637D01*
X97331115Y-86950878D01*
X97271468Y-86974014D01*
X97246200Y-86978469D01*
X97216360Y-86988165D01*
X97154095Y-86994709D01*
X97097460Y-87004695D01*
X97065459Y-87004025D01*
X97028000Y-87007962D01*
X96971902Y-87002066D01*
X96920799Y-87000996D01*
X96883323Y-86992756D01*
X96839640Y-86988165D01*
X96791917Y-86972659D01*
X96748225Y-86963052D01*
X96707230Y-86945142D01*
X96659512Y-86929637D01*
X96621473Y-86907675D01*
X96586310Y-86892313D01*
X96544337Y-86863141D01*
X96495489Y-86834939D01*
X96467504Y-86809741D01*
X96441215Y-86791470D01*
X96401257Y-86750092D01*
X96354739Y-86708207D01*
X96336296Y-86682823D01*
X96318473Y-86664366D01*
X96283821Y-86610597D01*
X96243414Y-86554981D01*
X96233212Y-86532066D01*
X96222754Y-86515839D01*
X96196789Y-86450261D01*
X96166379Y-86381958D01*
X96162476Y-86363596D01*
X96157707Y-86351551D01*
X96143740Y-86275448D01*
X96127001Y-86196699D01*
X96127001Y-86184246D01*
X96125811Y-86177762D01*
X96127001Y-86092535D01*
X96127001Y-86007301D01*
X96128275Y-86001308D01*
X96128278Y-86001077D01*
X96165015Y-85828246D01*
X96165105Y-85828036D01*
X96166379Y-85822042D01*
X96201042Y-85744188D01*
X96234622Y-85665839D01*
X96238348Y-85660397D01*
X96243414Y-85649019D01*
X96290746Y-85583872D01*
X96334452Y-85520041D01*
X96343706Y-85510979D01*
X96354739Y-85495793D01*
X96410297Y-85445769D01*
X96460693Y-85396417D01*
X96476848Y-85385846D01*
X96495489Y-85369061D01*
X96555026Y-85334687D01*
X96608551Y-85299662D01*
X96632340Y-85290050D01*
X96659512Y-85274363D01*
X96719045Y-85255019D01*
X96772376Y-85233472D01*
X96803820Y-85227474D01*
X96839640Y-85215835D01*
X96895744Y-85209938D01*
X96945945Y-85200362D01*
X96984312Y-85200630D01*
X97028000Y-85196038D01*
X97077902Y-85201283D01*
G37*
G36*
X97077902Y-82661283D02*
G01*
X97122637Y-82661595D01*
X97166460Y-82670590D01*
X97216360Y-82675835D01*
X97258132Y-82689408D01*
X97295723Y-82697124D01*
X97342851Y-82716935D01*
X97396488Y-82734363D01*
X97429099Y-82753191D01*
X97458614Y-82765598D01*
X97506301Y-82797763D01*
X97560511Y-82829061D01*
X97583826Y-82850054D01*
X97605101Y-82864404D01*
X97650183Y-82909802D01*
X97701261Y-82955793D01*
X97716003Y-82976083D01*
X97729608Y-82989784D01*
X97768643Y-83048537D01*
X97812586Y-83109019D01*
X97820221Y-83126168D01*
X97827388Y-83136955D01*
X97856865Y-83208472D01*
X97889621Y-83282042D01*
X97892211Y-83294225D01*
X97894724Y-83300323D01*
X97911292Y-83383997D01*
X97928999Y-83467301D01*
X97928999Y-83656699D01*
X97926115Y-83670269D01*
X97926030Y-83676331D01*
X97907342Y-83758585D01*
X97889621Y-83841958D01*
X97887129Y-83847555D01*
X97887078Y-83847780D01*
X97815210Y-84009197D01*
X97815078Y-84009385D01*
X97812586Y-84014981D01*
X97762480Y-84083946D01*
X97713357Y-84153582D01*
X97708585Y-84158126D01*
X97701261Y-84168207D01*
X97641396Y-84222110D01*
X97585396Y-84275438D01*
X97574464Y-84282376D01*
X97560511Y-84294939D01*
X97495764Y-84332321D01*
X97436211Y-84370114D01*
X97418209Y-84377097D01*
X97396488Y-84389637D01*
X97331115Y-84410878D01*
X97271468Y-84434014D01*
X97246200Y-84438469D01*
X97216360Y-84448165D01*
X97154095Y-84454709D01*
X97097460Y-84464695D01*
X97065459Y-84464025D01*
X97028000Y-84467962D01*
X96971902Y-84462066D01*
X96920799Y-84460996D01*
X96883323Y-84452756D01*
X96839640Y-84448165D01*
X96791917Y-84432659D01*
X96748225Y-84423052D01*
X96707230Y-84405142D01*
X96659512Y-84389637D01*
X96621473Y-84367675D01*
X96586310Y-84352313D01*
X96544337Y-84323141D01*
X96495489Y-84294939D01*
X96467504Y-84269741D01*
X96441215Y-84251470D01*
X96401257Y-84210092D01*
X96354739Y-84168207D01*
X96336296Y-84142823D01*
X96318473Y-84124366D01*
X96283821Y-84070597D01*
X96243414Y-84014981D01*
X96233212Y-83992066D01*
X96222754Y-83975839D01*
X96196789Y-83910261D01*
X96166379Y-83841958D01*
X96162476Y-83823596D01*
X96157707Y-83811551D01*
X96143740Y-83735448D01*
X96127001Y-83656699D01*
X96127001Y-83644246D01*
X96125811Y-83637762D01*
X96127001Y-83552535D01*
X96127001Y-83467301D01*
X96128275Y-83461308D01*
X96128278Y-83461077D01*
X96165015Y-83288246D01*
X96165105Y-83288036D01*
X96166379Y-83282042D01*
X96201042Y-83204188D01*
X96234622Y-83125839D01*
X96238348Y-83120397D01*
X96243414Y-83109019D01*
X96290746Y-83043872D01*
X96334452Y-82980041D01*
X96343706Y-82970979D01*
X96354739Y-82955793D01*
X96410297Y-82905769D01*
X96460693Y-82856417D01*
X96476848Y-82845846D01*
X96495489Y-82829061D01*
X96555026Y-82794687D01*
X96608551Y-82759662D01*
X96632340Y-82750050D01*
X96659512Y-82734363D01*
X96719045Y-82715019D01*
X96772376Y-82693472D01*
X96803820Y-82687474D01*
X96839640Y-82675835D01*
X96895744Y-82669938D01*
X96945945Y-82660362D01*
X96984312Y-82660630D01*
X97028000Y-82656038D01*
X97077902Y-82661283D01*
G37*
G36*
X120637256Y-81890764D02*
G01*
X120648728Y-81896289D01*
X120656786Y-81897795D01*
X120674043Y-81908480D01*
X120719138Y-81930197D01*
X120739238Y-81948847D01*
X120752464Y-81957036D01*
X120762764Y-81970676D01*
X120785765Y-81992017D01*
X120808117Y-82030732D01*
X120820281Y-82046840D01*
X120822250Y-82055212D01*
X120830006Y-82068646D01*
X120848919Y-82168603D01*
X120852383Y-82183331D01*
X120852383Y-82186910D01*
X120853694Y-82193839D01*
X120853694Y-83416516D01*
X120838736Y-83515756D01*
X120833211Y-83527228D01*
X120831705Y-83535286D01*
X120821020Y-83552543D01*
X120799303Y-83597638D01*
X120780653Y-83617738D01*
X120772464Y-83630964D01*
X120758824Y-83641264D01*
X120737483Y-83664265D01*
X120698768Y-83686617D01*
X120682660Y-83698781D01*
X120674288Y-83700750D01*
X120660854Y-83708506D01*
X120560897Y-83727419D01*
X120546169Y-83730883D01*
X120542590Y-83730883D01*
X120535661Y-83732194D01*
X119637984Y-83732194D01*
X119538744Y-83717236D01*
X119527272Y-83711711D01*
X119519214Y-83710205D01*
X119501957Y-83699520D01*
X119456862Y-83677803D01*
X119436762Y-83659153D01*
X119423536Y-83650964D01*
X119413236Y-83637324D01*
X119390235Y-83615983D01*
X119367883Y-83577268D01*
X119355719Y-83561160D01*
X119353750Y-83552788D01*
X119345994Y-83539354D01*
X119327081Y-83439397D01*
X119323617Y-83424669D01*
X119323617Y-83421090D01*
X119322306Y-83414161D01*
X119322306Y-82191484D01*
X119337264Y-82092244D01*
X119342789Y-82080772D01*
X119344295Y-82072714D01*
X119354980Y-82055457D01*
X119376697Y-82010362D01*
X119395347Y-81990262D01*
X119403536Y-81977036D01*
X119417176Y-81966736D01*
X119438517Y-81943735D01*
X119477232Y-81921383D01*
X119493340Y-81909219D01*
X119501712Y-81907250D01*
X119515146Y-81899494D01*
X119615103Y-81880581D01*
X119629831Y-81877117D01*
X119633410Y-81877117D01*
X119640339Y-81875806D01*
X120538016Y-81875806D01*
X120637256Y-81890764D01*
G37*
G36*
X123612256Y-81890764D02*
G01*
X123623728Y-81896289D01*
X123631786Y-81897795D01*
X123649043Y-81908480D01*
X123694138Y-81930197D01*
X123714238Y-81948847D01*
X123727464Y-81957036D01*
X123737764Y-81970676D01*
X123760765Y-81992017D01*
X123783117Y-82030732D01*
X123795281Y-82046840D01*
X123797250Y-82055212D01*
X123805006Y-82068646D01*
X123823919Y-82168603D01*
X123827383Y-82183331D01*
X123827383Y-82186910D01*
X123828694Y-82193839D01*
X123828694Y-83416516D01*
X123813736Y-83515756D01*
X123808211Y-83527228D01*
X123806705Y-83535286D01*
X123796020Y-83552543D01*
X123774303Y-83597638D01*
X123755653Y-83617738D01*
X123747464Y-83630964D01*
X123733824Y-83641264D01*
X123712483Y-83664265D01*
X123673768Y-83686617D01*
X123657660Y-83698781D01*
X123649288Y-83700750D01*
X123635854Y-83708506D01*
X123535897Y-83727419D01*
X123521169Y-83730883D01*
X123517590Y-83730883D01*
X123510661Y-83732194D01*
X122612984Y-83732194D01*
X122513744Y-83717236D01*
X122502272Y-83711711D01*
X122494214Y-83710205D01*
X122476957Y-83699520D01*
X122431862Y-83677803D01*
X122411762Y-83659153D01*
X122398536Y-83650964D01*
X122388236Y-83637324D01*
X122365235Y-83615983D01*
X122342883Y-83577268D01*
X122330719Y-83561160D01*
X122328750Y-83552788D01*
X122320994Y-83539354D01*
X122302081Y-83439397D01*
X122298617Y-83424669D01*
X122298617Y-83421090D01*
X122297306Y-83414161D01*
X122297306Y-82191484D01*
X122312264Y-82092244D01*
X122317789Y-82080772D01*
X122319295Y-82072714D01*
X122329980Y-82055457D01*
X122351697Y-82010362D01*
X122370347Y-81990262D01*
X122378536Y-81977036D01*
X122392176Y-81966736D01*
X122413517Y-81943735D01*
X122452232Y-81921383D01*
X122468340Y-81909219D01*
X122476712Y-81907250D01*
X122490146Y-81899494D01*
X122590103Y-81880581D01*
X122604831Y-81877117D01*
X122608410Y-81877117D01*
X122615339Y-81875806D01*
X123513016Y-81875806D01*
X123612256Y-81890764D01*
G37*
G36*
X97897899Y-80123959D02*
G01*
X97914769Y-80135231D01*
X97926041Y-80152101D01*
X97932448Y-80184312D01*
X97932448Y-81859688D01*
X97929999Y-81872000D01*
X97926041Y-81891899D01*
X97914769Y-81908769D01*
X97897899Y-81920041D01*
X97878000Y-81923999D01*
X97865688Y-81926448D01*
X96190312Y-81926448D01*
X96158101Y-81920041D01*
X96141231Y-81908769D01*
X96129959Y-81891899D01*
X96123552Y-81859688D01*
X96123552Y-80184312D01*
X96129959Y-80152101D01*
X96141231Y-80135231D01*
X96158101Y-80123959D01*
X96190312Y-80117552D01*
X97865688Y-80117552D01*
X97897899Y-80123959D01*
G37*
G36*
X120789756Y-79779764D02*
G01*
X120801227Y-79785288D01*
X120809287Y-79786795D01*
X120826547Y-79797482D01*
X120871638Y-79819197D01*
X120891738Y-79837847D01*
X120904964Y-79846036D01*
X120915265Y-79859676D01*
X120938264Y-79881016D01*
X120960614Y-79919727D01*
X120972781Y-79935839D01*
X120974751Y-79944213D01*
X120982506Y-79957646D01*
X121001419Y-80057601D01*
X121004883Y-80072330D01*
X121004883Y-80075909D01*
X121006194Y-80082838D01*
X121006194Y-80955517D01*
X120991236Y-81054756D01*
X120985712Y-81066227D01*
X120984205Y-81074287D01*
X120973518Y-81091547D01*
X120951803Y-81136638D01*
X120933153Y-81156738D01*
X120924964Y-81169964D01*
X120911324Y-81180265D01*
X120889984Y-81203264D01*
X120851273Y-81225614D01*
X120835161Y-81237781D01*
X120826787Y-81239751D01*
X120813354Y-81247506D01*
X120713399Y-81266419D01*
X120698670Y-81269883D01*
X120695091Y-81269883D01*
X120688162Y-81271194D01*
X120065483Y-81271194D01*
X119966244Y-81256236D01*
X119954773Y-81250712D01*
X119946713Y-81249205D01*
X119929453Y-81238518D01*
X119884362Y-81216803D01*
X119864262Y-81198153D01*
X119851036Y-81189964D01*
X119840735Y-81176324D01*
X119817736Y-81154984D01*
X119795386Y-81116273D01*
X119783219Y-81100161D01*
X119781249Y-81091787D01*
X119773494Y-81078354D01*
X119754581Y-80978399D01*
X119751117Y-80963670D01*
X119751117Y-80960091D01*
X119749806Y-80953162D01*
X119749806Y-80080483D01*
X119764764Y-79981244D01*
X119770288Y-79969773D01*
X119771795Y-79961713D01*
X119782482Y-79944453D01*
X119804197Y-79899362D01*
X119822847Y-79879262D01*
X119831036Y-79866036D01*
X119844676Y-79855735D01*
X119866016Y-79832736D01*
X119904727Y-79810386D01*
X119920839Y-79798219D01*
X119929213Y-79796249D01*
X119942646Y-79788494D01*
X120042601Y-79769581D01*
X120057330Y-79766117D01*
X120060909Y-79766117D01*
X120067838Y-79764806D01*
X120690517Y-79764806D01*
X120789756Y-79779764D01*
G37*
G36*
X122839756Y-79779764D02*
G01*
X122851227Y-79785288D01*
X122859287Y-79786795D01*
X122876547Y-79797482D01*
X122921638Y-79819197D01*
X122941738Y-79837847D01*
X122954964Y-79846036D01*
X122965265Y-79859676D01*
X122988264Y-79881016D01*
X123010614Y-79919727D01*
X123022781Y-79935839D01*
X123024751Y-79944213D01*
X123032506Y-79957646D01*
X123051419Y-80057601D01*
X123054883Y-80072330D01*
X123054883Y-80075909D01*
X123056194Y-80082838D01*
X123056194Y-80955517D01*
X123041236Y-81054756D01*
X123035712Y-81066227D01*
X123034205Y-81074287D01*
X123023518Y-81091547D01*
X123001803Y-81136638D01*
X122983153Y-81156738D01*
X122974964Y-81169964D01*
X122961324Y-81180265D01*
X122939984Y-81203264D01*
X122901273Y-81225614D01*
X122885161Y-81237781D01*
X122876787Y-81239751D01*
X122863354Y-81247506D01*
X122763399Y-81266419D01*
X122748670Y-81269883D01*
X122745091Y-81269883D01*
X122738162Y-81271194D01*
X122115483Y-81271194D01*
X122016244Y-81256236D01*
X122004773Y-81250712D01*
X121996713Y-81249205D01*
X121979453Y-81238518D01*
X121934362Y-81216803D01*
X121914262Y-81198153D01*
X121901036Y-81189964D01*
X121890735Y-81176324D01*
X121867736Y-81154984D01*
X121845386Y-81116273D01*
X121833219Y-81100161D01*
X121831249Y-81091787D01*
X121823494Y-81078354D01*
X121804581Y-80978399D01*
X121801117Y-80963670D01*
X121801117Y-80960091D01*
X121799806Y-80953162D01*
X121799806Y-80080483D01*
X121814764Y-79981244D01*
X121820288Y-79969773D01*
X121821795Y-79961713D01*
X121832482Y-79944453D01*
X121854197Y-79899362D01*
X121872847Y-79879262D01*
X121881036Y-79866036D01*
X121894676Y-79855735D01*
X121916016Y-79832736D01*
X121954727Y-79810386D01*
X121970839Y-79798219D01*
X121979213Y-79796249D01*
X121992646Y-79788494D01*
X122092601Y-79769581D01*
X122107330Y-79766117D01*
X122110909Y-79766117D01*
X122117838Y-79764806D01*
X122740517Y-79764806D01*
X122839756Y-79779764D01*
G37*
G36*
X89535542Y-75066711D02*
G01*
X89557506Y-75066730D01*
X89677500Y-75082634D01*
X89807510Y-75097217D01*
X89830187Y-75102871D01*
X89850022Y-75105500D01*
X89968493Y-75137355D01*
X90097660Y-75169560D01*
X90117540Y-75177431D01*
X90134975Y-75182119D01*
X90249663Y-75229742D01*
X90375694Y-75279641D01*
X90392639Y-75289111D01*
X90407490Y-75295278D01*
X90516170Y-75358151D01*
X90636726Y-75425527D01*
X90650679Y-75435965D01*
X90662910Y-75443041D01*
X90763502Y-75520368D01*
X90876171Y-75604655D01*
X90887205Y-75615460D01*
X90896852Y-75622876D01*
X90987208Y-75713390D01*
X91089822Y-75813877D01*
X91098114Y-75824491D01*
X91105318Y-75831707D01*
X91183475Y-75933748D01*
X91273925Y-76049519D01*
X91279740Y-76059430D01*
X91284746Y-76065966D01*
X91348964Y-76177419D01*
X91425246Y-76307438D01*
X91428933Y-76316209D01*
X91432060Y-76321636D01*
X91480838Y-76439687D01*
X91541126Y-76583106D01*
X91543099Y-76590367D01*
X91544747Y-76594356D01*
X91576943Y-76714935D01*
X91619529Y-76871678D01*
X91620262Y-76877171D01*
X91620867Y-76879437D01*
X91635739Y-76993165D01*
X91659078Y-77168084D01*
X91659005Y-77171084D01*
X91659128Y-77172027D01*
X91658870Y-77467106D01*
X91650165Y-77532783D01*
X91649087Y-77576903D01*
X91631921Y-77670433D01*
X91620100Y-77759622D01*
X91605772Y-77812911D01*
X91595106Y-77871023D01*
X91566348Y-77959529D01*
X91543481Y-78044575D01*
X91521569Y-78097344D01*
X91502699Y-78155420D01*
X91463358Y-78237531D01*
X91430322Y-78317090D01*
X91400740Y-78368224D01*
X91373491Y-78425098D01*
X91324737Y-78499603D01*
X91282559Y-78572510D01*
X91245369Y-78620889D01*
X91209752Y-78675318D01*
X91152885Y-78741199D01*
X91102724Y-78806452D01*
X91058165Y-78850933D01*
X91014358Y-78901684D01*
X90950772Y-78958138D01*
X90893893Y-79014918D01*
X90842378Y-79054375D01*
X90790742Y-79100220D01*
X90721896Y-79146657D01*
X90659634Y-79194346D01*
X90601733Y-79227708D01*
X90542832Y-79267437D01*
X90470249Y-79303468D01*
X90403964Y-79341660D01*
X90340405Y-79367923D01*
X90274985Y-79400397D01*
X90200182Y-79425862D01*
X90131244Y-79454347D01*
X90062914Y-79472592D01*
X89991906Y-79496765D01*
X89916359Y-79511724D01*
X89846163Y-79530467D01*
X89774125Y-79539887D01*
X89698568Y-79554848D01*
X89623693Y-79559559D01*
X89553573Y-79568728D01*
X89478983Y-79568663D01*
X89400125Y-79573624D01*
X89327278Y-79568530D01*
X89258494Y-79568470D01*
X89182639Y-79558416D01*
X89101821Y-79552765D01*
X89032244Y-79538483D01*
X88965978Y-79529700D01*
X88890214Y-79509328D01*
X88808895Y-79492636D01*
X88743708Y-79469935D01*
X88681025Y-79453081D01*
X88606786Y-79422254D01*
X88526496Y-79394294D01*
X88466653Y-79364065D01*
X88408510Y-79339922D01*
X88337276Y-79298712D01*
X88259583Y-79259467D01*
X88205907Y-79222714D01*
X88153090Y-79192159D01*
X88086312Y-79140825D01*
X88012847Y-79090523D01*
X87965985Y-79048329D01*
X87919148Y-79012324D01*
X87858290Y-78951360D01*
X87790622Y-78890431D01*
X87751037Y-78843918D01*
X87710682Y-78803493D01*
X87657146Y-78733597D01*
X87596813Y-78662706D01*
X87564799Y-78613031D01*
X87531254Y-78569234D01*
X87486346Y-78491295D01*
X87434825Y-78411349D01*
X87410511Y-78359679D01*
X87383940Y-78313564D01*
X87348857Y-78228658D01*
X87307503Y-78140776D01*
X87290840Y-78088246D01*
X87271253Y-78040844D01*
X87247059Y-77950232D01*
X87217084Y-77855741D01*
X87207859Y-77803426D01*
X87195133Y-77755763D01*
X87182727Y-77660888D01*
X87165158Y-77561251D01*
X87163017Y-77510162D01*
X87156872Y-77463173D01*
X87156957Y-77365601D01*
X87152635Y-77262480D01*
X87157090Y-77213526D01*
X87157130Y-77168094D01*
X87170199Y-77069488D01*
X87179738Y-76964678D01*
X87190186Y-76918692D01*
X87195900Y-76875578D01*
X87222220Y-76777690D01*
X87245988Y-76673076D01*
X87261733Y-76630738D01*
X87272519Y-76590625D01*
X87312105Y-76495293D01*
X87350222Y-76392798D01*
X87370503Y-76354655D01*
X87385678Y-76318110D01*
X87438297Y-76227154D01*
X87490610Y-76128768D01*
X87514597Y-76095263D01*
X87533441Y-76062690D01*
X87598627Y-75977892D01*
X87664684Y-75885624D01*
X87691534Y-75857032D01*
X87713276Y-75828748D01*
X87790264Y-75751894D01*
X87869386Y-75667638D01*
X87898251Y-75644097D01*
X87922107Y-75620282D01*
X88009900Y-75553038D01*
X88101120Y-75478641D01*
X88131160Y-75460160D01*
X88156366Y-75440854D01*
X88253744Y-75384746D01*
X88355814Y-75321952D01*
X88386224Y-75308412D01*
X88412036Y-75293540D01*
X88517559Y-75249938D01*
X88628994Y-75200324D01*
X88659021Y-75191487D01*
X88684756Y-75180853D01*
X88796815Y-75150932D01*
X88915861Y-75115895D01*
X88944829Y-75111411D01*
X88969837Y-75104733D01*
X89086547Y-75089471D01*
X89211373Y-75070147D01*
X89238702Y-75069575D01*
X89262427Y-75066472D01*
X89381818Y-75066576D01*
X89510341Y-75063884D01*
X89535542Y-75066711D01*
G37*
G36*
X112360055Y-75968646D02*
G01*
X112398862Y-75970680D01*
X112445116Y-75982728D01*
X112498199Y-75991516D01*
X112534324Y-76005965D01*
X112566166Y-76014259D01*
X112614396Y-76037991D01*
X112669875Y-76060181D01*
X112697118Y-76078696D01*
X112721287Y-76090588D01*
X112768462Y-76127181D01*
X112822802Y-76164110D01*
X112841330Y-76183703D01*
X112857894Y-76196551D01*
X112900614Y-76246393D01*
X112949844Y-76298452D01*
X112960654Y-76316443D01*
X112970401Y-76327815D01*
X113005098Y-76390411D01*
X113045074Y-76456941D01*
X113049860Y-76471162D01*
X113054220Y-76479028D01*
X113077404Y-76553009D01*
X113104049Y-76632183D01*
X113105022Y-76641137D01*
X113105919Y-76644000D01*
X113114354Y-76727046D01*
X113119000Y-76769809D01*
X113119000Y-77646311D01*
X113101292Y-77753278D01*
X113082032Y-77877689D01*
X113079868Y-77882690D01*
X113078349Y-77891865D01*
X113044291Y-77964903D01*
X113014687Y-78033312D01*
X113007813Y-78043129D01*
X113000207Y-78059440D01*
X112954879Y-78118726D01*
X112915526Y-78174929D01*
X112902470Y-78187276D01*
X112887904Y-78206327D01*
X112835446Y-78250657D01*
X112789914Y-78293715D01*
X112769561Y-78306335D01*
X112746679Y-78325671D01*
X112691184Y-78354930D01*
X112642978Y-78384819D01*
X112614901Y-78395150D01*
X112583121Y-78411905D01*
X112528381Y-78426983D01*
X112480728Y-78444516D01*
X112445247Y-78449882D01*
X112404861Y-78461006D01*
X112354098Y-78463666D01*
X112309785Y-78470368D01*
X112268006Y-78468178D01*
X112220217Y-78470683D01*
X112175945Y-78463354D01*
X112137138Y-78461320D01*
X112090884Y-78449272D01*
X112037801Y-78440484D01*
X112001676Y-78426035D01*
X111969834Y-78417741D01*
X111921605Y-78394009D01*
X111866125Y-78371819D01*
X111838880Y-78353303D01*
X111814716Y-78341413D01*
X111767547Y-78304825D01*
X111713199Y-78267890D01*
X111694669Y-78248296D01*
X111678105Y-78235447D01*
X111635385Y-78185605D01*
X111586157Y-78133548D01*
X111575347Y-78115557D01*
X111565600Y-78104185D01*
X111530903Y-78041589D01*
X111490927Y-77975059D01*
X111486141Y-77960838D01*
X111481781Y-77952972D01*
X111458597Y-77878991D01*
X111431952Y-77799817D01*
X111430979Y-77790863D01*
X111430082Y-77788000D01*
X111421649Y-77704979D01*
X111417000Y-77662191D01*
X111417000Y-76785690D01*
X111434707Y-76678731D01*
X111453968Y-76554312D01*
X111456132Y-76549311D01*
X111457651Y-76540136D01*
X111491707Y-76467103D01*
X111521311Y-76398693D01*
X111528186Y-76388875D01*
X111535793Y-76372561D01*
X111581129Y-76313263D01*
X111620477Y-76257068D01*
X111633531Y-76244723D01*
X111648096Y-76225673D01*
X111700554Y-76181343D01*
X111746086Y-76138285D01*
X111766439Y-76125665D01*
X111789321Y-76106329D01*
X111844816Y-76077070D01*
X111893022Y-76047181D01*
X111921099Y-76036850D01*
X111952879Y-76020095D01*
X112007619Y-76005017D01*
X112055272Y-75987484D01*
X112090753Y-75982118D01*
X112131139Y-75970994D01*
X112181902Y-75968334D01*
X112226215Y-75961632D01*
X112267994Y-75963822D01*
X112315783Y-75961317D01*
X112360055Y-75968646D01*
G37*
G36*
X109820055Y-75968646D02*
G01*
X109858862Y-75970680D01*
X109905116Y-75982728D01*
X109958199Y-75991516D01*
X109994324Y-76005965D01*
X110026166Y-76014259D01*
X110074396Y-76037991D01*
X110129875Y-76060181D01*
X110157118Y-76078696D01*
X110181287Y-76090588D01*
X110228462Y-76127181D01*
X110282802Y-76164110D01*
X110301330Y-76183703D01*
X110317894Y-76196551D01*
X110360614Y-76246393D01*
X110409844Y-76298452D01*
X110420654Y-76316443D01*
X110430401Y-76327815D01*
X110465098Y-76390411D01*
X110505074Y-76456941D01*
X110509860Y-76471162D01*
X110514220Y-76479028D01*
X110537404Y-76553009D01*
X110564049Y-76632183D01*
X110565022Y-76641137D01*
X110565919Y-76644000D01*
X110574354Y-76727046D01*
X110579000Y-76769809D01*
X110579000Y-77646311D01*
X110561292Y-77753278D01*
X110542032Y-77877689D01*
X110539868Y-77882690D01*
X110538349Y-77891865D01*
X110504291Y-77964903D01*
X110474687Y-78033312D01*
X110467813Y-78043129D01*
X110460207Y-78059440D01*
X110414879Y-78118726D01*
X110375526Y-78174929D01*
X110362470Y-78187276D01*
X110347904Y-78206327D01*
X110295446Y-78250657D01*
X110249914Y-78293715D01*
X110229561Y-78306335D01*
X110206679Y-78325671D01*
X110151184Y-78354930D01*
X110102978Y-78384819D01*
X110074901Y-78395150D01*
X110043121Y-78411905D01*
X109988381Y-78426983D01*
X109940728Y-78444516D01*
X109905247Y-78449882D01*
X109864861Y-78461006D01*
X109814098Y-78463666D01*
X109769785Y-78470368D01*
X109728006Y-78468178D01*
X109680217Y-78470683D01*
X109635945Y-78463354D01*
X109597138Y-78461320D01*
X109550884Y-78449272D01*
X109497801Y-78440484D01*
X109461676Y-78426035D01*
X109429834Y-78417741D01*
X109381605Y-78394009D01*
X109326125Y-78371819D01*
X109298880Y-78353303D01*
X109274716Y-78341413D01*
X109227547Y-78304825D01*
X109173199Y-78267890D01*
X109154669Y-78248296D01*
X109138105Y-78235447D01*
X109095385Y-78185605D01*
X109046157Y-78133548D01*
X109035347Y-78115557D01*
X109025600Y-78104185D01*
X108990903Y-78041589D01*
X108950927Y-77975059D01*
X108946141Y-77960838D01*
X108941781Y-77952972D01*
X108918597Y-77878991D01*
X108891952Y-77799817D01*
X108890979Y-77790863D01*
X108890082Y-77788000D01*
X108881649Y-77704979D01*
X108877000Y-77662191D01*
X108877000Y-76785690D01*
X108894707Y-76678731D01*
X108913968Y-76554312D01*
X108916132Y-76549311D01*
X108917651Y-76540136D01*
X108951707Y-76467103D01*
X108981311Y-76398693D01*
X108988186Y-76388875D01*
X108995793Y-76372561D01*
X109041129Y-76313263D01*
X109080477Y-76257068D01*
X109093531Y-76244723D01*
X109108096Y-76225673D01*
X109160554Y-76181343D01*
X109206086Y-76138285D01*
X109226439Y-76125665D01*
X109249321Y-76106329D01*
X109304816Y-76077070D01*
X109353022Y-76047181D01*
X109381099Y-76036850D01*
X109412879Y-76020095D01*
X109467619Y-76005017D01*
X109515272Y-75987484D01*
X109550753Y-75982118D01*
X109591139Y-75970994D01*
X109641902Y-75968334D01*
X109686215Y-75961632D01*
X109727994Y-75963822D01*
X109775783Y-75961317D01*
X109820055Y-75968646D01*
G37*
G36*
X107280055Y-75968646D02*
G01*
X107318862Y-75970680D01*
X107365116Y-75982728D01*
X107418199Y-75991516D01*
X107454324Y-76005965D01*
X107486166Y-76014259D01*
X107534396Y-76037991D01*
X107589875Y-76060181D01*
X107617118Y-76078696D01*
X107641287Y-76090588D01*
X107688462Y-76127181D01*
X107742802Y-76164110D01*
X107761330Y-76183703D01*
X107777894Y-76196551D01*
X107820614Y-76246393D01*
X107869844Y-76298452D01*
X107880654Y-76316443D01*
X107890401Y-76327815D01*
X107925098Y-76390411D01*
X107965074Y-76456941D01*
X107969860Y-76471162D01*
X107974220Y-76479028D01*
X107997404Y-76553009D01*
X108024049Y-76632183D01*
X108025022Y-76641137D01*
X108025919Y-76644000D01*
X108034354Y-76727046D01*
X108039000Y-76769809D01*
X108039000Y-77646311D01*
X108021292Y-77753278D01*
X108002032Y-77877689D01*
X107999868Y-77882690D01*
X107998349Y-77891865D01*
X107964291Y-77964903D01*
X107934687Y-78033312D01*
X107927813Y-78043129D01*
X107920207Y-78059440D01*
X107874879Y-78118726D01*
X107835526Y-78174929D01*
X107822470Y-78187276D01*
X107807904Y-78206327D01*
X107755446Y-78250657D01*
X107709914Y-78293715D01*
X107689561Y-78306335D01*
X107666679Y-78325671D01*
X107611184Y-78354930D01*
X107562978Y-78384819D01*
X107534901Y-78395150D01*
X107503121Y-78411905D01*
X107448381Y-78426983D01*
X107400728Y-78444516D01*
X107365247Y-78449882D01*
X107324861Y-78461006D01*
X107274098Y-78463666D01*
X107229785Y-78470368D01*
X107188006Y-78468178D01*
X107140217Y-78470683D01*
X107095945Y-78463354D01*
X107057138Y-78461320D01*
X107010884Y-78449272D01*
X106957801Y-78440484D01*
X106921676Y-78426035D01*
X106889834Y-78417741D01*
X106841605Y-78394009D01*
X106786125Y-78371819D01*
X106758880Y-78353303D01*
X106734716Y-78341413D01*
X106687547Y-78304825D01*
X106633199Y-78267890D01*
X106614669Y-78248296D01*
X106598105Y-78235447D01*
X106555385Y-78185605D01*
X106506157Y-78133548D01*
X106495347Y-78115557D01*
X106485600Y-78104185D01*
X106450903Y-78041589D01*
X106410927Y-77975059D01*
X106406141Y-77960838D01*
X106401781Y-77952972D01*
X106378597Y-77878991D01*
X106351952Y-77799817D01*
X106350979Y-77790863D01*
X106350082Y-77788000D01*
X106341649Y-77704979D01*
X106337000Y-77662191D01*
X106337000Y-76785690D01*
X106354707Y-76678731D01*
X106373968Y-76554312D01*
X106376132Y-76549311D01*
X106377651Y-76540136D01*
X106411707Y-76467103D01*
X106441311Y-76398693D01*
X106448186Y-76388875D01*
X106455793Y-76372561D01*
X106501129Y-76313263D01*
X106540477Y-76257068D01*
X106553531Y-76244723D01*
X106568096Y-76225673D01*
X106620554Y-76181343D01*
X106666086Y-76138285D01*
X106686439Y-76125665D01*
X106709321Y-76106329D01*
X106764816Y-76077070D01*
X106813022Y-76047181D01*
X106841099Y-76036850D01*
X106872879Y-76020095D01*
X106927619Y-76005017D01*
X106975272Y-75987484D01*
X107010753Y-75982118D01*
X107051139Y-75970994D01*
X107101902Y-75968334D01*
X107146215Y-75961632D01*
X107187994Y-75963822D01*
X107235783Y-75961317D01*
X107280055Y-75968646D01*
G37*
G36*
X104740055Y-75968646D02*
G01*
X104778862Y-75970680D01*
X104825116Y-75982728D01*
X104878199Y-75991516D01*
X104914324Y-76005965D01*
X104946166Y-76014259D01*
X104994396Y-76037991D01*
X105049875Y-76060181D01*
X105077118Y-76078696D01*
X105101287Y-76090588D01*
X105148462Y-76127181D01*
X105202802Y-76164110D01*
X105221330Y-76183703D01*
X105237894Y-76196551D01*
X105280614Y-76246393D01*
X105329844Y-76298452D01*
X105340654Y-76316443D01*
X105350401Y-76327815D01*
X105385098Y-76390411D01*
X105425074Y-76456941D01*
X105429860Y-76471162D01*
X105434220Y-76479028D01*
X105457404Y-76553009D01*
X105484049Y-76632183D01*
X105485022Y-76641137D01*
X105485919Y-76644000D01*
X105494354Y-76727046D01*
X105499000Y-76769809D01*
X105499000Y-77646311D01*
X105481292Y-77753278D01*
X105462032Y-77877689D01*
X105459868Y-77882690D01*
X105458349Y-77891865D01*
X105424291Y-77964903D01*
X105394687Y-78033312D01*
X105387813Y-78043129D01*
X105380207Y-78059440D01*
X105334879Y-78118726D01*
X105295526Y-78174929D01*
X105282470Y-78187276D01*
X105267904Y-78206327D01*
X105215446Y-78250657D01*
X105169914Y-78293715D01*
X105149561Y-78306335D01*
X105126679Y-78325671D01*
X105071184Y-78354930D01*
X105022978Y-78384819D01*
X104994901Y-78395150D01*
X104963121Y-78411905D01*
X104908381Y-78426983D01*
X104860728Y-78444516D01*
X104825247Y-78449882D01*
X104784861Y-78461006D01*
X104734098Y-78463666D01*
X104689785Y-78470368D01*
X104648006Y-78468178D01*
X104600217Y-78470683D01*
X104555945Y-78463354D01*
X104517138Y-78461320D01*
X104470884Y-78449272D01*
X104417801Y-78440484D01*
X104381676Y-78426035D01*
X104349834Y-78417741D01*
X104301605Y-78394009D01*
X104246125Y-78371819D01*
X104218880Y-78353303D01*
X104194716Y-78341413D01*
X104147547Y-78304825D01*
X104093199Y-78267890D01*
X104074669Y-78248296D01*
X104058105Y-78235447D01*
X104015385Y-78185605D01*
X103966157Y-78133548D01*
X103955347Y-78115557D01*
X103945600Y-78104185D01*
X103910903Y-78041589D01*
X103870927Y-77975059D01*
X103866141Y-77960838D01*
X103861781Y-77952972D01*
X103838597Y-77878991D01*
X103811952Y-77799817D01*
X103810979Y-77790863D01*
X103810082Y-77788000D01*
X103801649Y-77704979D01*
X103797000Y-77662191D01*
X103797000Y-76785690D01*
X103814707Y-76678731D01*
X103833968Y-76554312D01*
X103836132Y-76549311D01*
X103837651Y-76540136D01*
X103871707Y-76467103D01*
X103901311Y-76398693D01*
X103908186Y-76388875D01*
X103915793Y-76372561D01*
X103961129Y-76313263D01*
X104000477Y-76257068D01*
X104013531Y-76244723D01*
X104028096Y-76225673D01*
X104080554Y-76181343D01*
X104126086Y-76138285D01*
X104146439Y-76125665D01*
X104169321Y-76106329D01*
X104224816Y-76077070D01*
X104273022Y-76047181D01*
X104301099Y-76036850D01*
X104332879Y-76020095D01*
X104387619Y-76005017D01*
X104435272Y-75987484D01*
X104470753Y-75982118D01*
X104511139Y-75970994D01*
X104561902Y-75968334D01*
X104606215Y-75961632D01*
X104647994Y-75963822D01*
X104695783Y-75961317D01*
X104740055Y-75968646D01*
G37*
G36*
X102200055Y-75968646D02*
G01*
X102238862Y-75970680D01*
X102285116Y-75982728D01*
X102338199Y-75991516D01*
X102374324Y-76005965D01*
X102406166Y-76014259D01*
X102454396Y-76037991D01*
X102509875Y-76060181D01*
X102537118Y-76078696D01*
X102561287Y-76090588D01*
X102608462Y-76127181D01*
X102662802Y-76164110D01*
X102681330Y-76183703D01*
X102697894Y-76196551D01*
X102740614Y-76246393D01*
X102789844Y-76298452D01*
X102800654Y-76316443D01*
X102810401Y-76327815D01*
X102845098Y-76390411D01*
X102885074Y-76456941D01*
X102889860Y-76471162D01*
X102894220Y-76479028D01*
X102917404Y-76553009D01*
X102944049Y-76632183D01*
X102945022Y-76641137D01*
X102945919Y-76644000D01*
X102954354Y-76727046D01*
X102959000Y-76769809D01*
X102959000Y-77646311D01*
X102941292Y-77753278D01*
X102922032Y-77877689D01*
X102919868Y-77882690D01*
X102918349Y-77891865D01*
X102884291Y-77964903D01*
X102854687Y-78033312D01*
X102847813Y-78043129D01*
X102840207Y-78059440D01*
X102794879Y-78118726D01*
X102755526Y-78174929D01*
X102742470Y-78187276D01*
X102727904Y-78206327D01*
X102675446Y-78250657D01*
X102629914Y-78293715D01*
X102609561Y-78306335D01*
X102586679Y-78325671D01*
X102531184Y-78354930D01*
X102482978Y-78384819D01*
X102454901Y-78395150D01*
X102423121Y-78411905D01*
X102368381Y-78426983D01*
X102320728Y-78444516D01*
X102285247Y-78449882D01*
X102244861Y-78461006D01*
X102194098Y-78463666D01*
X102149785Y-78470368D01*
X102108006Y-78468178D01*
X102060217Y-78470683D01*
X102015945Y-78463354D01*
X101977138Y-78461320D01*
X101930884Y-78449272D01*
X101877801Y-78440484D01*
X101841676Y-78426035D01*
X101809834Y-78417741D01*
X101761605Y-78394009D01*
X101706125Y-78371819D01*
X101678880Y-78353303D01*
X101654716Y-78341413D01*
X101607547Y-78304825D01*
X101553199Y-78267890D01*
X101534669Y-78248296D01*
X101518105Y-78235447D01*
X101475385Y-78185605D01*
X101426157Y-78133548D01*
X101415347Y-78115557D01*
X101405600Y-78104185D01*
X101370903Y-78041589D01*
X101330927Y-77975059D01*
X101326141Y-77960838D01*
X101321781Y-77952972D01*
X101298597Y-77878991D01*
X101271952Y-77799817D01*
X101270979Y-77790863D01*
X101270082Y-77788000D01*
X101261649Y-77704979D01*
X101257000Y-77662191D01*
X101257000Y-76785690D01*
X101274707Y-76678731D01*
X101293968Y-76554312D01*
X101296132Y-76549311D01*
X101297651Y-76540136D01*
X101331707Y-76467103D01*
X101361311Y-76398693D01*
X101368186Y-76388875D01*
X101375793Y-76372561D01*
X101421129Y-76313263D01*
X101460477Y-76257068D01*
X101473531Y-76244723D01*
X101488096Y-76225673D01*
X101540554Y-76181343D01*
X101586086Y-76138285D01*
X101606439Y-76125665D01*
X101629321Y-76106329D01*
X101684816Y-76077070D01*
X101733022Y-76047181D01*
X101761099Y-76036850D01*
X101792879Y-76020095D01*
X101847619Y-76005017D01*
X101895272Y-75987484D01*
X101930753Y-75982118D01*
X101971139Y-75970994D01*
X102021902Y-75968334D01*
X102066215Y-75961632D01*
X102107994Y-75963822D01*
X102155783Y-75961317D01*
X102200055Y-75968646D01*
G37*
G36*
X114900055Y-75968646D02*
G01*
X114938862Y-75970680D01*
X114985116Y-75982728D01*
X115038199Y-75991516D01*
X115074324Y-76005965D01*
X115106166Y-76014259D01*
X115154396Y-76037991D01*
X115209875Y-76060181D01*
X115237118Y-76078696D01*
X115261287Y-76090588D01*
X115308462Y-76127181D01*
X115362802Y-76164110D01*
X115381330Y-76183703D01*
X115397894Y-76196551D01*
X115440614Y-76246393D01*
X115489844Y-76298452D01*
X115500654Y-76316443D01*
X115510401Y-76327815D01*
X115545098Y-76390411D01*
X115585074Y-76456941D01*
X115589860Y-76471162D01*
X115594220Y-76479028D01*
X115617404Y-76553009D01*
X115644049Y-76632183D01*
X115645022Y-76641137D01*
X115645919Y-76644000D01*
X115654354Y-76727046D01*
X115659000Y-76769809D01*
X115659000Y-77646311D01*
X115641292Y-77753278D01*
X115622032Y-77877689D01*
X115619868Y-77882690D01*
X115618349Y-77891865D01*
X115584291Y-77964903D01*
X115554687Y-78033312D01*
X115547813Y-78043129D01*
X115540207Y-78059440D01*
X115494879Y-78118726D01*
X115455526Y-78174929D01*
X115442470Y-78187276D01*
X115427904Y-78206327D01*
X115375446Y-78250657D01*
X115329914Y-78293715D01*
X115309561Y-78306335D01*
X115286679Y-78325671D01*
X115231184Y-78354930D01*
X115182978Y-78384819D01*
X115154901Y-78395150D01*
X115123121Y-78411905D01*
X115068381Y-78426983D01*
X115020728Y-78444516D01*
X114985247Y-78449882D01*
X114944861Y-78461006D01*
X114894098Y-78463666D01*
X114849785Y-78470368D01*
X114808006Y-78468178D01*
X114760217Y-78470683D01*
X114715945Y-78463354D01*
X114677138Y-78461320D01*
X114630884Y-78449272D01*
X114577801Y-78440484D01*
X114541676Y-78426035D01*
X114509834Y-78417741D01*
X114461605Y-78394009D01*
X114406125Y-78371819D01*
X114378880Y-78353303D01*
X114354716Y-78341413D01*
X114307547Y-78304825D01*
X114253199Y-78267890D01*
X114234669Y-78248296D01*
X114218105Y-78235447D01*
X114175385Y-78185605D01*
X114126157Y-78133548D01*
X114115347Y-78115557D01*
X114105600Y-78104185D01*
X114070903Y-78041589D01*
X114030927Y-77975059D01*
X114026141Y-77960838D01*
X114021781Y-77952972D01*
X113998597Y-77878991D01*
X113971952Y-77799817D01*
X113970979Y-77790863D01*
X113970082Y-77788000D01*
X113961649Y-77704979D01*
X113957000Y-77662191D01*
X113957000Y-76785690D01*
X113974707Y-76678731D01*
X113993968Y-76554312D01*
X113996132Y-76549311D01*
X113997651Y-76540136D01*
X114031707Y-76467103D01*
X114061311Y-76398693D01*
X114068186Y-76388875D01*
X114075793Y-76372561D01*
X114121129Y-76313263D01*
X114160477Y-76257068D01*
X114173531Y-76244723D01*
X114188096Y-76225673D01*
X114240554Y-76181343D01*
X114286086Y-76138285D01*
X114306439Y-76125665D01*
X114329321Y-76106329D01*
X114384816Y-76077070D01*
X114433022Y-76047181D01*
X114461099Y-76036850D01*
X114492879Y-76020095D01*
X114547619Y-76005017D01*
X114595272Y-75987484D01*
X114630753Y-75982118D01*
X114671139Y-75970994D01*
X114721902Y-75968334D01*
X114766215Y-75961632D01*
X114807994Y-75963822D01*
X114855783Y-75961317D01*
X114900055Y-75968646D01*
G37*
G36*
X99660055Y-75968646D02*
G01*
X99698862Y-75970680D01*
X99745116Y-75982728D01*
X99798199Y-75991516D01*
X99834324Y-76005965D01*
X99866166Y-76014259D01*
X99914396Y-76037991D01*
X99969875Y-76060181D01*
X99997118Y-76078696D01*
X100021287Y-76090588D01*
X100068462Y-76127181D01*
X100122802Y-76164110D01*
X100141330Y-76183703D01*
X100157894Y-76196551D01*
X100200614Y-76246393D01*
X100249844Y-76298452D01*
X100260654Y-76316443D01*
X100270401Y-76327815D01*
X100305098Y-76390411D01*
X100345074Y-76456941D01*
X100349860Y-76471162D01*
X100354220Y-76479028D01*
X100377404Y-76553009D01*
X100404049Y-76632183D01*
X100405022Y-76641137D01*
X100405919Y-76644000D01*
X100414354Y-76727046D01*
X100419000Y-76769809D01*
X100419000Y-77646311D01*
X100401292Y-77753278D01*
X100382032Y-77877689D01*
X100379868Y-77882690D01*
X100378349Y-77891865D01*
X100344291Y-77964903D01*
X100314687Y-78033312D01*
X100307813Y-78043129D01*
X100300207Y-78059440D01*
X100254879Y-78118726D01*
X100215526Y-78174929D01*
X100202470Y-78187276D01*
X100187904Y-78206327D01*
X100135446Y-78250657D01*
X100089914Y-78293715D01*
X100069561Y-78306335D01*
X100046679Y-78325671D01*
X99991184Y-78354930D01*
X99942978Y-78384819D01*
X99914901Y-78395150D01*
X99883121Y-78411905D01*
X99828381Y-78426983D01*
X99780728Y-78444516D01*
X99745247Y-78449882D01*
X99704861Y-78461006D01*
X99654098Y-78463666D01*
X99609785Y-78470368D01*
X99568006Y-78468178D01*
X99520217Y-78470683D01*
X99475945Y-78463354D01*
X99437138Y-78461320D01*
X99390884Y-78449272D01*
X99337801Y-78440484D01*
X99301676Y-78426035D01*
X99269834Y-78417741D01*
X99221605Y-78394009D01*
X99166125Y-78371819D01*
X99138880Y-78353303D01*
X99114716Y-78341413D01*
X99067547Y-78304825D01*
X99013199Y-78267890D01*
X98994669Y-78248296D01*
X98978105Y-78235447D01*
X98935385Y-78185605D01*
X98886157Y-78133548D01*
X98875347Y-78115557D01*
X98865600Y-78104185D01*
X98830903Y-78041589D01*
X98790927Y-77975059D01*
X98786141Y-77960838D01*
X98781781Y-77952972D01*
X98758597Y-77878991D01*
X98731952Y-77799817D01*
X98730979Y-77790863D01*
X98730082Y-77788000D01*
X98721649Y-77704979D01*
X98717000Y-77662191D01*
X98717000Y-76785690D01*
X98734707Y-76678731D01*
X98753968Y-76554312D01*
X98756132Y-76549311D01*
X98757651Y-76540136D01*
X98791707Y-76467103D01*
X98821311Y-76398693D01*
X98828186Y-76388875D01*
X98835793Y-76372561D01*
X98881129Y-76313263D01*
X98920477Y-76257068D01*
X98933531Y-76244723D01*
X98948096Y-76225673D01*
X99000554Y-76181343D01*
X99046086Y-76138285D01*
X99066439Y-76125665D01*
X99089321Y-76106329D01*
X99144816Y-76077070D01*
X99193022Y-76047181D01*
X99221099Y-76036850D01*
X99252879Y-76020095D01*
X99307619Y-76005017D01*
X99355272Y-75987484D01*
X99390753Y-75982118D01*
X99431139Y-75970994D01*
X99481902Y-75968334D01*
X99526215Y-75961632D01*
X99567994Y-75963822D01*
X99615783Y-75961317D01*
X99660055Y-75968646D01*
G37*
G36*
X97120055Y-75968646D02*
G01*
X97158862Y-75970680D01*
X97205116Y-75982728D01*
X97258199Y-75991516D01*
X97294324Y-76005965D01*
X97326166Y-76014259D01*
X97374396Y-76037991D01*
X97429875Y-76060181D01*
X97457118Y-76078696D01*
X97481287Y-76090588D01*
X97528462Y-76127181D01*
X97582802Y-76164110D01*
X97601330Y-76183703D01*
X97617894Y-76196551D01*
X97660614Y-76246393D01*
X97709844Y-76298452D01*
X97720654Y-76316443D01*
X97730401Y-76327815D01*
X97765098Y-76390411D01*
X97805074Y-76456941D01*
X97809860Y-76471162D01*
X97814220Y-76479028D01*
X97837404Y-76553009D01*
X97864049Y-76632183D01*
X97865022Y-76641137D01*
X97865919Y-76644000D01*
X97874354Y-76727046D01*
X97879000Y-76769809D01*
X97879000Y-77646311D01*
X97861292Y-77753278D01*
X97842032Y-77877689D01*
X97839868Y-77882690D01*
X97838349Y-77891865D01*
X97804291Y-77964903D01*
X97774687Y-78033312D01*
X97767813Y-78043129D01*
X97760207Y-78059440D01*
X97714879Y-78118726D01*
X97675526Y-78174929D01*
X97662470Y-78187276D01*
X97647904Y-78206327D01*
X97595446Y-78250657D01*
X97549914Y-78293715D01*
X97529561Y-78306335D01*
X97506679Y-78325671D01*
X97451184Y-78354930D01*
X97402978Y-78384819D01*
X97374901Y-78395150D01*
X97343121Y-78411905D01*
X97288381Y-78426983D01*
X97240728Y-78444516D01*
X97205247Y-78449882D01*
X97164861Y-78461006D01*
X97114098Y-78463666D01*
X97069785Y-78470368D01*
X97028006Y-78468178D01*
X96980217Y-78470683D01*
X96935945Y-78463354D01*
X96897138Y-78461320D01*
X96850884Y-78449272D01*
X96797801Y-78440484D01*
X96761676Y-78426035D01*
X96729834Y-78417741D01*
X96681605Y-78394009D01*
X96626125Y-78371819D01*
X96598880Y-78353303D01*
X96574716Y-78341413D01*
X96527547Y-78304825D01*
X96473199Y-78267890D01*
X96454669Y-78248296D01*
X96438105Y-78235447D01*
X96395385Y-78185605D01*
X96346157Y-78133548D01*
X96335347Y-78115557D01*
X96325600Y-78104185D01*
X96290903Y-78041589D01*
X96250927Y-77975059D01*
X96246141Y-77960838D01*
X96241781Y-77952972D01*
X96218597Y-77878991D01*
X96191952Y-77799817D01*
X96190979Y-77790863D01*
X96190082Y-77788000D01*
X96181649Y-77704979D01*
X96177000Y-77662191D01*
X96177000Y-76785690D01*
X96194707Y-76678731D01*
X96213968Y-76554312D01*
X96216132Y-76549311D01*
X96217651Y-76540136D01*
X96251707Y-76467103D01*
X96281311Y-76398693D01*
X96288186Y-76388875D01*
X96295793Y-76372561D01*
X96341129Y-76313263D01*
X96380477Y-76257068D01*
X96393531Y-76244723D01*
X96408096Y-76225673D01*
X96460554Y-76181343D01*
X96506086Y-76138285D01*
X96526439Y-76125665D01*
X96549321Y-76106329D01*
X96604816Y-76077070D01*
X96653022Y-76047181D01*
X96681099Y-76036850D01*
X96712879Y-76020095D01*
X96767619Y-76005017D01*
X96815272Y-75987484D01*
X96850753Y-75982118D01*
X96891139Y-75970994D01*
X96941902Y-75968334D01*
X96986215Y-75961632D01*
X97027994Y-75963822D01*
X97075783Y-75961317D01*
X97120055Y-75968646D01*
G37*
G36*
X117440055Y-75968646D02*
G01*
X117478862Y-75970680D01*
X117525116Y-75982728D01*
X117578199Y-75991516D01*
X117614324Y-76005965D01*
X117646166Y-76014259D01*
X117694396Y-76037991D01*
X117749875Y-76060181D01*
X117777118Y-76078696D01*
X117801287Y-76090588D01*
X117848462Y-76127181D01*
X117902802Y-76164110D01*
X117921330Y-76183703D01*
X117937894Y-76196551D01*
X117980614Y-76246393D01*
X118029844Y-76298452D01*
X118040654Y-76316443D01*
X118050401Y-76327815D01*
X118085098Y-76390411D01*
X118125074Y-76456941D01*
X118129860Y-76471162D01*
X118134220Y-76479028D01*
X118157404Y-76553009D01*
X118184049Y-76632183D01*
X118185022Y-76641137D01*
X118185919Y-76644000D01*
X118194354Y-76727046D01*
X118199000Y-76769809D01*
X118199000Y-77646311D01*
X118181292Y-77753278D01*
X118162032Y-77877689D01*
X118159868Y-77882690D01*
X118158349Y-77891865D01*
X118124291Y-77964903D01*
X118094687Y-78033312D01*
X118087813Y-78043129D01*
X118080207Y-78059440D01*
X118034879Y-78118726D01*
X117995526Y-78174929D01*
X117982470Y-78187276D01*
X117967904Y-78206327D01*
X117915446Y-78250657D01*
X117869914Y-78293715D01*
X117849561Y-78306335D01*
X117826679Y-78325671D01*
X117771184Y-78354930D01*
X117722978Y-78384819D01*
X117694901Y-78395150D01*
X117663121Y-78411905D01*
X117608381Y-78426983D01*
X117560728Y-78444516D01*
X117525247Y-78449882D01*
X117484861Y-78461006D01*
X117434098Y-78463666D01*
X117389785Y-78470368D01*
X117348006Y-78468178D01*
X117300217Y-78470683D01*
X117255945Y-78463354D01*
X117217138Y-78461320D01*
X117170884Y-78449272D01*
X117117801Y-78440484D01*
X117081676Y-78426035D01*
X117049834Y-78417741D01*
X117001605Y-78394009D01*
X116946125Y-78371819D01*
X116918880Y-78353303D01*
X116894716Y-78341413D01*
X116847547Y-78304825D01*
X116793199Y-78267890D01*
X116774669Y-78248296D01*
X116758105Y-78235447D01*
X116715385Y-78185605D01*
X116666157Y-78133548D01*
X116655347Y-78115557D01*
X116645600Y-78104185D01*
X116610903Y-78041589D01*
X116570927Y-77975059D01*
X116566141Y-77960838D01*
X116561781Y-77952972D01*
X116538597Y-77878991D01*
X116511952Y-77799817D01*
X116510979Y-77790863D01*
X116510082Y-77788000D01*
X116501649Y-77704979D01*
X116497000Y-77662191D01*
X116497000Y-76785690D01*
X116514707Y-76678731D01*
X116533968Y-76554312D01*
X116536132Y-76549311D01*
X116537651Y-76540136D01*
X116571707Y-76467103D01*
X116601311Y-76398693D01*
X116608186Y-76388875D01*
X116615793Y-76372561D01*
X116661129Y-76313263D01*
X116700477Y-76257068D01*
X116713531Y-76244723D01*
X116728096Y-76225673D01*
X116780554Y-76181343D01*
X116826086Y-76138285D01*
X116846439Y-76125665D01*
X116869321Y-76106329D01*
X116924816Y-76077070D01*
X116973022Y-76047181D01*
X117001099Y-76036850D01*
X117032879Y-76020095D01*
X117087619Y-76005017D01*
X117135272Y-75987484D01*
X117170753Y-75982118D01*
X117211139Y-75970994D01*
X117261902Y-75968334D01*
X117306215Y-75961632D01*
X117347994Y-75963822D01*
X117395783Y-75961317D01*
X117440055Y-75968646D01*
G37*
G36*
X94580055Y-75968646D02*
G01*
X94618862Y-75970680D01*
X94665116Y-75982728D01*
X94718199Y-75991516D01*
X94754324Y-76005965D01*
X94786166Y-76014259D01*
X94834396Y-76037991D01*
X94889875Y-76060181D01*
X94917118Y-76078696D01*
X94941287Y-76090588D01*
X94988462Y-76127181D01*
X95042802Y-76164110D01*
X95061330Y-76183703D01*
X95077894Y-76196551D01*
X95120614Y-76246393D01*
X95169844Y-76298452D01*
X95180654Y-76316443D01*
X95190401Y-76327815D01*
X95225098Y-76390411D01*
X95265074Y-76456941D01*
X95269860Y-76471162D01*
X95274220Y-76479028D01*
X95297404Y-76553009D01*
X95324049Y-76632183D01*
X95325022Y-76641137D01*
X95325919Y-76644000D01*
X95334354Y-76727046D01*
X95339000Y-76769809D01*
X95339000Y-77646311D01*
X95321292Y-77753278D01*
X95302032Y-77877689D01*
X95299868Y-77882690D01*
X95298349Y-77891865D01*
X95264291Y-77964903D01*
X95234687Y-78033312D01*
X95227813Y-78043129D01*
X95220207Y-78059440D01*
X95174879Y-78118726D01*
X95135526Y-78174929D01*
X95122470Y-78187276D01*
X95107904Y-78206327D01*
X95055446Y-78250657D01*
X95009914Y-78293715D01*
X94989561Y-78306335D01*
X94966679Y-78325671D01*
X94911184Y-78354930D01*
X94862978Y-78384819D01*
X94834901Y-78395150D01*
X94803121Y-78411905D01*
X94748381Y-78426983D01*
X94700728Y-78444516D01*
X94665247Y-78449882D01*
X94624861Y-78461006D01*
X94574098Y-78463666D01*
X94529785Y-78470368D01*
X94488006Y-78468178D01*
X94440217Y-78470683D01*
X94395945Y-78463354D01*
X94357138Y-78461320D01*
X94310884Y-78449272D01*
X94257801Y-78440484D01*
X94221676Y-78426035D01*
X94189834Y-78417741D01*
X94141605Y-78394009D01*
X94086125Y-78371819D01*
X94058880Y-78353303D01*
X94034716Y-78341413D01*
X93987547Y-78304825D01*
X93933199Y-78267890D01*
X93914669Y-78248296D01*
X93898105Y-78235447D01*
X93855385Y-78185605D01*
X93806157Y-78133548D01*
X93795347Y-78115557D01*
X93785600Y-78104185D01*
X93750903Y-78041589D01*
X93710927Y-77975059D01*
X93706141Y-77960838D01*
X93701781Y-77952972D01*
X93678597Y-77878991D01*
X93651952Y-77799817D01*
X93650979Y-77790863D01*
X93650082Y-77788000D01*
X93641649Y-77704979D01*
X93637000Y-77662191D01*
X93637000Y-76785690D01*
X93654707Y-76678731D01*
X93673968Y-76554312D01*
X93676132Y-76549311D01*
X93677651Y-76540136D01*
X93711707Y-76467103D01*
X93741311Y-76398693D01*
X93748186Y-76388875D01*
X93755793Y-76372561D01*
X93801129Y-76313263D01*
X93840477Y-76257068D01*
X93853531Y-76244723D01*
X93868096Y-76225673D01*
X93920554Y-76181343D01*
X93966086Y-76138285D01*
X93986439Y-76125665D01*
X94009321Y-76106329D01*
X94064816Y-76077070D01*
X94113022Y-76047181D01*
X94141099Y-76036850D01*
X94172879Y-76020095D01*
X94227619Y-76005017D01*
X94275272Y-75987484D01*
X94310753Y-75982118D01*
X94351139Y-75970994D01*
X94401902Y-75968334D01*
X94446215Y-75961632D01*
X94487994Y-75963822D01*
X94535783Y-75961317D01*
X94580055Y-75968646D01*
G37*
M02*
