M48
; DRILL file {KiCad 5.99.0-unknown-r17001-43768b71} date nie, 9 lut 2020, 00:01:28
; FORMAT={-:-/ absolute / inch / decimal}
; #@! TF.CreationDate,2020-02-09T00:01:28+01:00
; #@! TF.GenerationSoftware,Kicad,Pcbnew,5.99.0-unknown-r17001-43768b71
FMAT,2
INCH
T1C0.0157
T2C0.0315
T3C0.0394
T4C0.0866
%
G90
G05
T1
X3.72Y-3.39
X3.9711Y-3.5874
X4.0325Y-3.245
X4.0325Y-3.31
X4.08Y-3.455
X4.081Y-3.3085
X4.13Y-3.31
X4.13Y-3.36
X4.13Y-3.41
X4.18Y-3.455
X4.22Y-3.3493
X4.23Y-3.455
X4.28Y-3.455
X4.32Y-3.27
X4.33Y-3.455
X4.37Y-3.59
X4.38Y-3.455
X4.42Y-3.2175
X4.42Y-3.3
X4.42Y-3.3493
X4.4309Y-3.4612
X4.4695Y-3.5972
X4.475Y-3.23
X4.5167Y-3.4108
X4.5672Y-3.5899
X4.5905Y-3.258
X4.6225Y-3.4415
X4.6425Y-3.2225
X4.6425Y-3.295
X4.6675Y-3.4415
X4.7279Y-3.3396
X4.9298Y-3.34
X4.9489Y-3.2941
X4.9489Y-3.3859
X4.9948Y-3.275
X4.9948Y-3.405
X5.0407Y-3.2941
X5.0407Y-3.3859
X5.0598Y-3.34
X3.455Y-3.634
X3.4741Y-3.5881
X3.4741Y-3.6799
X3.52Y-3.569
X3.52Y-3.699
X3.5659Y-3.5881
X3.5659Y-3.6799
X3.585Y-3.634
X3.455Y-3.044
X3.4741Y-2.9981
X3.4741Y-3.0899
X3.52Y-2.979
X3.52Y-3.109
X3.5659Y-2.9981
X3.5659Y-3.0899
X3.585Y-3.044
T2
X3.72Y-3.04
X3.72Y-3.64
X3.82Y-3.04
X3.82Y-3.64
X3.92Y-3.04
X3.92Y-3.64
X4.02Y-3.04
X4.02Y-3.64
X4.12Y-3.04
X4.12Y-3.64
X4.22Y-3.04
X4.22Y-3.64
X4.32Y-3.04
X4.32Y-3.64
X4.42Y-3.04
X4.42Y-3.64
X4.52Y-3.04
X4.52Y-3.64
X4.62Y-3.04
X4.62Y-3.64
T3
X3.82Y-3.1898
X3.82Y-3.2898
X3.82Y-3.3898
X3.82Y-3.4898
T4
X4.9948Y-3.34
X3.52Y-3.634
X3.52Y-3.044
T0
M30
