G04 #@! TF.GenerationSoftware,KiCad,Pcbnew,5.99.0-unknown-r17001-43768b71*
G04 #@! TF.CreationDate,2020-02-09T00:01:32+01:00*
G04 #@! TF.ProjectId,PD243X Display,50443234-3358-4204-9469-73706c61792e,1*
G04 #@! TF.SameCoordinates,Original*
G04 #@! TF.FileFunction,Legend,Bot*
G04 #@! TF.FilePolarity,Positive*
%FSLAX46Y46*%
G04 Gerber Fmt 4.6, Leading zero omitted, Abs format (unit mm)*
G04 Created by KiCad (PCBNEW 5.99.0-unknown-r17001-43768b71) date 2020-02-09 00:01:32*
%MOMM*%
%LPD*%
G04 APERTURE LIST*
%ADD10C,0.150000*%
%ADD11C,0.120000*%
G04 APERTURE END LIST*
D10*
X98039904Y-79401547D02*
X97918476Y-79442023D01*
X97716095Y-79442023D01*
X97635142Y-79401547D01*
X97594666Y-79361071D01*
X97554190Y-79280119D01*
X97554190Y-79199166D01*
X97594666Y-79118214D01*
X97635142Y-79077738D01*
X97716095Y-79037261D01*
X97878000Y-78996785D01*
X97958952Y-78956309D01*
X97999428Y-78915833D01*
X98039904Y-78834880D01*
X98039904Y-78753928D01*
X97999428Y-78672976D01*
X97958952Y-78632500D01*
X97878000Y-78592023D01*
X97675619Y-78592023D01*
X97554190Y-78632500D01*
X96704190Y-79361071D02*
X96744666Y-79401547D01*
X96866095Y-79442023D01*
X96947047Y-79442023D01*
X97068476Y-79401547D01*
X97149428Y-79320595D01*
X97189904Y-79239642D01*
X97230380Y-79077738D01*
X97230380Y-78956309D01*
X97189904Y-78794404D01*
X97149428Y-78713452D01*
X97068476Y-78632500D01*
X96947047Y-78592023D01*
X96866095Y-78592023D01*
X96744666Y-78632500D01*
X96704190Y-78672976D01*
X95935142Y-79442023D02*
X96339904Y-79442023D01*
X96339904Y-78592023D01*
X99340547Y-82533857D02*
X99381023Y-82655285D01*
X99381023Y-82857666D01*
X99340547Y-82938619D01*
X99300071Y-82979095D01*
X99219119Y-83019571D01*
X99138166Y-83019571D01*
X99057214Y-82979095D01*
X99016738Y-82938619D01*
X98976261Y-82857666D01*
X98935785Y-82695761D01*
X98895309Y-82614809D01*
X98854833Y-82574333D01*
X98773880Y-82533857D01*
X98692928Y-82533857D01*
X98611976Y-82574333D01*
X98571500Y-82614809D01*
X98531023Y-82695761D01*
X98531023Y-82898142D01*
X98571500Y-83019571D01*
X99381023Y-83383857D02*
X98531023Y-83383857D01*
X98531023Y-83586238D01*
X98571500Y-83707666D01*
X98652452Y-83788619D01*
X98733404Y-83829095D01*
X98895309Y-83869571D01*
X99016738Y-83869571D01*
X99178642Y-83829095D01*
X99259595Y-83788619D01*
X99340547Y-83707666D01*
X99381023Y-83586238D01*
X99381023Y-83383857D01*
X99138166Y-84193380D02*
X99138166Y-84598142D01*
X99381023Y-84112428D02*
X98531023Y-84395761D01*
X99381023Y-84679095D01*
X97739119Y-90253000D02*
X97820071Y-90212523D01*
X97941500Y-90212523D01*
X98062928Y-90253000D01*
X98143880Y-90333952D01*
X98184357Y-90414904D01*
X98224833Y-90576809D01*
X98224833Y-90698238D01*
X98184357Y-90860142D01*
X98143880Y-90941095D01*
X98062928Y-91022047D01*
X97941500Y-91062523D01*
X97860547Y-91062523D01*
X97739119Y-91022047D01*
X97698642Y-90981571D01*
X97698642Y-90698238D01*
X97860547Y-90698238D01*
X97334357Y-91062523D02*
X97334357Y-90212523D01*
X96848642Y-91062523D01*
X96848642Y-90212523D01*
X96443880Y-91062523D02*
X96443880Y-90212523D01*
X96241500Y-90212523D01*
X96120071Y-90253000D01*
X96039119Y-90333952D01*
X95998642Y-90414904D01*
X95958166Y-90576809D01*
X95958166Y-90698238D01*
X95998642Y-90860142D01*
X96039119Y-90941095D01*
X96120071Y-91022047D01*
X96241500Y-91062523D01*
X96443880Y-91062523D01*
X98467523Y-86198095D02*
X98467523Y-85793333D01*
X98872285Y-85752857D01*
X98831809Y-85793333D01*
X98791333Y-85874285D01*
X98791333Y-86076666D01*
X98831809Y-86157619D01*
X98872285Y-86198095D01*
X98953238Y-86238571D01*
X99155619Y-86238571D01*
X99236571Y-86198095D01*
X99277047Y-86157619D01*
X99317523Y-86076666D01*
X99317523Y-85874285D01*
X99277047Y-85793333D01*
X99236571Y-85752857D01*
X98467523Y-86481428D02*
X99317523Y-86764761D01*
X98467523Y-87048095D01*
X125955500Y-93289190D02*
X126003119Y-93384428D01*
X126003119Y-93527285D01*
X125955500Y-93670142D01*
X125860261Y-93765380D01*
X125765023Y-93813000D01*
X125574547Y-93860619D01*
X125431690Y-93860619D01*
X125241214Y-93813000D01*
X125145976Y-93765380D01*
X125050738Y-93670142D01*
X125003119Y-93527285D01*
X125003119Y-93432047D01*
X125050738Y-93289190D01*
X125098357Y-93241571D01*
X125431690Y-93241571D01*
X125431690Y-93432047D01*
X125003119Y-92384428D02*
X125526928Y-92384428D01*
X125622166Y-92432047D01*
X125669785Y-92527285D01*
X125669785Y-92717761D01*
X125622166Y-92813000D01*
X125050738Y-92384428D02*
X125003119Y-92479666D01*
X125003119Y-92717761D01*
X125050738Y-92813000D01*
X125145976Y-92860619D01*
X125241214Y-92860619D01*
X125336452Y-92813000D01*
X125384071Y-92717761D01*
X125384071Y-92479666D01*
X125431690Y-92384428D01*
X125003119Y-91765380D02*
X125050738Y-91860619D01*
X125145976Y-91908238D01*
X126003119Y-91908238D01*
X125003119Y-91384428D02*
X125669785Y-91384428D01*
X126003119Y-91384428D02*
X125955500Y-91432047D01*
X125907880Y-91384428D01*
X125955500Y-91336809D01*
X126003119Y-91384428D01*
X125907880Y-91384428D01*
X125003119Y-90765380D02*
X125050738Y-90860619D01*
X125098357Y-90908238D01*
X125193595Y-90955857D01*
X125479309Y-90955857D01*
X125574547Y-90908238D01*
X125622166Y-90860619D01*
X125669785Y-90765380D01*
X125669785Y-90622523D01*
X125622166Y-90527285D01*
X125574547Y-90479666D01*
X125479309Y-90432047D01*
X125193595Y-90432047D01*
X125098357Y-90479666D01*
X125050738Y-90527285D01*
X125003119Y-90622523D01*
X125003119Y-90765380D01*
X125669785Y-90003476D02*
X125003119Y-90003476D01*
X125574547Y-90003476D02*
X125622166Y-89955857D01*
X125669785Y-89860619D01*
X125669785Y-89717761D01*
X125622166Y-89622523D01*
X125526928Y-89574904D01*
X125003119Y-89574904D01*
X124297880Y-93027285D02*
X124345500Y-92979666D01*
X124393119Y-92884428D01*
X124393119Y-92646333D01*
X124345500Y-92551095D01*
X124297880Y-92503476D01*
X124202642Y-92455857D01*
X124107404Y-92455857D01*
X123964547Y-92503476D01*
X123393119Y-93074904D01*
X123393119Y-92455857D01*
X124393119Y-91836809D02*
X124393119Y-91741571D01*
X124345500Y-91646333D01*
X124297880Y-91598714D01*
X124202642Y-91551095D01*
X124012166Y-91503476D01*
X123774071Y-91503476D01*
X123583595Y-91551095D01*
X123488357Y-91598714D01*
X123440738Y-91646333D01*
X123393119Y-91741571D01*
X123393119Y-91836809D01*
X123440738Y-91932047D01*
X123488357Y-91979666D01*
X123583595Y-92027285D01*
X123774071Y-92074904D01*
X124012166Y-92074904D01*
X124202642Y-92027285D01*
X124297880Y-91979666D01*
X124345500Y-91932047D01*
X124393119Y-91836809D01*
X123393119Y-90551095D02*
X123393119Y-91122523D01*
X123393119Y-90836809D02*
X124393119Y-90836809D01*
X124250261Y-90932047D01*
X124155023Y-91027285D01*
X124107404Y-91122523D01*
X123393119Y-90074904D02*
X123393119Y-89884428D01*
X123440738Y-89789190D01*
X123488357Y-89741571D01*
X123631214Y-89646333D01*
X123821690Y-89598714D01*
X124202642Y-89598714D01*
X124297880Y-89646333D01*
X124345500Y-89693952D01*
X124393119Y-89789190D01*
X124393119Y-89979666D01*
X124345500Y-90074904D01*
X124297880Y-90122523D01*
X124202642Y-90170142D01*
X123964547Y-90170142D01*
X123869309Y-90122523D01*
X123821690Y-90074904D01*
X123774071Y-89979666D01*
X123774071Y-89789190D01*
X123821690Y-89693952D01*
X123869309Y-89646333D01*
X123964547Y-89598714D01*
X124985488Y-82162333D02*
X125935488Y-82162333D01*
X125935488Y-81800428D01*
X125890250Y-81709952D01*
X125845011Y-81664714D01*
X125754535Y-81619476D01*
X125618821Y-81619476D01*
X125528345Y-81664714D01*
X125483107Y-81709952D01*
X125437869Y-81800428D01*
X125437869Y-82162333D01*
X124985488Y-81212333D02*
X125935488Y-81212333D01*
X125935488Y-80986142D01*
X125890250Y-80850428D01*
X125799773Y-80759952D01*
X125709297Y-80714714D01*
X125528345Y-80669476D01*
X125392630Y-80669476D01*
X125211678Y-80714714D01*
X125121202Y-80759952D01*
X125030726Y-80850428D01*
X124985488Y-80986142D01*
X124985488Y-81212333D01*
X125845011Y-80307571D02*
X125890250Y-80262333D01*
X125935488Y-80171857D01*
X125935488Y-79945666D01*
X125890250Y-79855190D01*
X125845011Y-79809952D01*
X125754535Y-79764714D01*
X125664059Y-79764714D01*
X125528345Y-79809952D01*
X124985488Y-80352809D01*
X124985488Y-79764714D01*
X125618821Y-78950428D02*
X124985488Y-78950428D01*
X125980726Y-79176619D02*
X125302154Y-79402809D01*
X125302154Y-78814714D01*
X125935488Y-78543285D02*
X125935488Y-77955190D01*
X125573583Y-78271857D01*
X125573583Y-78136142D01*
X125528345Y-78045666D01*
X125483107Y-78000428D01*
X125392630Y-77955190D01*
X125166440Y-77955190D01*
X125075964Y-78000428D01*
X125030726Y-78045666D01*
X124985488Y-78136142D01*
X124985488Y-78407571D01*
X125030726Y-78498047D01*
X125075964Y-78543285D01*
X125935488Y-77638523D02*
X124985488Y-77005190D01*
X125935488Y-77005190D02*
X124985488Y-77638523D01*
X123455988Y-83134952D02*
X124405988Y-83134952D01*
X124632178Y-82727809D02*
X124677416Y-82637333D01*
X124677416Y-82501619D01*
X124632178Y-82411142D01*
X124541702Y-82365904D01*
X124451226Y-82365904D01*
X124360750Y-82411142D01*
X124044083Y-82727809D01*
X124044083Y-82365904D01*
X123546464Y-81415904D02*
X123501226Y-81461142D01*
X123455988Y-81596857D01*
X123455988Y-81687333D01*
X123501226Y-81823047D01*
X123591702Y-81913523D01*
X123682178Y-81958761D01*
X123863130Y-82004000D01*
X123998845Y-82004000D01*
X124179797Y-81958761D01*
X124270273Y-81913523D01*
X124360750Y-81823047D01*
X124405988Y-81687333D01*
X124405988Y-81596857D01*
X124360750Y-81461142D01*
X124315511Y-81415904D01*
X123727416Y-80330190D02*
X123727416Y-79877809D01*
X123455988Y-80420666D02*
X124405988Y-80104000D01*
X123455988Y-79787333D01*
X123455988Y-79063523D02*
X124405988Y-79063523D01*
X123501226Y-79063523D02*
X123455988Y-79154000D01*
X123455988Y-79334952D01*
X123501226Y-79425428D01*
X123546464Y-79470666D01*
X123636940Y-79515904D01*
X123908369Y-79515904D01*
X123998845Y-79470666D01*
X124044083Y-79425428D01*
X124089321Y-79334952D01*
X124089321Y-79154000D01*
X124044083Y-79063523D01*
X123455988Y-78204000D02*
X123953607Y-78204000D01*
X124044083Y-78249238D01*
X124089321Y-78339714D01*
X124089321Y-78520666D01*
X124044083Y-78611142D01*
X123501226Y-78204000D02*
X123455988Y-78294476D01*
X123455988Y-78520666D01*
X123501226Y-78611142D01*
X123591702Y-78656380D01*
X123682178Y-78656380D01*
X123772654Y-78611142D01*
X123817892Y-78520666D01*
X123817892Y-78294476D01*
X123863130Y-78204000D01*
X124089321Y-77751619D02*
X123139321Y-77751619D01*
X124044083Y-77751619D02*
X124089321Y-77661142D01*
X124089321Y-77480190D01*
X124044083Y-77389714D01*
X123998845Y-77344476D01*
X123908369Y-77299238D01*
X123636940Y-77299238D01*
X123546464Y-77344476D01*
X123501226Y-77389714D01*
X123455988Y-77480190D01*
X123455988Y-77661142D01*
X123501226Y-77751619D01*
X124089321Y-77027809D02*
X124089321Y-76665904D01*
X124405988Y-76892095D02*
X123591702Y-76892095D01*
X123501226Y-76846857D01*
X123455988Y-76756380D01*
X123455988Y-76665904D01*
X123501226Y-75987333D02*
X123455988Y-76077809D01*
X123455988Y-76258761D01*
X123501226Y-76349238D01*
X123591702Y-76394476D01*
X123953607Y-76394476D01*
X124044083Y-76349238D01*
X124089321Y-76258761D01*
X124089321Y-76077809D01*
X124044083Y-75987333D01*
X123953607Y-75942095D01*
X123863130Y-75942095D01*
X123772654Y-76394476D01*
X123455988Y-75534952D02*
X124089321Y-75534952D01*
X123908369Y-75534952D02*
X123998845Y-75489714D01*
X124044083Y-75444476D01*
X124089321Y-75354000D01*
X124089321Y-75263523D01*
D11*
X99493000Y-80456248D02*
X99493000Y-80978752D01*
X100913000Y-80456248D02*
X100913000Y-80978752D01*
X98450400Y-79637700D02*
X97040700Y-79637700D01*
X98450400Y-80653700D02*
X98450400Y-79637700D01*
X98686600Y-81440100D02*
X98686600Y-80680100D01*
X98590100Y-81441100D02*
X98590100Y-80679100D01*
X98526600Y-80679100D02*
X98526600Y-81441100D01*
X98463100Y-81441100D02*
X98463100Y-80679100D01*
X98356600Y-79730100D02*
X98356600Y-90010100D01*
X98356600Y-90010100D02*
X95696600Y-90010100D01*
X95696600Y-90010100D02*
X95696600Y-79730100D01*
X95696600Y-79730100D02*
X98356600Y-79730100D01*
X98686600Y-80680100D02*
X98356600Y-80680100D01*
X98686600Y-81440100D02*
X98356600Y-81440100D01*
X98356600Y-82330100D02*
X95696600Y-82330100D01*
X98753671Y-83220100D02*
X98356600Y-83220100D01*
X98753671Y-83980100D02*
X98356600Y-83980100D01*
X98356600Y-84870100D02*
X95696600Y-84870100D01*
X98753671Y-85760100D02*
X98356600Y-85760100D01*
X98753671Y-86520100D02*
X98356600Y-86520100D01*
X98356600Y-87410100D02*
X95696600Y-87410100D01*
X98753671Y-88300100D02*
X98356600Y-88300100D01*
X98753671Y-89060100D02*
X98356600Y-89060100D01*
X123116000Y-84836000D02*
X123116000Y-88696000D01*
X123116000Y-88696000D02*
X122861000Y-88696000D01*
X123116000Y-84836000D02*
X123116000Y-80976000D01*
X123116000Y-80976000D02*
X122861000Y-80976000D01*
X112596000Y-84836000D02*
X112596000Y-88696000D01*
X112596000Y-88696000D02*
X112851000Y-88696000D01*
X112596000Y-84836000D02*
X112596000Y-80976000D01*
X112596000Y-80976000D02*
X112851000Y-80976000D01*
X112851000Y-80976000D02*
X112851000Y-79161000D01*
X112067000Y-84836000D02*
X112067000Y-88696000D01*
X112067000Y-88696000D02*
X111812000Y-88696000D01*
X112067000Y-84836000D02*
X112067000Y-80976000D01*
X112067000Y-80976000D02*
X111812000Y-80976000D01*
X101547000Y-84836000D02*
X101547000Y-88696000D01*
X101547000Y-88696000D02*
X101802000Y-88696000D01*
X101547000Y-84836000D02*
X101547000Y-80976000D01*
X101547000Y-80976000D02*
X101802000Y-80976000D01*
X101802000Y-80976000D02*
X101802000Y-79161000D01*
X100913000Y-88707752D02*
X100913000Y-88185248D01*
X99493000Y-88707752D02*
X99493000Y-88185248D01*
X99493000Y-84375248D02*
X99493000Y-84897752D01*
X100913000Y-84375248D02*
X100913000Y-84897752D01*
D10*
X101903571Y-82408333D02*
X101944047Y-82367857D01*
X101984523Y-82246428D01*
X101984523Y-82165476D01*
X101944047Y-82044047D01*
X101863095Y-81963095D01*
X101782142Y-81922619D01*
X101620238Y-81882142D01*
X101498809Y-81882142D01*
X101336904Y-81922619D01*
X101255952Y-81963095D01*
X101175000Y-82044047D01*
X101134523Y-82165476D01*
X101134523Y-82246428D01*
X101175000Y-82367857D01*
X101215476Y-82408333D01*
X101984523Y-83217857D02*
X101984523Y-82732142D01*
X101984523Y-82975000D02*
X101134523Y-82975000D01*
X101255952Y-82894047D01*
X101336904Y-82813095D01*
X101377380Y-82732142D01*
X122618404Y-84288380D02*
X122618404Y-85097904D01*
X122570785Y-85193142D01*
X122523166Y-85240761D01*
X122427928Y-85288380D01*
X122237452Y-85288380D01*
X122142214Y-85240761D01*
X122094595Y-85193142D01*
X122046976Y-85097904D01*
X122046976Y-84288380D01*
X121666023Y-84288380D02*
X121046976Y-84288380D01*
X121380309Y-84669333D01*
X121237452Y-84669333D01*
X121142214Y-84716952D01*
X121094595Y-84764571D01*
X121046976Y-84859809D01*
X121046976Y-85097904D01*
X121094595Y-85193142D01*
X121142214Y-85240761D01*
X121237452Y-85288380D01*
X121523166Y-85288380D01*
X121618404Y-85240761D01*
X121666023Y-85193142D01*
X104012904Y-84669380D02*
X104012904Y-85478904D01*
X103965285Y-85574142D01*
X103917666Y-85621761D01*
X103822428Y-85669380D01*
X103631952Y-85669380D01*
X103536714Y-85621761D01*
X103489095Y-85574142D01*
X103441476Y-85478904D01*
X103441476Y-84669380D01*
X102441476Y-85669380D02*
X103012904Y-85669380D01*
X102727190Y-85669380D02*
X102727190Y-84669380D01*
X102822428Y-84812238D01*
X102917666Y-84907476D01*
X103012904Y-84955095D01*
X101984523Y-87234333D02*
X101579761Y-86951000D01*
X101984523Y-86748619D02*
X101134523Y-86748619D01*
X101134523Y-87072428D01*
X101175000Y-87153380D01*
X101215476Y-87193857D01*
X101296428Y-87234333D01*
X101417857Y-87234333D01*
X101498809Y-87193857D01*
X101539285Y-87153380D01*
X101579761Y-87072428D01*
X101579761Y-86748619D01*
X101215476Y-87558142D02*
X101175000Y-87598619D01*
X101134523Y-87679571D01*
X101134523Y-87881952D01*
X101175000Y-87962904D01*
X101215476Y-88003380D01*
X101296428Y-88043857D01*
X101377380Y-88043857D01*
X101498809Y-88003380D01*
X101984523Y-87517666D01*
X101984523Y-88043857D01*
X101921023Y-84440333D02*
X101516261Y-84157000D01*
X101921023Y-83954619D02*
X101071023Y-83954619D01*
X101071023Y-84278428D01*
X101111500Y-84359380D01*
X101151976Y-84399857D01*
X101232928Y-84440333D01*
X101354357Y-84440333D01*
X101435309Y-84399857D01*
X101475785Y-84359380D01*
X101516261Y-84278428D01*
X101516261Y-83954619D01*
X101921023Y-85249857D02*
X101921023Y-84764142D01*
X101921023Y-85007000D02*
X101071023Y-85007000D01*
X101192452Y-84926047D01*
X101273404Y-84845095D01*
X101313880Y-84764142D01*
M02*
