G04 #@! TF.GenerationSoftware,KiCad,Pcbnew,5.99.0-unknown-r17001-43768b71*
G04 #@! TF.CreationDate,2020-02-09T00:01:32+01:00*
G04 #@! TF.ProjectId,PD243X Display,50443234-3358-4204-9469-73706c61792e,1*
G04 #@! TF.SameCoordinates,Original*
G04 #@! TF.FileFunction,Copper,L2,Bot*
G04 #@! TF.FilePolarity,Positive*
%FSLAX46Y46*%
G04 Gerber Fmt 4.6, Leading zero omitted, Abs format (unit mm)*
G04 Created by KiCad (PCBNEW 5.99.0-unknown-r17001-43768b71) date 2020-02-09 00:01:32*
%MOMM*%
%LPD*%
G04 APERTURE LIST*
%ADD10R,1.600000X2.400000*%
%ADD11O,1.600000X2.400000*%
%ADD12C,0.700000*%
%ADD13C,4.400000*%
%ADD14R,1.700000X1.700000*%
%ADD15O,1.700000X1.700000*%
%ADD16C,0.800000*%
%ADD17C,1.000000*%
%ADD18C,0.400000*%
%ADD19C,0.254000*%
G04 APERTURE END LIST*
G04 #@! TA.AperFunction,SMDPad,CuDef*
G36*
X100748671Y-81186530D02*
G01*
X100829777Y-81240723D01*
X100883970Y-81321829D01*
X100903000Y-81417499D01*
X100903000Y-82067501D01*
X100883970Y-82163171D01*
X100829777Y-82244277D01*
X100748671Y-82298470D01*
X100653001Y-82317500D01*
X99752999Y-82317500D01*
X99657329Y-82298470D01*
X99576223Y-82244277D01*
X99522030Y-82163171D01*
X99503000Y-82067501D01*
X99503000Y-81417499D01*
X99522030Y-81321829D01*
X99576223Y-81240723D01*
X99657329Y-81186530D01*
X99752999Y-81167500D01*
X100653001Y-81167500D01*
X100748671Y-81186530D01*
G37*
G04 #@! TD.AperFunction*
G04 #@! TA.AperFunction,SMDPad,CuDef*
G36*
X100748671Y-79136530D02*
G01*
X100829777Y-79190723D01*
X100883970Y-79271829D01*
X100903000Y-79367499D01*
X100903000Y-80017501D01*
X100883970Y-80113171D01*
X100829777Y-80194277D01*
X100748671Y-80248470D01*
X100653001Y-80267500D01*
X99752999Y-80267500D01*
X99657329Y-80248470D01*
X99576223Y-80194277D01*
X99522030Y-80113171D01*
X99503000Y-80017501D01*
X99503000Y-79367499D01*
X99522030Y-79271829D01*
X99576223Y-79190723D01*
X99657329Y-79136530D01*
X99752999Y-79117500D01*
X100653001Y-79117500D01*
X100748671Y-79136530D01*
G37*
G04 #@! TD.AperFunction*
D10*
X94488000Y-92456000D03*
D11*
X97028000Y-92456000D03*
X99568000Y-92456000D03*
X117348000Y-77216000D03*
X102108000Y-92456000D03*
X114808000Y-77216000D03*
X104648000Y-92456000D03*
X112268000Y-77216000D03*
X107188000Y-92456000D03*
X109728000Y-77216000D03*
X109728000Y-92456000D03*
X107188000Y-77216000D03*
X112268000Y-92456000D03*
X104648000Y-77216000D03*
X114808000Y-92456000D03*
X102108000Y-77216000D03*
X117348000Y-92456000D03*
X99568000Y-77216000D03*
X97028000Y-77216000D03*
X94488000Y-77216000D03*
D12*
X128034726Y-83669274D03*
X126868000Y-83186000D03*
X125701274Y-83669274D03*
X125218000Y-84836000D03*
X125701274Y-86002726D03*
X126868000Y-86486000D03*
X128034726Y-86002726D03*
X128518000Y-84836000D03*
D13*
X126868000Y-84836000D03*
D12*
X90574726Y-91136874D03*
X89408000Y-90653600D03*
X88241274Y-91136874D03*
X87758000Y-92303600D03*
X88241274Y-93470326D03*
X89408000Y-93953600D03*
X90574726Y-93470326D03*
X91058000Y-92303600D03*
D13*
X89408000Y-92303600D03*
D12*
X90574726Y-76150874D03*
X89408000Y-75667600D03*
X88241274Y-76150874D03*
X87758000Y-77317600D03*
X88241274Y-78484326D03*
X89408000Y-78967600D03*
X90574726Y-78484326D03*
X91058000Y-77317600D03*
D13*
X89408000Y-77317600D03*
D14*
X97028000Y-81022000D03*
D15*
X97028000Y-83562000D03*
X97028000Y-86102000D03*
X97028000Y-88642000D03*
G04 #@! TA.AperFunction,SMDPad,CuDef*
G36*
X113618403Y-88472418D02*
G01*
X113667066Y-88504934D01*
X113699582Y-88553597D01*
X113711000Y-88611000D01*
X113711000Y-90361000D01*
X113699582Y-90418403D01*
X113667066Y-90467066D01*
X113618403Y-90499582D01*
X113561000Y-90511000D01*
X113261000Y-90511000D01*
X113203597Y-90499582D01*
X113154934Y-90467066D01*
X113122418Y-90418403D01*
X113111000Y-90361000D01*
X113111000Y-88611000D01*
X113122418Y-88553597D01*
X113154934Y-88504934D01*
X113203597Y-88472418D01*
X113261000Y-88461000D01*
X113561000Y-88461000D01*
X113618403Y-88472418D01*
G37*
G04 #@! TD.AperFunction*
G04 #@! TA.AperFunction,SMDPad,CuDef*
G36*
X114888403Y-88472418D02*
G01*
X114937066Y-88504934D01*
X114969582Y-88553597D01*
X114981000Y-88611000D01*
X114981000Y-90361000D01*
X114969582Y-90418403D01*
X114937066Y-90467066D01*
X114888403Y-90499582D01*
X114831000Y-90511000D01*
X114531000Y-90511000D01*
X114473597Y-90499582D01*
X114424934Y-90467066D01*
X114392418Y-90418403D01*
X114381000Y-90361000D01*
X114381000Y-88611000D01*
X114392418Y-88553597D01*
X114424934Y-88504934D01*
X114473597Y-88472418D01*
X114531000Y-88461000D01*
X114831000Y-88461000D01*
X114888403Y-88472418D01*
G37*
G04 #@! TD.AperFunction*
G04 #@! TA.AperFunction,SMDPad,CuDef*
G36*
X116158403Y-88472418D02*
G01*
X116207066Y-88504934D01*
X116239582Y-88553597D01*
X116251000Y-88611000D01*
X116251000Y-90361000D01*
X116239582Y-90418403D01*
X116207066Y-90467066D01*
X116158403Y-90499582D01*
X116101000Y-90511000D01*
X115801000Y-90511000D01*
X115743597Y-90499582D01*
X115694934Y-90467066D01*
X115662418Y-90418403D01*
X115651000Y-90361000D01*
X115651000Y-88611000D01*
X115662418Y-88553597D01*
X115694934Y-88504934D01*
X115743597Y-88472418D01*
X115801000Y-88461000D01*
X116101000Y-88461000D01*
X116158403Y-88472418D01*
G37*
G04 #@! TD.AperFunction*
G04 #@! TA.AperFunction,SMDPad,CuDef*
G36*
X117428403Y-88472418D02*
G01*
X117477066Y-88504934D01*
X117509582Y-88553597D01*
X117521000Y-88611000D01*
X117521000Y-90361000D01*
X117509582Y-90418403D01*
X117477066Y-90467066D01*
X117428403Y-90499582D01*
X117371000Y-90511000D01*
X117071000Y-90511000D01*
X117013597Y-90499582D01*
X116964934Y-90467066D01*
X116932418Y-90418403D01*
X116921000Y-90361000D01*
X116921000Y-88611000D01*
X116932418Y-88553597D01*
X116964934Y-88504934D01*
X117013597Y-88472418D01*
X117071000Y-88461000D01*
X117371000Y-88461000D01*
X117428403Y-88472418D01*
G37*
G04 #@! TD.AperFunction*
G04 #@! TA.AperFunction,SMDPad,CuDef*
G36*
X118698403Y-88472418D02*
G01*
X118747066Y-88504934D01*
X118779582Y-88553597D01*
X118791000Y-88611000D01*
X118791000Y-90361000D01*
X118779582Y-90418403D01*
X118747066Y-90467066D01*
X118698403Y-90499582D01*
X118641000Y-90511000D01*
X118341000Y-90511000D01*
X118283597Y-90499582D01*
X118234934Y-90467066D01*
X118202418Y-90418403D01*
X118191000Y-90361000D01*
X118191000Y-88611000D01*
X118202418Y-88553597D01*
X118234934Y-88504934D01*
X118283597Y-88472418D01*
X118341000Y-88461000D01*
X118641000Y-88461000D01*
X118698403Y-88472418D01*
G37*
G04 #@! TD.AperFunction*
G04 #@! TA.AperFunction,SMDPad,CuDef*
G36*
X119968403Y-88472418D02*
G01*
X120017066Y-88504934D01*
X120049582Y-88553597D01*
X120061000Y-88611000D01*
X120061000Y-90361000D01*
X120049582Y-90418403D01*
X120017066Y-90467066D01*
X119968403Y-90499582D01*
X119911000Y-90511000D01*
X119611000Y-90511000D01*
X119553597Y-90499582D01*
X119504934Y-90467066D01*
X119472418Y-90418403D01*
X119461000Y-90361000D01*
X119461000Y-88611000D01*
X119472418Y-88553597D01*
X119504934Y-88504934D01*
X119553597Y-88472418D01*
X119611000Y-88461000D01*
X119911000Y-88461000D01*
X119968403Y-88472418D01*
G37*
G04 #@! TD.AperFunction*
G04 #@! TA.AperFunction,SMDPad,CuDef*
G36*
X121238403Y-88472418D02*
G01*
X121287066Y-88504934D01*
X121319582Y-88553597D01*
X121331000Y-88611000D01*
X121331000Y-90361000D01*
X121319582Y-90418403D01*
X121287066Y-90467066D01*
X121238403Y-90499582D01*
X121181000Y-90511000D01*
X120881000Y-90511000D01*
X120823597Y-90499582D01*
X120774934Y-90467066D01*
X120742418Y-90418403D01*
X120731000Y-90361000D01*
X120731000Y-88611000D01*
X120742418Y-88553597D01*
X120774934Y-88504934D01*
X120823597Y-88472418D01*
X120881000Y-88461000D01*
X121181000Y-88461000D01*
X121238403Y-88472418D01*
G37*
G04 #@! TD.AperFunction*
G04 #@! TA.AperFunction,SMDPad,CuDef*
G36*
X122508403Y-88472418D02*
G01*
X122557066Y-88504934D01*
X122589582Y-88553597D01*
X122601000Y-88611000D01*
X122601000Y-90361000D01*
X122589582Y-90418403D01*
X122557066Y-90467066D01*
X122508403Y-90499582D01*
X122451000Y-90511000D01*
X122151000Y-90511000D01*
X122093597Y-90499582D01*
X122044934Y-90467066D01*
X122012418Y-90418403D01*
X122001000Y-90361000D01*
X122001000Y-88611000D01*
X122012418Y-88553597D01*
X122044934Y-88504934D01*
X122093597Y-88472418D01*
X122151000Y-88461000D01*
X122451000Y-88461000D01*
X122508403Y-88472418D01*
G37*
G04 #@! TD.AperFunction*
G04 #@! TA.AperFunction,SMDPad,CuDef*
G36*
X122508403Y-79172418D02*
G01*
X122557066Y-79204934D01*
X122589582Y-79253597D01*
X122601000Y-79311000D01*
X122601000Y-81061000D01*
X122589582Y-81118403D01*
X122557066Y-81167066D01*
X122508403Y-81199582D01*
X122451000Y-81211000D01*
X122151000Y-81211000D01*
X122093597Y-81199582D01*
X122044934Y-81167066D01*
X122012418Y-81118403D01*
X122001000Y-81061000D01*
X122001000Y-79311000D01*
X122012418Y-79253597D01*
X122044934Y-79204934D01*
X122093597Y-79172418D01*
X122151000Y-79161000D01*
X122451000Y-79161000D01*
X122508403Y-79172418D01*
G37*
G04 #@! TD.AperFunction*
G04 #@! TA.AperFunction,SMDPad,CuDef*
G36*
X121238403Y-79172418D02*
G01*
X121287066Y-79204934D01*
X121319582Y-79253597D01*
X121331000Y-79311000D01*
X121331000Y-81061000D01*
X121319582Y-81118403D01*
X121287066Y-81167066D01*
X121238403Y-81199582D01*
X121181000Y-81211000D01*
X120881000Y-81211000D01*
X120823597Y-81199582D01*
X120774934Y-81167066D01*
X120742418Y-81118403D01*
X120731000Y-81061000D01*
X120731000Y-79311000D01*
X120742418Y-79253597D01*
X120774934Y-79204934D01*
X120823597Y-79172418D01*
X120881000Y-79161000D01*
X121181000Y-79161000D01*
X121238403Y-79172418D01*
G37*
G04 #@! TD.AperFunction*
G04 #@! TA.AperFunction,SMDPad,CuDef*
G36*
X119968403Y-79172418D02*
G01*
X120017066Y-79204934D01*
X120049582Y-79253597D01*
X120061000Y-79311000D01*
X120061000Y-81061000D01*
X120049582Y-81118403D01*
X120017066Y-81167066D01*
X119968403Y-81199582D01*
X119911000Y-81211000D01*
X119611000Y-81211000D01*
X119553597Y-81199582D01*
X119504934Y-81167066D01*
X119472418Y-81118403D01*
X119461000Y-81061000D01*
X119461000Y-79311000D01*
X119472418Y-79253597D01*
X119504934Y-79204934D01*
X119553597Y-79172418D01*
X119611000Y-79161000D01*
X119911000Y-79161000D01*
X119968403Y-79172418D01*
G37*
G04 #@! TD.AperFunction*
G04 #@! TA.AperFunction,SMDPad,CuDef*
G36*
X118698403Y-79172418D02*
G01*
X118747066Y-79204934D01*
X118779582Y-79253597D01*
X118791000Y-79311000D01*
X118791000Y-81061000D01*
X118779582Y-81118403D01*
X118747066Y-81167066D01*
X118698403Y-81199582D01*
X118641000Y-81211000D01*
X118341000Y-81211000D01*
X118283597Y-81199582D01*
X118234934Y-81167066D01*
X118202418Y-81118403D01*
X118191000Y-81061000D01*
X118191000Y-79311000D01*
X118202418Y-79253597D01*
X118234934Y-79204934D01*
X118283597Y-79172418D01*
X118341000Y-79161000D01*
X118641000Y-79161000D01*
X118698403Y-79172418D01*
G37*
G04 #@! TD.AperFunction*
G04 #@! TA.AperFunction,SMDPad,CuDef*
G36*
X117428403Y-79172418D02*
G01*
X117477066Y-79204934D01*
X117509582Y-79253597D01*
X117521000Y-79311000D01*
X117521000Y-81061000D01*
X117509582Y-81118403D01*
X117477066Y-81167066D01*
X117428403Y-81199582D01*
X117371000Y-81211000D01*
X117071000Y-81211000D01*
X117013597Y-81199582D01*
X116964934Y-81167066D01*
X116932418Y-81118403D01*
X116921000Y-81061000D01*
X116921000Y-79311000D01*
X116932418Y-79253597D01*
X116964934Y-79204934D01*
X117013597Y-79172418D01*
X117071000Y-79161000D01*
X117371000Y-79161000D01*
X117428403Y-79172418D01*
G37*
G04 #@! TD.AperFunction*
G04 #@! TA.AperFunction,SMDPad,CuDef*
G36*
X116158403Y-79172418D02*
G01*
X116207066Y-79204934D01*
X116239582Y-79253597D01*
X116251000Y-79311000D01*
X116251000Y-81061000D01*
X116239582Y-81118403D01*
X116207066Y-81167066D01*
X116158403Y-81199582D01*
X116101000Y-81211000D01*
X115801000Y-81211000D01*
X115743597Y-81199582D01*
X115694934Y-81167066D01*
X115662418Y-81118403D01*
X115651000Y-81061000D01*
X115651000Y-79311000D01*
X115662418Y-79253597D01*
X115694934Y-79204934D01*
X115743597Y-79172418D01*
X115801000Y-79161000D01*
X116101000Y-79161000D01*
X116158403Y-79172418D01*
G37*
G04 #@! TD.AperFunction*
G04 #@! TA.AperFunction,SMDPad,CuDef*
G36*
X114888403Y-79172418D02*
G01*
X114937066Y-79204934D01*
X114969582Y-79253597D01*
X114981000Y-79311000D01*
X114981000Y-81061000D01*
X114969582Y-81118403D01*
X114937066Y-81167066D01*
X114888403Y-81199582D01*
X114831000Y-81211000D01*
X114531000Y-81211000D01*
X114473597Y-81199582D01*
X114424934Y-81167066D01*
X114392418Y-81118403D01*
X114381000Y-81061000D01*
X114381000Y-79311000D01*
X114392418Y-79253597D01*
X114424934Y-79204934D01*
X114473597Y-79172418D01*
X114531000Y-79161000D01*
X114831000Y-79161000D01*
X114888403Y-79172418D01*
G37*
G04 #@! TD.AperFunction*
G04 #@! TA.AperFunction,SMDPad,CuDef*
G36*
X113618403Y-79172418D02*
G01*
X113667066Y-79204934D01*
X113699582Y-79253597D01*
X113711000Y-79311000D01*
X113711000Y-81061000D01*
X113699582Y-81118403D01*
X113667066Y-81167066D01*
X113618403Y-81199582D01*
X113561000Y-81211000D01*
X113261000Y-81211000D01*
X113203597Y-81199582D01*
X113154934Y-81167066D01*
X113122418Y-81118403D01*
X113111000Y-81061000D01*
X113111000Y-79311000D01*
X113122418Y-79253597D01*
X113154934Y-79204934D01*
X113203597Y-79172418D01*
X113261000Y-79161000D01*
X113561000Y-79161000D01*
X113618403Y-79172418D01*
G37*
G04 #@! TD.AperFunction*
G04 #@! TA.AperFunction,SMDPad,CuDef*
G36*
X102569403Y-88472418D02*
G01*
X102618066Y-88504934D01*
X102650582Y-88553597D01*
X102662000Y-88611000D01*
X102662000Y-90361000D01*
X102650582Y-90418403D01*
X102618066Y-90467066D01*
X102569403Y-90499582D01*
X102512000Y-90511000D01*
X102212000Y-90511000D01*
X102154597Y-90499582D01*
X102105934Y-90467066D01*
X102073418Y-90418403D01*
X102062000Y-90361000D01*
X102062000Y-88611000D01*
X102073418Y-88553597D01*
X102105934Y-88504934D01*
X102154597Y-88472418D01*
X102212000Y-88461000D01*
X102512000Y-88461000D01*
X102569403Y-88472418D01*
G37*
G04 #@! TD.AperFunction*
G04 #@! TA.AperFunction,SMDPad,CuDef*
G36*
X103839403Y-88472418D02*
G01*
X103888066Y-88504934D01*
X103920582Y-88553597D01*
X103932000Y-88611000D01*
X103932000Y-90361000D01*
X103920582Y-90418403D01*
X103888066Y-90467066D01*
X103839403Y-90499582D01*
X103782000Y-90511000D01*
X103482000Y-90511000D01*
X103424597Y-90499582D01*
X103375934Y-90467066D01*
X103343418Y-90418403D01*
X103332000Y-90361000D01*
X103332000Y-88611000D01*
X103343418Y-88553597D01*
X103375934Y-88504934D01*
X103424597Y-88472418D01*
X103482000Y-88461000D01*
X103782000Y-88461000D01*
X103839403Y-88472418D01*
G37*
G04 #@! TD.AperFunction*
G04 #@! TA.AperFunction,SMDPad,CuDef*
G36*
X105109403Y-88472418D02*
G01*
X105158066Y-88504934D01*
X105190582Y-88553597D01*
X105202000Y-88611000D01*
X105202000Y-90361000D01*
X105190582Y-90418403D01*
X105158066Y-90467066D01*
X105109403Y-90499582D01*
X105052000Y-90511000D01*
X104752000Y-90511000D01*
X104694597Y-90499582D01*
X104645934Y-90467066D01*
X104613418Y-90418403D01*
X104602000Y-90361000D01*
X104602000Y-88611000D01*
X104613418Y-88553597D01*
X104645934Y-88504934D01*
X104694597Y-88472418D01*
X104752000Y-88461000D01*
X105052000Y-88461000D01*
X105109403Y-88472418D01*
G37*
G04 #@! TD.AperFunction*
G04 #@! TA.AperFunction,SMDPad,CuDef*
G36*
X106379403Y-88472418D02*
G01*
X106428066Y-88504934D01*
X106460582Y-88553597D01*
X106472000Y-88611000D01*
X106472000Y-90361000D01*
X106460582Y-90418403D01*
X106428066Y-90467066D01*
X106379403Y-90499582D01*
X106322000Y-90511000D01*
X106022000Y-90511000D01*
X105964597Y-90499582D01*
X105915934Y-90467066D01*
X105883418Y-90418403D01*
X105872000Y-90361000D01*
X105872000Y-88611000D01*
X105883418Y-88553597D01*
X105915934Y-88504934D01*
X105964597Y-88472418D01*
X106022000Y-88461000D01*
X106322000Y-88461000D01*
X106379403Y-88472418D01*
G37*
G04 #@! TD.AperFunction*
G04 #@! TA.AperFunction,SMDPad,CuDef*
G36*
X107649403Y-88472418D02*
G01*
X107698066Y-88504934D01*
X107730582Y-88553597D01*
X107742000Y-88611000D01*
X107742000Y-90361000D01*
X107730582Y-90418403D01*
X107698066Y-90467066D01*
X107649403Y-90499582D01*
X107592000Y-90511000D01*
X107292000Y-90511000D01*
X107234597Y-90499582D01*
X107185934Y-90467066D01*
X107153418Y-90418403D01*
X107142000Y-90361000D01*
X107142000Y-88611000D01*
X107153418Y-88553597D01*
X107185934Y-88504934D01*
X107234597Y-88472418D01*
X107292000Y-88461000D01*
X107592000Y-88461000D01*
X107649403Y-88472418D01*
G37*
G04 #@! TD.AperFunction*
G04 #@! TA.AperFunction,SMDPad,CuDef*
G36*
X108919403Y-88472418D02*
G01*
X108968066Y-88504934D01*
X109000582Y-88553597D01*
X109012000Y-88611000D01*
X109012000Y-90361000D01*
X109000582Y-90418403D01*
X108968066Y-90467066D01*
X108919403Y-90499582D01*
X108862000Y-90511000D01*
X108562000Y-90511000D01*
X108504597Y-90499582D01*
X108455934Y-90467066D01*
X108423418Y-90418403D01*
X108412000Y-90361000D01*
X108412000Y-88611000D01*
X108423418Y-88553597D01*
X108455934Y-88504934D01*
X108504597Y-88472418D01*
X108562000Y-88461000D01*
X108862000Y-88461000D01*
X108919403Y-88472418D01*
G37*
G04 #@! TD.AperFunction*
G04 #@! TA.AperFunction,SMDPad,CuDef*
G36*
X110189403Y-88472418D02*
G01*
X110238066Y-88504934D01*
X110270582Y-88553597D01*
X110282000Y-88611000D01*
X110282000Y-90361000D01*
X110270582Y-90418403D01*
X110238066Y-90467066D01*
X110189403Y-90499582D01*
X110132000Y-90511000D01*
X109832000Y-90511000D01*
X109774597Y-90499582D01*
X109725934Y-90467066D01*
X109693418Y-90418403D01*
X109682000Y-90361000D01*
X109682000Y-88611000D01*
X109693418Y-88553597D01*
X109725934Y-88504934D01*
X109774597Y-88472418D01*
X109832000Y-88461000D01*
X110132000Y-88461000D01*
X110189403Y-88472418D01*
G37*
G04 #@! TD.AperFunction*
G04 #@! TA.AperFunction,SMDPad,CuDef*
G36*
X111459403Y-88472418D02*
G01*
X111508066Y-88504934D01*
X111540582Y-88553597D01*
X111552000Y-88611000D01*
X111552000Y-90361000D01*
X111540582Y-90418403D01*
X111508066Y-90467066D01*
X111459403Y-90499582D01*
X111402000Y-90511000D01*
X111102000Y-90511000D01*
X111044597Y-90499582D01*
X110995934Y-90467066D01*
X110963418Y-90418403D01*
X110952000Y-90361000D01*
X110952000Y-88611000D01*
X110963418Y-88553597D01*
X110995934Y-88504934D01*
X111044597Y-88472418D01*
X111102000Y-88461000D01*
X111402000Y-88461000D01*
X111459403Y-88472418D01*
G37*
G04 #@! TD.AperFunction*
G04 #@! TA.AperFunction,SMDPad,CuDef*
G36*
X111459403Y-79172418D02*
G01*
X111508066Y-79204934D01*
X111540582Y-79253597D01*
X111552000Y-79311000D01*
X111552000Y-81061000D01*
X111540582Y-81118403D01*
X111508066Y-81167066D01*
X111459403Y-81199582D01*
X111402000Y-81211000D01*
X111102000Y-81211000D01*
X111044597Y-81199582D01*
X110995934Y-81167066D01*
X110963418Y-81118403D01*
X110952000Y-81061000D01*
X110952000Y-79311000D01*
X110963418Y-79253597D01*
X110995934Y-79204934D01*
X111044597Y-79172418D01*
X111102000Y-79161000D01*
X111402000Y-79161000D01*
X111459403Y-79172418D01*
G37*
G04 #@! TD.AperFunction*
G04 #@! TA.AperFunction,SMDPad,CuDef*
G36*
X110189403Y-79172418D02*
G01*
X110238066Y-79204934D01*
X110270582Y-79253597D01*
X110282000Y-79311000D01*
X110282000Y-81061000D01*
X110270582Y-81118403D01*
X110238066Y-81167066D01*
X110189403Y-81199582D01*
X110132000Y-81211000D01*
X109832000Y-81211000D01*
X109774597Y-81199582D01*
X109725934Y-81167066D01*
X109693418Y-81118403D01*
X109682000Y-81061000D01*
X109682000Y-79311000D01*
X109693418Y-79253597D01*
X109725934Y-79204934D01*
X109774597Y-79172418D01*
X109832000Y-79161000D01*
X110132000Y-79161000D01*
X110189403Y-79172418D01*
G37*
G04 #@! TD.AperFunction*
G04 #@! TA.AperFunction,SMDPad,CuDef*
G36*
X108919403Y-79172418D02*
G01*
X108968066Y-79204934D01*
X109000582Y-79253597D01*
X109012000Y-79311000D01*
X109012000Y-81061000D01*
X109000582Y-81118403D01*
X108968066Y-81167066D01*
X108919403Y-81199582D01*
X108862000Y-81211000D01*
X108562000Y-81211000D01*
X108504597Y-81199582D01*
X108455934Y-81167066D01*
X108423418Y-81118403D01*
X108412000Y-81061000D01*
X108412000Y-79311000D01*
X108423418Y-79253597D01*
X108455934Y-79204934D01*
X108504597Y-79172418D01*
X108562000Y-79161000D01*
X108862000Y-79161000D01*
X108919403Y-79172418D01*
G37*
G04 #@! TD.AperFunction*
G04 #@! TA.AperFunction,SMDPad,CuDef*
G36*
X107649403Y-79172418D02*
G01*
X107698066Y-79204934D01*
X107730582Y-79253597D01*
X107742000Y-79311000D01*
X107742000Y-81061000D01*
X107730582Y-81118403D01*
X107698066Y-81167066D01*
X107649403Y-81199582D01*
X107592000Y-81211000D01*
X107292000Y-81211000D01*
X107234597Y-81199582D01*
X107185934Y-81167066D01*
X107153418Y-81118403D01*
X107142000Y-81061000D01*
X107142000Y-79311000D01*
X107153418Y-79253597D01*
X107185934Y-79204934D01*
X107234597Y-79172418D01*
X107292000Y-79161000D01*
X107592000Y-79161000D01*
X107649403Y-79172418D01*
G37*
G04 #@! TD.AperFunction*
G04 #@! TA.AperFunction,SMDPad,CuDef*
G36*
X106379403Y-79172418D02*
G01*
X106428066Y-79204934D01*
X106460582Y-79253597D01*
X106472000Y-79311000D01*
X106472000Y-81061000D01*
X106460582Y-81118403D01*
X106428066Y-81167066D01*
X106379403Y-81199582D01*
X106322000Y-81211000D01*
X106022000Y-81211000D01*
X105964597Y-81199582D01*
X105915934Y-81167066D01*
X105883418Y-81118403D01*
X105872000Y-81061000D01*
X105872000Y-79311000D01*
X105883418Y-79253597D01*
X105915934Y-79204934D01*
X105964597Y-79172418D01*
X106022000Y-79161000D01*
X106322000Y-79161000D01*
X106379403Y-79172418D01*
G37*
G04 #@! TD.AperFunction*
G04 #@! TA.AperFunction,SMDPad,CuDef*
G36*
X105109403Y-79172418D02*
G01*
X105158066Y-79204934D01*
X105190582Y-79253597D01*
X105202000Y-79311000D01*
X105202000Y-81061000D01*
X105190582Y-81118403D01*
X105158066Y-81167066D01*
X105109403Y-81199582D01*
X105052000Y-81211000D01*
X104752000Y-81211000D01*
X104694597Y-81199582D01*
X104645934Y-81167066D01*
X104613418Y-81118403D01*
X104602000Y-81061000D01*
X104602000Y-79311000D01*
X104613418Y-79253597D01*
X104645934Y-79204934D01*
X104694597Y-79172418D01*
X104752000Y-79161000D01*
X105052000Y-79161000D01*
X105109403Y-79172418D01*
G37*
G04 #@! TD.AperFunction*
G04 #@! TA.AperFunction,SMDPad,CuDef*
G36*
X103839403Y-79172418D02*
G01*
X103888066Y-79204934D01*
X103920582Y-79253597D01*
X103932000Y-79311000D01*
X103932000Y-81061000D01*
X103920582Y-81118403D01*
X103888066Y-81167066D01*
X103839403Y-81199582D01*
X103782000Y-81211000D01*
X103482000Y-81211000D01*
X103424597Y-81199582D01*
X103375934Y-81167066D01*
X103343418Y-81118403D01*
X103332000Y-81061000D01*
X103332000Y-79311000D01*
X103343418Y-79253597D01*
X103375934Y-79204934D01*
X103424597Y-79172418D01*
X103482000Y-79161000D01*
X103782000Y-79161000D01*
X103839403Y-79172418D01*
G37*
G04 #@! TD.AperFunction*
G04 #@! TA.AperFunction,SMDPad,CuDef*
G36*
X102569403Y-79172418D02*
G01*
X102618066Y-79204934D01*
X102650582Y-79253597D01*
X102662000Y-79311000D01*
X102662000Y-81061000D01*
X102650582Y-81118403D01*
X102618066Y-81167066D01*
X102569403Y-81199582D01*
X102512000Y-81211000D01*
X102212000Y-81211000D01*
X102154597Y-81199582D01*
X102105934Y-81167066D01*
X102073418Y-81118403D01*
X102062000Y-81061000D01*
X102062000Y-79311000D01*
X102073418Y-79253597D01*
X102105934Y-79204934D01*
X102154597Y-79172418D01*
X102212000Y-79161000D01*
X102512000Y-79161000D01*
X102569403Y-79172418D01*
G37*
G04 #@! TD.AperFunction*
G04 #@! TA.AperFunction,SMDPad,CuDef*
G36*
X100748671Y-86865530D02*
G01*
X100829777Y-86919723D01*
X100883970Y-87000829D01*
X100903000Y-87096499D01*
X100903000Y-87746501D01*
X100883970Y-87842171D01*
X100829777Y-87923277D01*
X100748671Y-87977470D01*
X100653001Y-87996500D01*
X99752999Y-87996500D01*
X99657329Y-87977470D01*
X99576223Y-87923277D01*
X99522030Y-87842171D01*
X99503000Y-87746501D01*
X99503000Y-87096499D01*
X99522030Y-87000829D01*
X99576223Y-86919723D01*
X99657329Y-86865530D01*
X99752999Y-86846500D01*
X100653001Y-86846500D01*
X100748671Y-86865530D01*
G37*
G04 #@! TD.AperFunction*
G04 #@! TA.AperFunction,SMDPad,CuDef*
G36*
X100748671Y-88915530D02*
G01*
X100829777Y-88969723D01*
X100883970Y-89050829D01*
X100903000Y-89146499D01*
X100903000Y-89796501D01*
X100883970Y-89892171D01*
X100829777Y-89973277D01*
X100748671Y-90027470D01*
X100653001Y-90046500D01*
X99752999Y-90046500D01*
X99657329Y-90027470D01*
X99576223Y-89973277D01*
X99522030Y-89892171D01*
X99503000Y-89796501D01*
X99503000Y-89146499D01*
X99522030Y-89050829D01*
X99576223Y-88969723D01*
X99657329Y-88915530D01*
X99752999Y-88896500D01*
X100653001Y-88896500D01*
X100748671Y-88915530D01*
G37*
G04 #@! TD.AperFunction*
G04 #@! TA.AperFunction,SMDPad,CuDef*
G36*
X100748671Y-85105530D02*
G01*
X100829777Y-85159723D01*
X100883970Y-85240829D01*
X100903000Y-85336499D01*
X100903000Y-85986501D01*
X100883970Y-86082171D01*
X100829777Y-86163277D01*
X100748671Y-86217470D01*
X100653001Y-86236500D01*
X99752999Y-86236500D01*
X99657329Y-86217470D01*
X99576223Y-86163277D01*
X99522030Y-86082171D01*
X99503000Y-85986501D01*
X99503000Y-85336499D01*
X99522030Y-85240829D01*
X99576223Y-85159723D01*
X99657329Y-85105530D01*
X99752999Y-85086500D01*
X100653001Y-85086500D01*
X100748671Y-85105530D01*
G37*
G04 #@! TD.AperFunction*
G04 #@! TA.AperFunction,SMDPad,CuDef*
G36*
X100748671Y-83055530D02*
G01*
X100829777Y-83109723D01*
X100883970Y-83190829D01*
X100903000Y-83286499D01*
X100903000Y-83936501D01*
X100883970Y-84032171D01*
X100829777Y-84113277D01*
X100748671Y-84167470D01*
X100653001Y-84186500D01*
X99752999Y-84186500D01*
X99657329Y-84167470D01*
X99576223Y-84113277D01*
X99522030Y-84032171D01*
X99503000Y-83936501D01*
X99503000Y-83286499D01*
X99522030Y-83190829D01*
X99576223Y-83109723D01*
X99657329Y-83055530D01*
X99752999Y-83036500D01*
X100653001Y-83036500D01*
X100748671Y-83055530D01*
G37*
G04 #@! TD.AperFunction*
D16*
X100865790Y-91120171D03*
D17*
X94488000Y-86106000D03*
D16*
X113525959Y-91370053D03*
X117919502Y-83693000D03*
X110997999Y-91186000D03*
X102425500Y-82423000D03*
X103657894Y-84036394D03*
X102425500Y-84074000D03*
X104902000Y-85344000D03*
X104901996Y-84074000D03*
X104902000Y-86614000D03*
X106172010Y-87757000D03*
X117919500Y-81851500D03*
X116598800Y-82753300D03*
X112267996Y-81724500D03*
D17*
X113664996Y-82042000D03*
D16*
X112268000Y-83820000D03*
X118554500Y-87414257D03*
X117411502Y-87414257D03*
X114725251Y-86633247D03*
X112268000Y-85070990D03*
X107188000Y-85070990D03*
X111252000Y-87757000D03*
D17*
X112544051Y-87914013D03*
D16*
X120088000Y-84826500D03*
X116006507Y-91183971D03*
X109728001Y-83057997D03*
X109982000Y-87757000D03*
X108712000Y-87757000D03*
X107442000Y-87757000D03*
X103631992Y-87757000D03*
D18*
X102362000Y-80186000D02*
X103632000Y-80186000D01*
X102362000Y-79756000D02*
X100266500Y-79756000D01*
X102362000Y-80186000D02*
X102362000Y-79756000D01*
X100266500Y-79756000D02*
X100203000Y-79692500D01*
X100203000Y-83611500D02*
X100203000Y-81742500D01*
D19*
X100203000Y-87421500D02*
X103296492Y-87421500D01*
X103296492Y-87421500D02*
X103631992Y-87757000D01*
X98742500Y-84201000D02*
X98742500Y-82740500D01*
X100203000Y-85661500D02*
X98742500Y-84201000D01*
X97028000Y-81026000D02*
X97028000Y-81022000D01*
X98742500Y-82740500D02*
X97028000Y-81026000D01*
X99359500Y-87421500D02*
X98679000Y-86741000D01*
X100203000Y-87421500D02*
X99359500Y-87421500D01*
X98679000Y-86741000D02*
X98679000Y-85217000D01*
X98679000Y-85217000D02*
X97028000Y-83566000D01*
X100203000Y-85661500D02*
X102679500Y-85661500D01*
X102679500Y-85661500D02*
X104140000Y-87122000D01*
D18*
X102362000Y-89486000D02*
X100217500Y-89486000D01*
X100217500Y-89486000D02*
X100203000Y-89471500D01*
X100203000Y-89471500D02*
X99568000Y-90106500D01*
X99568000Y-90106500D02*
X99568000Y-92456000D01*
D19*
X102108000Y-92456000D02*
X102108000Y-92362381D01*
X102108000Y-92362381D02*
X100865790Y-91120171D01*
X97028000Y-83566000D02*
X97028000Y-83562000D01*
D18*
X94488000Y-83566000D02*
X94488000Y-79057500D01*
X94488000Y-79057500D02*
X94488000Y-77216000D01*
X97028000Y-86102000D02*
X94488000Y-83562000D01*
X94488000Y-89027000D02*
X94488000Y-90856000D01*
X97028000Y-86102000D02*
X94488000Y-88642000D01*
X94488000Y-88642000D02*
X94488000Y-89027000D01*
X94488000Y-90856000D02*
X94488000Y-92456000D01*
D19*
X112268000Y-92456000D02*
X112440012Y-92456000D01*
X112440012Y-92456000D02*
X113525959Y-91370053D01*
X118745000Y-77216000D02*
X121031000Y-79502000D01*
X117348000Y-77216000D02*
X118745000Y-77216000D01*
X121031000Y-79502000D02*
X121031000Y-80186000D01*
X106406998Y-86379002D02*
X113366502Y-86379002D01*
X104902000Y-87884000D02*
X106406998Y-86379002D01*
X113366502Y-86379002D02*
X115951000Y-88963500D01*
X115951000Y-88963500D02*
X115951000Y-89408000D01*
X117353817Y-83693000D02*
X117919502Y-83693000D01*
X117221000Y-80186000D02*
X117157500Y-80249500D01*
X117157500Y-80249500D02*
X117157500Y-81038718D01*
X115817799Y-83128181D02*
X116382618Y-83693000D01*
X117157500Y-81038718D02*
X115817799Y-82378419D01*
X116382618Y-83693000D02*
X117353817Y-83693000D01*
X115817799Y-82378419D02*
X115817799Y-83128181D01*
X109728000Y-92456000D02*
X109728000Y-92455999D01*
X109728000Y-92455999D02*
X110997999Y-91186000D01*
X108712000Y-81216500D02*
X105854500Y-84074000D01*
X108712000Y-80186000D02*
X108712000Y-81216500D01*
X105854500Y-84074000D02*
X105467681Y-84074000D01*
X105467681Y-84074000D02*
X104901996Y-84074000D01*
X105531185Y-85344000D02*
X109982000Y-80893185D01*
X104902000Y-85344000D02*
X105531185Y-85344000D01*
X109982000Y-80893185D02*
X109982000Y-80186000D01*
X107442000Y-81311000D02*
X105822000Y-82931000D01*
X105822000Y-82931000D02*
X104763288Y-82931000D01*
X107442000Y-80186000D02*
X107442000Y-81311000D01*
X104057893Y-83636395D02*
X103657894Y-84036394D01*
X104763288Y-82931000D02*
X104057893Y-83636395D01*
X105439603Y-82043397D02*
X104456103Y-82043397D01*
X102825499Y-83674001D02*
X102425500Y-84074000D01*
X104456103Y-82043397D02*
X102825499Y-83674001D01*
X106172000Y-81311000D02*
X105439603Y-82043397D01*
X106172000Y-80186000D02*
X106172000Y-81311000D01*
X105301999Y-86214001D02*
X104902000Y-86614000D01*
X122301000Y-89486000D02*
X122301000Y-88361000D01*
X105664000Y-85852000D02*
X105301999Y-86214001D01*
X122301000Y-88361000D02*
X119792000Y-85852000D01*
X119792000Y-85852000D02*
X105664000Y-85852000D01*
X114681000Y-88582500D02*
X112985513Y-86887013D01*
X114681000Y-89422500D02*
X114681000Y-88582500D01*
X106572009Y-87357001D02*
X106172010Y-87757000D01*
X112985513Y-86887013D02*
X107041997Y-86887013D01*
X107041997Y-86887013D02*
X106572009Y-87357001D01*
X117919500Y-81788000D02*
X117919500Y-81851500D01*
X118427500Y-81280000D02*
X117919500Y-81788000D01*
X118491000Y-80186000D02*
X118427500Y-80249500D01*
X118427500Y-80249500D02*
X118427500Y-81280000D01*
X117164485Y-82753300D02*
X116598800Y-82753300D01*
X118318700Y-82753300D02*
X117164485Y-82753300D01*
X119761000Y-80186000D02*
X119761000Y-81311000D01*
X119761000Y-81311000D02*
X118318700Y-82753300D01*
X112268000Y-81724496D02*
X112267996Y-81724500D01*
X112268000Y-77216000D02*
X112268000Y-81724496D01*
D18*
X113411000Y-80186000D02*
X113411000Y-81788004D01*
X113411000Y-81788004D02*
X113664996Y-82042000D01*
D19*
X109728001Y-83121501D02*
X110426500Y-83820000D01*
X109728001Y-83057997D02*
X109728001Y-83121501D01*
X110426500Y-83820000D02*
X112268000Y-83820000D01*
D18*
X102687903Y-90655990D02*
X102593990Y-90655990D01*
X102362000Y-90424000D02*
X102362000Y-89486000D01*
X102593990Y-90655990D02*
X102362000Y-90424000D01*
X103852913Y-91821000D02*
X102687903Y-90655990D01*
X104648000Y-92456000D02*
X104013000Y-91821000D01*
X104013000Y-91821000D02*
X103852913Y-91821000D01*
X99568000Y-92456000D02*
X99568000Y-92056000D01*
X99568000Y-92056000D02*
X98167990Y-90655990D01*
X98167990Y-90655990D02*
X95888010Y-90655990D01*
X95888010Y-90655990D02*
X94488000Y-92056000D01*
X94488000Y-92056000D02*
X94488000Y-92456000D01*
D19*
X118471873Y-89466873D02*
X118471873Y-88474628D01*
X118491000Y-89486000D02*
X118471873Y-89466873D01*
X118471873Y-88474628D02*
X117811501Y-87814256D01*
X117811501Y-87814256D02*
X117411502Y-87414257D01*
X119761000Y-88620757D02*
X118954499Y-87814256D01*
X119761000Y-89486000D02*
X119761000Y-88620757D01*
X118954499Y-87814256D02*
X118554500Y-87414257D01*
X121031000Y-89486000D02*
X121031000Y-88361000D01*
X121031000Y-88361000D02*
X119303247Y-86633247D01*
X119303247Y-86633247D02*
X115290936Y-86633247D01*
X115290936Y-86633247D02*
X114725251Y-86633247D01*
X111702315Y-85070990D02*
X107188000Y-85070990D01*
X112268000Y-85070990D02*
X111702315Y-85070990D01*
X111252000Y-89486000D02*
X111252000Y-87757000D01*
D18*
X113411000Y-89486000D02*
X113411000Y-88780962D01*
X113411000Y-88780962D02*
X112544051Y-87914013D01*
D19*
X107188000Y-92856000D02*
X107188000Y-92456000D01*
D18*
X99568000Y-92856000D02*
X99568000Y-93345000D01*
X104648000Y-93345000D02*
X104648000Y-92456000D01*
D19*
X97173000Y-83312000D02*
X97028000Y-83312000D01*
D18*
X94488000Y-92456000D02*
X94488000Y-92837000D01*
D19*
X114808000Y-92456000D02*
X116006507Y-91257493D01*
X116006507Y-91257493D02*
X116006507Y-91183971D01*
X112268000Y-92456000D02*
X112395000Y-92456000D01*
X109982000Y-89486000D02*
X109982000Y-87757000D01*
X107442000Y-89486000D02*
X107442000Y-87757000D01*
X108712000Y-89486000D02*
X108712000Y-87757000D01*
X103631992Y-88322685D02*
X103631992Y-87757000D01*
X103631992Y-89407992D02*
X103631992Y-88322685D01*
X103632000Y-89408000D02*
X103631992Y-89407992D01*
D18*
X99568000Y-92456000D02*
X99568000Y-92856000D01*
D19*
X104140000Y-87122000D02*
X104902000Y-87884000D01*
D18*
X97536000Y-83312000D02*
X97282000Y-83312000D01*
D19*
X104902000Y-88283000D02*
X104902000Y-89408000D01*
X104902000Y-87884000D02*
X104902000Y-88283000D01*
X97028000Y-77616000D02*
X97028000Y-77216000D01*
D18*
X99400912Y-80867510D02*
X99409510Y-80867510D01*
X98902990Y-80360990D02*
X98902990Y-80369588D01*
X94488000Y-77616000D02*
X95888010Y-79016010D01*
X95888010Y-79016010D02*
X98129510Y-79016010D01*
X98742500Y-79629000D02*
X98742500Y-80200500D01*
X99409510Y-80867510D02*
X100203000Y-81661000D01*
X98902990Y-80369588D02*
X99400912Y-80867510D01*
X98742500Y-80200500D02*
X98902990Y-80360990D01*
X94488000Y-77216000D02*
X94488000Y-77616000D01*
X98129510Y-79016010D02*
X98742500Y-79629000D01*
X114681000Y-80186000D02*
X115951000Y-80186000D01*
X103632000Y-80186000D02*
X104902000Y-80186000D01*
G36*
X125551417Y-75159949D02*
G01*
X125754460Y-75178071D01*
X125905954Y-75219514D01*
X126047738Y-75287141D01*
X126175293Y-75378799D01*
X126284603Y-75491599D01*
X126372215Y-75621981D01*
X126435346Y-75765796D01*
X126472726Y-75921494D01*
X126484967Y-76088171D01*
X126488001Y-76099148D01*
X126488000Y-82136534D01*
X126323491Y-82159654D01*
X126001385Y-82245962D01*
X125692198Y-82370881D01*
X125400541Y-82532550D01*
X125130758Y-82728558D01*
X124886875Y-82955983D01*
X124672526Y-83211434D01*
X124490906Y-83491105D01*
X124344723Y-83790825D01*
X124236156Y-84106125D01*
X124166824Y-84432306D01*
X124137761Y-84764507D01*
X124149399Y-85097771D01*
X124201564Y-85427134D01*
X124293480Y-85747685D01*
X124423778Y-86054645D01*
X124590511Y-86343437D01*
X124791198Y-86609756D01*
X125022845Y-86849634D01*
X125281999Y-87059492D01*
X125564796Y-87236204D01*
X125867020Y-87377134D01*
X126184168Y-87480182D01*
X126488001Y-87539239D01*
X126488000Y-93519009D01*
X126485651Y-93527017D01*
X126467530Y-93730057D01*
X126426085Y-93881556D01*
X126358460Y-94023336D01*
X126266801Y-94150894D01*
X126154004Y-94260201D01*
X126023622Y-94347813D01*
X125879805Y-94410946D01*
X125724106Y-94448326D01*
X125557428Y-94460566D01*
X125546450Y-94463600D01*
X91071216Y-94463600D01*
X91217731Y-94349130D01*
X91453530Y-94113331D01*
X91658833Y-93850555D01*
X91830582Y-93564716D01*
X91966216Y-93260078D01*
X92063713Y-92941180D01*
X92121907Y-92611147D01*
X92134283Y-92138510D01*
X92093442Y-91805882D01*
X92012768Y-91482319D01*
X91921129Y-91243590D01*
X93154164Y-91243590D01*
X93154164Y-93668410D01*
X93192520Y-93861235D01*
X93308775Y-94035225D01*
X93482765Y-94151480D01*
X93675590Y-94189836D01*
X95300410Y-94189836D01*
X95493235Y-94151480D01*
X95667225Y-94035225D01*
X95783480Y-93861235D01*
X95821836Y-93668410D01*
X95821836Y-93408374D01*
X95892565Y-93551796D01*
X96038376Y-93747062D01*
X96217331Y-93912486D01*
X96423435Y-94042528D01*
X96649786Y-94132832D01*
X96888804Y-94180376D01*
X97132481Y-94183566D01*
X97372661Y-94142295D01*
X97601299Y-94057947D01*
X97810737Y-93933345D01*
X97993960Y-93772662D01*
X98144833Y-93581279D01*
X98258303Y-93365608D01*
X98297924Y-93238011D01*
X98324778Y-93333229D01*
X98432565Y-93551796D01*
X98578376Y-93747062D01*
X98757331Y-93912486D01*
X98963435Y-94042528D01*
X99189786Y-94132832D01*
X99428804Y-94180376D01*
X99672481Y-94183566D01*
X99912661Y-94142295D01*
X100141299Y-94057947D01*
X100350737Y-93933345D01*
X100533960Y-93772662D01*
X100684833Y-93581279D01*
X100798303Y-93365608D01*
X100837924Y-93238011D01*
X100864778Y-93333229D01*
X100972565Y-93551796D01*
X101118376Y-93747062D01*
X101297331Y-93912486D01*
X101503435Y-94042528D01*
X101729786Y-94132832D01*
X101968804Y-94180376D01*
X102212481Y-94183566D01*
X102452661Y-94142295D01*
X102681299Y-94057947D01*
X102890737Y-93933345D01*
X103073960Y-93772662D01*
X103224833Y-93581279D01*
X103338303Y-93365608D01*
X103377924Y-93238011D01*
X103404778Y-93333229D01*
X103512565Y-93551796D01*
X103658376Y-93747062D01*
X103837331Y-93912486D01*
X104043435Y-94042528D01*
X104269786Y-94132832D01*
X104508804Y-94180376D01*
X104752481Y-94183566D01*
X104992661Y-94142295D01*
X105221299Y-94057947D01*
X105430737Y-93933345D01*
X105613960Y-93772662D01*
X105764833Y-93581279D01*
X105878303Y-93365608D01*
X105917924Y-93238011D01*
X105944778Y-93333229D01*
X106052565Y-93551796D01*
X106198376Y-93747062D01*
X106377331Y-93912486D01*
X106583435Y-94042528D01*
X106809786Y-94132832D01*
X107048804Y-94180376D01*
X107292481Y-94183566D01*
X107532661Y-94142295D01*
X107761299Y-94057947D01*
X107970737Y-93933345D01*
X108153960Y-93772662D01*
X108304833Y-93581279D01*
X108418303Y-93365608D01*
X108457924Y-93238011D01*
X108484778Y-93333229D01*
X108592565Y-93551796D01*
X108738376Y-93747062D01*
X108917331Y-93912486D01*
X109123435Y-94042528D01*
X109349786Y-94132832D01*
X109588804Y-94180376D01*
X109832481Y-94183566D01*
X110072661Y-94142295D01*
X110301299Y-94057947D01*
X110510737Y-93933345D01*
X110693960Y-93772662D01*
X110844833Y-93581279D01*
X110958303Y-93365608D01*
X110997924Y-93238011D01*
X111024778Y-93333229D01*
X111132565Y-93551796D01*
X111278376Y-93747062D01*
X111457331Y-93912486D01*
X111663435Y-94042528D01*
X111889786Y-94132832D01*
X112128804Y-94180376D01*
X112372481Y-94183566D01*
X112612661Y-94142295D01*
X112841299Y-94057947D01*
X113050737Y-93933345D01*
X113233960Y-93772662D01*
X113384833Y-93581279D01*
X113498303Y-93365608D01*
X113537924Y-93238011D01*
X113564778Y-93333229D01*
X113672565Y-93551796D01*
X113818376Y-93747062D01*
X113997331Y-93912486D01*
X114203435Y-94042528D01*
X114429786Y-94132832D01*
X114668804Y-94180376D01*
X114912481Y-94183566D01*
X115152661Y-94142295D01*
X115381299Y-94057947D01*
X115590737Y-93933345D01*
X115773960Y-93772662D01*
X115924833Y-93581279D01*
X116019794Y-93400787D01*
X116101376Y-93575739D01*
X116245298Y-93781279D01*
X116422722Y-93958703D01*
X116628262Y-94102624D01*
X116855671Y-94208667D01*
X117220000Y-94306289D01*
X117220000Y-92584000D01*
X117476000Y-92584000D01*
X117476000Y-94306288D01*
X117840330Y-94208667D01*
X118067739Y-94102624D01*
X118273279Y-93958703D01*
X118450703Y-93781279D01*
X118594624Y-93575739D01*
X118700667Y-93348330D01*
X118765609Y-93105961D01*
X118782000Y-92918605D01*
X118782000Y-92584000D01*
X117476000Y-92584000D01*
X117220000Y-92584000D01*
X117220000Y-92328000D01*
X118782000Y-92328000D01*
X118782000Y-91993394D01*
X118765609Y-91806038D01*
X118700667Y-91563670D01*
X118594624Y-91336261D01*
X118450703Y-91130721D01*
X118362512Y-91042531D01*
X118646749Y-91042531D01*
X118809612Y-91022230D01*
X119013775Y-90932676D01*
X119126715Y-90828707D01*
X119192125Y-90899762D01*
X119390542Y-91007139D01*
X119602633Y-91042531D01*
X119916749Y-91042531D01*
X120079612Y-91022230D01*
X120283775Y-90932676D01*
X120396715Y-90828707D01*
X120462125Y-90899762D01*
X120660542Y-91007139D01*
X120872633Y-91042531D01*
X121186749Y-91042531D01*
X121349612Y-91022230D01*
X121553775Y-90932676D01*
X121666715Y-90828707D01*
X121732125Y-90899762D01*
X121930542Y-91007139D01*
X122142633Y-91042531D01*
X122456749Y-91042531D01*
X122619612Y-91022230D01*
X122823775Y-90932676D01*
X122989762Y-90779875D01*
X123097139Y-90581458D01*
X123132531Y-90369367D01*
X123132531Y-88605251D01*
X123112230Y-88442388D01*
X123022676Y-88238225D01*
X122911798Y-88117780D01*
X122824098Y-87955243D01*
X122753010Y-87889530D01*
X120303006Y-85439526D01*
X120281650Y-85406453D01*
X120226292Y-85362812D01*
X120215423Y-85351942D01*
X120184199Y-85329629D01*
X120106501Y-85268377D01*
X120093988Y-85265165D01*
X120083248Y-85257489D01*
X119874972Y-85195201D01*
X119778284Y-85199000D01*
X113191568Y-85199000D01*
X113194231Y-84944785D01*
X113125823Y-84699777D01*
X112994397Y-84482766D01*
X112955965Y-84446676D01*
X112981918Y-84423308D01*
X113117861Y-84209096D01*
X113191384Y-83965575D01*
X113194231Y-83693795D01*
X113125823Y-83448787D01*
X112994397Y-83231776D01*
X112809453Y-83058102D01*
X112584617Y-82940561D01*
X112336455Y-82887813D01*
X112083251Y-82903742D01*
X111843656Y-82987179D01*
X111635325Y-83131972D01*
X111606348Y-83167000D01*
X110696982Y-83167000D01*
X110652237Y-83122256D01*
X110654232Y-82931792D01*
X110585824Y-82686784D01*
X110454398Y-82469773D01*
X110269454Y-82296099D01*
X110044618Y-82178558D01*
X109796456Y-82125810D01*
X109664558Y-82134108D01*
X110056135Y-81742531D01*
X110137749Y-81742531D01*
X110300612Y-81722230D01*
X110504775Y-81632676D01*
X110537010Y-81603001D01*
X110657063Y-81714394D01*
X110869996Y-81816937D01*
X111124000Y-81855221D01*
X111124000Y-78515183D01*
X110816124Y-78573438D01*
X110609357Y-78692814D01*
X110540748Y-78766757D01*
X110460414Y-78723284D01*
X110510737Y-78693345D01*
X110693960Y-78532662D01*
X110844833Y-78341279D01*
X110958303Y-78125608D01*
X110997924Y-77998011D01*
X111024778Y-78093229D01*
X111132565Y-78311796D01*
X111278376Y-78507062D01*
X111380000Y-78601002D01*
X111380000Y-81442193D01*
X111370412Y-81463728D01*
X111333349Y-81714712D01*
X111365148Y-81966418D01*
X111463463Y-82200300D01*
X111621052Y-82399128D01*
X111826304Y-82548252D01*
X112064098Y-82636687D01*
X112316914Y-82657916D01*
X112566126Y-82610377D01*
X112754452Y-82516891D01*
X112843992Y-82671979D01*
X113035017Y-82863004D01*
X113268975Y-82998079D01*
X113529921Y-83068000D01*
X113800071Y-83068000D01*
X114061017Y-82998079D01*
X114294975Y-82863004D01*
X114486000Y-82671979D01*
X114621075Y-82438021D01*
X114690996Y-82177075D01*
X114690996Y-81906925D01*
X114621075Y-81645979D01*
X114553000Y-81528069D01*
X114553000Y-80058000D01*
X114809000Y-80058000D01*
X114809000Y-81856817D01*
X115116876Y-81798562D01*
X115320237Y-81681152D01*
X115356063Y-81714394D01*
X115492594Y-81780144D01*
X115405325Y-81867413D01*
X115372251Y-81888769D01*
X115328614Y-81944123D01*
X115317741Y-81954996D01*
X115295431Y-81986217D01*
X115234177Y-82063918D01*
X115230965Y-82076429D01*
X115223288Y-82087171D01*
X115161000Y-82295447D01*
X115164799Y-82392135D01*
X115164799Y-83058517D01*
X115156514Y-83096996D01*
X115164799Y-83166994D01*
X115164799Y-83182370D01*
X115171098Y-83220216D01*
X115182729Y-83318476D01*
X115189305Y-83329596D01*
X115191473Y-83342621D01*
X115294702Y-83533938D01*
X115365764Y-83599626D01*
X115871615Y-84105479D01*
X115892967Y-84138547D01*
X115948320Y-84182183D01*
X115959194Y-84193057D01*
X115990402Y-84215359D01*
X116068116Y-84276622D01*
X116080627Y-84279834D01*
X116091369Y-84287511D01*
X116299645Y-84349799D01*
X116396333Y-84346000D01*
X117255416Y-84346000D01*
X117272558Y-84367628D01*
X117477810Y-84516752D01*
X117715604Y-84605187D01*
X117968420Y-84626416D01*
X118217632Y-84578877D01*
X118444880Y-84466070D01*
X118633420Y-84296308D01*
X118769363Y-84082096D01*
X118842886Y-83838575D01*
X118845733Y-83566795D01*
X118777325Y-83321787D01*
X118739791Y-83259810D01*
X118790170Y-83205310D01*
X120173479Y-81822003D01*
X120206547Y-81800651D01*
X120250181Y-81745300D01*
X120261058Y-81734424D01*
X120283366Y-81703206D01*
X120344620Y-81625505D01*
X120347833Y-81612993D01*
X120355512Y-81602247D01*
X120370207Y-81553110D01*
X120396715Y-81528707D01*
X120462125Y-81599762D01*
X120660542Y-81707139D01*
X120872633Y-81742531D01*
X121186749Y-81742531D01*
X121349612Y-81722230D01*
X121553775Y-81632676D01*
X121586010Y-81603001D01*
X121706063Y-81714394D01*
X121918996Y-81816937D01*
X122173000Y-81855221D01*
X122173000Y-80314000D01*
X122429000Y-80314000D01*
X122429000Y-81856817D01*
X122736876Y-81798562D01*
X122943643Y-81679186D01*
X123104394Y-81505937D01*
X123206937Y-81293005D01*
X123240738Y-81068748D01*
X123240738Y-80314000D01*
X122429000Y-80314000D01*
X122173000Y-80314000D01*
X122173000Y-80058000D01*
X122429000Y-80058000D01*
X123240738Y-80058000D01*
X123240738Y-79300879D01*
X123188562Y-79025124D01*
X123069186Y-78818357D01*
X122895937Y-78657606D01*
X122683004Y-78555063D01*
X122429000Y-78516779D01*
X122429000Y-80058000D01*
X122173000Y-80058000D01*
X122173000Y-78515183D01*
X121865124Y-78573438D01*
X121658357Y-78692814D01*
X121589748Y-78766757D01*
X121401458Y-78664861D01*
X121189367Y-78629469D01*
X121081949Y-78629469D01*
X119256006Y-76803526D01*
X119234650Y-76770453D01*
X119179292Y-76726812D01*
X119168423Y-76715942D01*
X119137199Y-76693629D01*
X119059501Y-76632377D01*
X119046988Y-76629165D01*
X119036248Y-76621489D01*
X118827972Y-76559201D01*
X118731284Y-76563000D01*
X118654461Y-76563000D01*
X118591222Y-76338771D01*
X118483436Y-76120204D01*
X118337625Y-75924938D01*
X118158669Y-75759514D01*
X117952565Y-75629472D01*
X117726214Y-75539168D01*
X117487196Y-75491624D01*
X117243519Y-75488434D01*
X117003339Y-75529705D01*
X116774701Y-75614053D01*
X116565263Y-75738655D01*
X116382039Y-75899338D01*
X116231167Y-76090722D01*
X116117697Y-76306393D01*
X116078076Y-76433990D01*
X116051222Y-76338771D01*
X115943436Y-76120204D01*
X115797625Y-75924938D01*
X115618669Y-75759514D01*
X115412565Y-75629472D01*
X115186214Y-75539168D01*
X114947196Y-75491624D01*
X114703519Y-75488434D01*
X114463339Y-75529705D01*
X114234701Y-75614053D01*
X114025263Y-75738655D01*
X113842039Y-75899338D01*
X113691167Y-76090722D01*
X113577697Y-76306393D01*
X113538076Y-76433990D01*
X113511222Y-76338771D01*
X113403436Y-76120204D01*
X113257625Y-75924938D01*
X113078669Y-75759514D01*
X112872565Y-75629472D01*
X112646214Y-75539168D01*
X112407196Y-75491624D01*
X112163519Y-75488434D01*
X111923339Y-75529705D01*
X111694701Y-75614053D01*
X111485263Y-75738655D01*
X111302039Y-75899338D01*
X111151167Y-76090722D01*
X111037697Y-76306393D01*
X110998076Y-76433990D01*
X110971222Y-76338771D01*
X110863436Y-76120204D01*
X110717625Y-75924938D01*
X110538669Y-75759514D01*
X110332565Y-75629472D01*
X110106214Y-75539168D01*
X109867196Y-75491624D01*
X109623519Y-75488434D01*
X109383339Y-75529705D01*
X109154701Y-75614053D01*
X108945263Y-75738655D01*
X108762039Y-75899338D01*
X108611167Y-76090722D01*
X108497697Y-76306393D01*
X108458076Y-76433990D01*
X108431222Y-76338771D01*
X108323436Y-76120204D01*
X108177625Y-75924938D01*
X107998669Y-75759514D01*
X107792565Y-75629472D01*
X107566214Y-75539168D01*
X107327196Y-75491624D01*
X107083519Y-75488434D01*
X106843339Y-75529705D01*
X106614701Y-75614053D01*
X106405263Y-75738655D01*
X106222039Y-75899338D01*
X106071167Y-76090722D01*
X105957697Y-76306393D01*
X105918076Y-76433990D01*
X105891222Y-76338771D01*
X105783436Y-76120204D01*
X105637625Y-75924938D01*
X105458669Y-75759514D01*
X105252565Y-75629472D01*
X105026214Y-75539168D01*
X104787196Y-75491624D01*
X104543519Y-75488434D01*
X104303339Y-75529705D01*
X104074701Y-75614053D01*
X103865263Y-75738655D01*
X103682039Y-75899338D01*
X103531167Y-76090722D01*
X103417697Y-76306393D01*
X103378076Y-76433990D01*
X103351222Y-76338771D01*
X103243436Y-76120204D01*
X103097625Y-75924938D01*
X102918669Y-75759514D01*
X102712565Y-75629472D01*
X102486214Y-75539168D01*
X102247196Y-75491624D01*
X102003519Y-75488434D01*
X101763339Y-75529705D01*
X101534701Y-75614053D01*
X101325263Y-75738655D01*
X101142039Y-75899338D01*
X100991167Y-76090722D01*
X100877697Y-76306393D01*
X100838076Y-76433990D01*
X100811222Y-76338771D01*
X100703436Y-76120204D01*
X100557625Y-75924938D01*
X100378669Y-75759514D01*
X100172565Y-75629472D01*
X99946214Y-75539168D01*
X99707196Y-75491624D01*
X99463519Y-75488434D01*
X99223339Y-75529705D01*
X98994701Y-75614053D01*
X98785263Y-75738655D01*
X98602039Y-75899338D01*
X98451167Y-76090722D01*
X98337697Y-76306393D01*
X98298076Y-76433990D01*
X98271222Y-76338771D01*
X98163436Y-76120204D01*
X98017625Y-75924938D01*
X97838669Y-75759514D01*
X97632565Y-75629472D01*
X97406214Y-75539168D01*
X97167196Y-75491624D01*
X96923519Y-75488434D01*
X96683339Y-75529705D01*
X96454701Y-75614053D01*
X96245263Y-75738655D01*
X96062039Y-75899338D01*
X95911167Y-76090722D01*
X95797697Y-76306393D01*
X95758076Y-76433990D01*
X95731222Y-76338771D01*
X95623436Y-76120204D01*
X95477625Y-75924938D01*
X95298669Y-75759514D01*
X95092565Y-75629472D01*
X94866214Y-75539168D01*
X94627196Y-75491624D01*
X94383519Y-75488434D01*
X94143339Y-75529705D01*
X93914701Y-75614053D01*
X93705263Y-75738655D01*
X93522039Y-75899338D01*
X93371167Y-76090722D01*
X93257697Y-76306393D01*
X93185182Y-76539925D01*
X93162000Y-76760494D01*
X93162000Y-77677716D01*
X93178628Y-77858677D01*
X93244778Y-78093229D01*
X93352565Y-78311796D01*
X93498376Y-78507062D01*
X93677331Y-78672486D01*
X93762000Y-78725908D01*
X93762000Y-79115148D01*
X93762001Y-79115154D01*
X93762000Y-83623648D01*
X93762001Y-83623654D01*
X93762001Y-83676986D01*
X93778639Y-83728192D01*
X93788926Y-83793142D01*
X93818780Y-83851733D01*
X93833067Y-83895706D01*
X93860246Y-83933114D01*
X93893332Y-83998050D01*
X94055950Y-84160669D01*
X94064109Y-84164826D01*
X95685812Y-85786530D01*
X95675152Y-85821838D01*
X95646921Y-86065836D01*
X95662344Y-86310975D01*
X95687971Y-86415309D01*
X94056298Y-88046984D01*
X94056296Y-88046985D01*
X93893332Y-88209950D01*
X93867068Y-88261495D01*
X93833067Y-88308294D01*
X93815190Y-88363314D01*
X93788926Y-88414859D01*
X93779874Y-88472005D01*
X93762001Y-88527014D01*
X93762001Y-88584346D01*
X93762000Y-88584352D01*
X93762000Y-88979780D01*
X93762001Y-90722164D01*
X93675590Y-90722164D01*
X93482765Y-90760520D01*
X93308775Y-90876775D01*
X93192520Y-91050765D01*
X93154164Y-91243590D01*
X91921129Y-91243590D01*
X91893264Y-91171000D01*
X91736709Y-90876565D01*
X91545440Y-90603404D01*
X91322307Y-90355588D01*
X91078442Y-90143600D01*
X91670591Y-90143600D01*
X91709819Y-90148452D01*
X91920096Y-90133009D01*
X91938378Y-90127956D01*
X91957330Y-90127211D01*
X92201016Y-90068708D01*
X92220985Y-90059502D01*
X92242456Y-90054761D01*
X92471931Y-89954028D01*
X92489953Y-89941432D01*
X92510244Y-89932965D01*
X92718257Y-89793188D01*
X92733763Y-89777600D01*
X92752233Y-89765674D01*
X92932206Y-89591269D01*
X92944708Y-89573179D01*
X92960774Y-89558172D01*
X93107016Y-89354654D01*
X93116116Y-89334640D01*
X93129273Y-89317021D01*
X93237165Y-89090822D01*
X93242577Y-89069509D01*
X93252404Y-89049842D01*
X93318534Y-88808112D01*
X93320086Y-88786183D01*
X93326277Y-88765082D01*
X93348555Y-88515462D01*
X93344000Y-88473184D01*
X93344000Y-81151009D01*
X93348851Y-81111783D01*
X93333410Y-80901504D01*
X93328357Y-80883222D01*
X93327612Y-80864271D01*
X93269108Y-80620584D01*
X93259902Y-80600615D01*
X93255161Y-80579144D01*
X93154429Y-80349670D01*
X93141836Y-80331651D01*
X93133366Y-80311355D01*
X92993589Y-80103346D01*
X92978001Y-80087839D01*
X92966072Y-80069364D01*
X92791670Y-79889396D01*
X92773582Y-79876894D01*
X92758571Y-79860825D01*
X92555054Y-79714583D01*
X92535041Y-79705484D01*
X92517422Y-79692327D01*
X92291221Y-79584435D01*
X92269910Y-79579023D01*
X92250243Y-79569196D01*
X92008512Y-79503066D01*
X91986583Y-79501514D01*
X91965482Y-79495323D01*
X91715862Y-79473045D01*
X91673584Y-79477600D01*
X91071216Y-79477600D01*
X91217731Y-79363130D01*
X91453530Y-79127331D01*
X91658833Y-78864555D01*
X91830582Y-78578716D01*
X91966216Y-78274078D01*
X92063713Y-77955180D01*
X92121907Y-77625147D01*
X92134283Y-77152510D01*
X92093442Y-76819882D01*
X92012768Y-76496319D01*
X91893264Y-76185000D01*
X91736709Y-75890565D01*
X91545440Y-75617404D01*
X91322307Y-75369588D01*
X91078442Y-75157600D01*
X125543409Y-75157600D01*
X125551417Y-75159949D01*
G37*
D19*
X125551417Y-75159949D02*
X125754460Y-75178071D01*
X125905954Y-75219514D01*
X126047738Y-75287141D01*
X126175293Y-75378799D01*
X126284603Y-75491599D01*
X126372215Y-75621981D01*
X126435346Y-75765796D01*
X126472726Y-75921494D01*
X126484967Y-76088171D01*
X126488001Y-76099148D01*
X126488000Y-82136534D01*
X126323491Y-82159654D01*
X126001385Y-82245962D01*
X125692198Y-82370881D01*
X125400541Y-82532550D01*
X125130758Y-82728558D01*
X124886875Y-82955983D01*
X124672526Y-83211434D01*
X124490906Y-83491105D01*
X124344723Y-83790825D01*
X124236156Y-84106125D01*
X124166824Y-84432306D01*
X124137761Y-84764507D01*
X124149399Y-85097771D01*
X124201564Y-85427134D01*
X124293480Y-85747685D01*
X124423778Y-86054645D01*
X124590511Y-86343437D01*
X124791198Y-86609756D01*
X125022845Y-86849634D01*
X125281999Y-87059492D01*
X125564796Y-87236204D01*
X125867020Y-87377134D01*
X126184168Y-87480182D01*
X126488001Y-87539239D01*
X126488000Y-93519009D01*
X126485651Y-93527017D01*
X126467530Y-93730057D01*
X126426085Y-93881556D01*
X126358460Y-94023336D01*
X126266801Y-94150894D01*
X126154004Y-94260201D01*
X126023622Y-94347813D01*
X125879805Y-94410946D01*
X125724106Y-94448326D01*
X125557428Y-94460566D01*
X125546450Y-94463600D01*
X91071216Y-94463600D01*
X91217731Y-94349130D01*
X91453530Y-94113331D01*
X91658833Y-93850555D01*
X91830582Y-93564716D01*
X91966216Y-93260078D01*
X92063713Y-92941180D01*
X92121907Y-92611147D01*
X92134283Y-92138510D01*
X92093442Y-91805882D01*
X92012768Y-91482319D01*
X91921129Y-91243590D01*
X93154164Y-91243590D01*
X93154164Y-93668410D01*
X93192520Y-93861235D01*
X93308775Y-94035225D01*
X93482765Y-94151480D01*
X93675590Y-94189836D01*
X95300410Y-94189836D01*
X95493235Y-94151480D01*
X95667225Y-94035225D01*
X95783480Y-93861235D01*
X95821836Y-93668410D01*
X95821836Y-93408374D01*
X95892565Y-93551796D01*
X96038376Y-93747062D01*
X96217331Y-93912486D01*
X96423435Y-94042528D01*
X96649786Y-94132832D01*
X96888804Y-94180376D01*
X97132481Y-94183566D01*
X97372661Y-94142295D01*
X97601299Y-94057947D01*
X97810737Y-93933345D01*
X97993960Y-93772662D01*
X98144833Y-93581279D01*
X98258303Y-93365608D01*
X98297924Y-93238011D01*
X98324778Y-93333229D01*
X98432565Y-93551796D01*
X98578376Y-93747062D01*
X98757331Y-93912486D01*
X98963435Y-94042528D01*
X99189786Y-94132832D01*
X99428804Y-94180376D01*
X99672481Y-94183566D01*
X99912661Y-94142295D01*
X100141299Y-94057947D01*
X100350737Y-93933345D01*
X100533960Y-93772662D01*
X100684833Y-93581279D01*
X100798303Y-93365608D01*
X100837924Y-93238011D01*
X100864778Y-93333229D01*
X100972565Y-93551796D01*
X101118376Y-93747062D01*
X101297331Y-93912486D01*
X101503435Y-94042528D01*
X101729786Y-94132832D01*
X101968804Y-94180376D01*
X102212481Y-94183566D01*
X102452661Y-94142295D01*
X102681299Y-94057947D01*
X102890737Y-93933345D01*
X103073960Y-93772662D01*
X103224833Y-93581279D01*
X103338303Y-93365608D01*
X103377924Y-93238011D01*
X103404778Y-93333229D01*
X103512565Y-93551796D01*
X103658376Y-93747062D01*
X103837331Y-93912486D01*
X104043435Y-94042528D01*
X104269786Y-94132832D01*
X104508804Y-94180376D01*
X104752481Y-94183566D01*
X104992661Y-94142295D01*
X105221299Y-94057947D01*
X105430737Y-93933345D01*
X105613960Y-93772662D01*
X105764833Y-93581279D01*
X105878303Y-93365608D01*
X105917924Y-93238011D01*
X105944778Y-93333229D01*
X106052565Y-93551796D01*
X106198376Y-93747062D01*
X106377331Y-93912486D01*
X106583435Y-94042528D01*
X106809786Y-94132832D01*
X107048804Y-94180376D01*
X107292481Y-94183566D01*
X107532661Y-94142295D01*
X107761299Y-94057947D01*
X107970737Y-93933345D01*
X108153960Y-93772662D01*
X108304833Y-93581279D01*
X108418303Y-93365608D01*
X108457924Y-93238011D01*
X108484778Y-93333229D01*
X108592565Y-93551796D01*
X108738376Y-93747062D01*
X108917331Y-93912486D01*
X109123435Y-94042528D01*
X109349786Y-94132832D01*
X109588804Y-94180376D01*
X109832481Y-94183566D01*
X110072661Y-94142295D01*
X110301299Y-94057947D01*
X110510737Y-93933345D01*
X110693960Y-93772662D01*
X110844833Y-93581279D01*
X110958303Y-93365608D01*
X110997924Y-93238011D01*
X111024778Y-93333229D01*
X111132565Y-93551796D01*
X111278376Y-93747062D01*
X111457331Y-93912486D01*
X111663435Y-94042528D01*
X111889786Y-94132832D01*
X112128804Y-94180376D01*
X112372481Y-94183566D01*
X112612661Y-94142295D01*
X112841299Y-94057947D01*
X113050737Y-93933345D01*
X113233960Y-93772662D01*
X113384833Y-93581279D01*
X113498303Y-93365608D01*
X113537924Y-93238011D01*
X113564778Y-93333229D01*
X113672565Y-93551796D01*
X113818376Y-93747062D01*
X113997331Y-93912486D01*
X114203435Y-94042528D01*
X114429786Y-94132832D01*
X114668804Y-94180376D01*
X114912481Y-94183566D01*
X115152661Y-94142295D01*
X115381299Y-94057947D01*
X115590737Y-93933345D01*
X115773960Y-93772662D01*
X115924833Y-93581279D01*
X116019794Y-93400787D01*
X116101376Y-93575739D01*
X116245298Y-93781279D01*
X116422722Y-93958703D01*
X116628262Y-94102624D01*
X116855671Y-94208667D01*
X117220000Y-94306289D01*
X117220000Y-92584000D01*
X117476000Y-92584000D01*
X117476000Y-94306288D01*
X117840330Y-94208667D01*
X118067739Y-94102624D01*
X118273279Y-93958703D01*
X118450703Y-93781279D01*
X118594624Y-93575739D01*
X118700667Y-93348330D01*
X118765609Y-93105961D01*
X118782000Y-92918605D01*
X118782000Y-92584000D01*
X117476000Y-92584000D01*
X117220000Y-92584000D01*
X117220000Y-92328000D01*
X118782000Y-92328000D01*
X118782000Y-91993394D01*
X118765609Y-91806038D01*
X118700667Y-91563670D01*
X118594624Y-91336261D01*
X118450703Y-91130721D01*
X118362512Y-91042531D01*
X118646749Y-91042531D01*
X118809612Y-91022230D01*
X119013775Y-90932676D01*
X119126715Y-90828707D01*
X119192125Y-90899762D01*
X119390542Y-91007139D01*
X119602633Y-91042531D01*
X119916749Y-91042531D01*
X120079612Y-91022230D01*
X120283775Y-90932676D01*
X120396715Y-90828707D01*
X120462125Y-90899762D01*
X120660542Y-91007139D01*
X120872633Y-91042531D01*
X121186749Y-91042531D01*
X121349612Y-91022230D01*
X121553775Y-90932676D01*
X121666715Y-90828707D01*
X121732125Y-90899762D01*
X121930542Y-91007139D01*
X122142633Y-91042531D01*
X122456749Y-91042531D01*
X122619612Y-91022230D01*
X122823775Y-90932676D01*
X122989762Y-90779875D01*
X123097139Y-90581458D01*
X123132531Y-90369367D01*
X123132531Y-88605251D01*
X123112230Y-88442388D01*
X123022676Y-88238225D01*
X122911798Y-88117780D01*
X122824098Y-87955243D01*
X122753010Y-87889530D01*
X120303006Y-85439526D01*
X120281650Y-85406453D01*
X120226292Y-85362812D01*
X120215423Y-85351942D01*
X120184199Y-85329629D01*
X120106501Y-85268377D01*
X120093988Y-85265165D01*
X120083248Y-85257489D01*
X119874972Y-85195201D01*
X119778284Y-85199000D01*
X113191568Y-85199000D01*
X113194231Y-84944785D01*
X113125823Y-84699777D01*
X112994397Y-84482766D01*
X112955965Y-84446676D01*
X112981918Y-84423308D01*
X113117861Y-84209096D01*
X113191384Y-83965575D01*
X113194231Y-83693795D01*
X113125823Y-83448787D01*
X112994397Y-83231776D01*
X112809453Y-83058102D01*
X112584617Y-82940561D01*
X112336455Y-82887813D01*
X112083251Y-82903742D01*
X111843656Y-82987179D01*
X111635325Y-83131972D01*
X111606348Y-83167000D01*
X110696982Y-83167000D01*
X110652237Y-83122256D01*
X110654232Y-82931792D01*
X110585824Y-82686784D01*
X110454398Y-82469773D01*
X110269454Y-82296099D01*
X110044618Y-82178558D01*
X109796456Y-82125810D01*
X109664558Y-82134108D01*
X110056135Y-81742531D01*
X110137749Y-81742531D01*
X110300612Y-81722230D01*
X110504775Y-81632676D01*
X110537010Y-81603001D01*
X110657063Y-81714394D01*
X110869996Y-81816937D01*
X111124000Y-81855221D01*
X111124000Y-78515183D01*
X110816124Y-78573438D01*
X110609357Y-78692814D01*
X110540748Y-78766757D01*
X110460414Y-78723284D01*
X110510737Y-78693345D01*
X110693960Y-78532662D01*
X110844833Y-78341279D01*
X110958303Y-78125608D01*
X110997924Y-77998011D01*
X111024778Y-78093229D01*
X111132565Y-78311796D01*
X111278376Y-78507062D01*
X111380000Y-78601002D01*
X111380000Y-81442193D01*
X111370412Y-81463728D01*
X111333349Y-81714712D01*
X111365148Y-81966418D01*
X111463463Y-82200300D01*
X111621052Y-82399128D01*
X111826304Y-82548252D01*
X112064098Y-82636687D01*
X112316914Y-82657916D01*
X112566126Y-82610377D01*
X112754452Y-82516891D01*
X112843992Y-82671979D01*
X113035017Y-82863004D01*
X113268975Y-82998079D01*
X113529921Y-83068000D01*
X113800071Y-83068000D01*
X114061017Y-82998079D01*
X114294975Y-82863004D01*
X114486000Y-82671979D01*
X114621075Y-82438021D01*
X114690996Y-82177075D01*
X114690996Y-81906925D01*
X114621075Y-81645979D01*
X114553000Y-81528069D01*
X114553000Y-80058000D01*
X114809000Y-80058000D01*
X114809000Y-81856817D01*
X115116876Y-81798562D01*
X115320237Y-81681152D01*
X115356063Y-81714394D01*
X115492594Y-81780144D01*
X115405325Y-81867413D01*
X115372251Y-81888769D01*
X115328614Y-81944123D01*
X115317741Y-81954996D01*
X115295431Y-81986217D01*
X115234177Y-82063918D01*
X115230965Y-82076429D01*
X115223288Y-82087171D01*
X115161000Y-82295447D01*
X115164799Y-82392135D01*
X115164799Y-83058517D01*
X115156514Y-83096996D01*
X115164799Y-83166994D01*
X115164799Y-83182370D01*
X115171098Y-83220216D01*
X115182729Y-83318476D01*
X115189305Y-83329596D01*
X115191473Y-83342621D01*
X115294702Y-83533938D01*
X115365764Y-83599626D01*
X115871615Y-84105479D01*
X115892967Y-84138547D01*
X115948320Y-84182183D01*
X115959194Y-84193057D01*
X115990402Y-84215359D01*
X116068116Y-84276622D01*
X116080627Y-84279834D01*
X116091369Y-84287511D01*
X116299645Y-84349799D01*
X116396333Y-84346000D01*
X117255416Y-84346000D01*
X117272558Y-84367628D01*
X117477810Y-84516752D01*
X117715604Y-84605187D01*
X117968420Y-84626416D01*
X118217632Y-84578877D01*
X118444880Y-84466070D01*
X118633420Y-84296308D01*
X118769363Y-84082096D01*
X118842886Y-83838575D01*
X118845733Y-83566795D01*
X118777325Y-83321787D01*
X118739791Y-83259810D01*
X118790170Y-83205310D01*
X120173479Y-81822003D01*
X120206547Y-81800651D01*
X120250181Y-81745300D01*
X120261058Y-81734424D01*
X120283366Y-81703206D01*
X120344620Y-81625505D01*
X120347833Y-81612993D01*
X120355512Y-81602247D01*
X120370207Y-81553110D01*
X120396715Y-81528707D01*
X120462125Y-81599762D01*
X120660542Y-81707139D01*
X120872633Y-81742531D01*
X121186749Y-81742531D01*
X121349612Y-81722230D01*
X121553775Y-81632676D01*
X121586010Y-81603001D01*
X121706063Y-81714394D01*
X121918996Y-81816937D01*
X122173000Y-81855221D01*
X122173000Y-80314000D01*
X122429000Y-80314000D01*
X122429000Y-81856817D01*
X122736876Y-81798562D01*
X122943643Y-81679186D01*
X123104394Y-81505937D01*
X123206937Y-81293005D01*
X123240738Y-81068748D01*
X123240738Y-80314000D01*
X122429000Y-80314000D01*
X122173000Y-80314000D01*
X122173000Y-80058000D01*
X122429000Y-80058000D01*
X123240738Y-80058000D01*
X123240738Y-79300879D01*
X123188562Y-79025124D01*
X123069186Y-78818357D01*
X122895937Y-78657606D01*
X122683004Y-78555063D01*
X122429000Y-78516779D01*
X122429000Y-80058000D01*
X122173000Y-80058000D01*
X122173000Y-78515183D01*
X121865124Y-78573438D01*
X121658357Y-78692814D01*
X121589748Y-78766757D01*
X121401458Y-78664861D01*
X121189367Y-78629469D01*
X121081949Y-78629469D01*
X119256006Y-76803526D01*
X119234650Y-76770453D01*
X119179292Y-76726812D01*
X119168423Y-76715942D01*
X119137199Y-76693629D01*
X119059501Y-76632377D01*
X119046988Y-76629165D01*
X119036248Y-76621489D01*
X118827972Y-76559201D01*
X118731284Y-76563000D01*
X118654461Y-76563000D01*
X118591222Y-76338771D01*
X118483436Y-76120204D01*
X118337625Y-75924938D01*
X118158669Y-75759514D01*
X117952565Y-75629472D01*
X117726214Y-75539168D01*
X117487196Y-75491624D01*
X117243519Y-75488434D01*
X117003339Y-75529705D01*
X116774701Y-75614053D01*
X116565263Y-75738655D01*
X116382039Y-75899338D01*
X116231167Y-76090722D01*
X116117697Y-76306393D01*
X116078076Y-76433990D01*
X116051222Y-76338771D01*
X115943436Y-76120204D01*
X115797625Y-75924938D01*
X115618669Y-75759514D01*
X115412565Y-75629472D01*
X115186214Y-75539168D01*
X114947196Y-75491624D01*
X114703519Y-75488434D01*
X114463339Y-75529705D01*
X114234701Y-75614053D01*
X114025263Y-75738655D01*
X113842039Y-75899338D01*
X113691167Y-76090722D01*
X113577697Y-76306393D01*
X113538076Y-76433990D01*
X113511222Y-76338771D01*
X113403436Y-76120204D01*
X113257625Y-75924938D01*
X113078669Y-75759514D01*
X112872565Y-75629472D01*
X112646214Y-75539168D01*
X112407196Y-75491624D01*
X112163519Y-75488434D01*
X111923339Y-75529705D01*
X111694701Y-75614053D01*
X111485263Y-75738655D01*
X111302039Y-75899338D01*
X111151167Y-76090722D01*
X111037697Y-76306393D01*
X110998076Y-76433990D01*
X110971222Y-76338771D01*
X110863436Y-76120204D01*
X110717625Y-75924938D01*
X110538669Y-75759514D01*
X110332565Y-75629472D01*
X110106214Y-75539168D01*
X109867196Y-75491624D01*
X109623519Y-75488434D01*
X109383339Y-75529705D01*
X109154701Y-75614053D01*
X108945263Y-75738655D01*
X108762039Y-75899338D01*
X108611167Y-76090722D01*
X108497697Y-76306393D01*
X108458076Y-76433990D01*
X108431222Y-76338771D01*
X108323436Y-76120204D01*
X108177625Y-75924938D01*
X107998669Y-75759514D01*
X107792565Y-75629472D01*
X107566214Y-75539168D01*
X107327196Y-75491624D01*
X107083519Y-75488434D01*
X106843339Y-75529705D01*
X106614701Y-75614053D01*
X106405263Y-75738655D01*
X106222039Y-75899338D01*
X106071167Y-76090722D01*
X105957697Y-76306393D01*
X105918076Y-76433990D01*
X105891222Y-76338771D01*
X105783436Y-76120204D01*
X105637625Y-75924938D01*
X105458669Y-75759514D01*
X105252565Y-75629472D01*
X105026214Y-75539168D01*
X104787196Y-75491624D01*
X104543519Y-75488434D01*
X104303339Y-75529705D01*
X104074701Y-75614053D01*
X103865263Y-75738655D01*
X103682039Y-75899338D01*
X103531167Y-76090722D01*
X103417697Y-76306393D01*
X103378076Y-76433990D01*
X103351222Y-76338771D01*
X103243436Y-76120204D01*
X103097625Y-75924938D01*
X102918669Y-75759514D01*
X102712565Y-75629472D01*
X102486214Y-75539168D01*
X102247196Y-75491624D01*
X102003519Y-75488434D01*
X101763339Y-75529705D01*
X101534701Y-75614053D01*
X101325263Y-75738655D01*
X101142039Y-75899338D01*
X100991167Y-76090722D01*
X100877697Y-76306393D01*
X100838076Y-76433990D01*
X100811222Y-76338771D01*
X100703436Y-76120204D01*
X100557625Y-75924938D01*
X100378669Y-75759514D01*
X100172565Y-75629472D01*
X99946214Y-75539168D01*
X99707196Y-75491624D01*
X99463519Y-75488434D01*
X99223339Y-75529705D01*
X98994701Y-75614053D01*
X98785263Y-75738655D01*
X98602039Y-75899338D01*
X98451167Y-76090722D01*
X98337697Y-76306393D01*
X98298076Y-76433990D01*
X98271222Y-76338771D01*
X98163436Y-76120204D01*
X98017625Y-75924938D01*
X97838669Y-75759514D01*
X97632565Y-75629472D01*
X97406214Y-75539168D01*
X97167196Y-75491624D01*
X96923519Y-75488434D01*
X96683339Y-75529705D01*
X96454701Y-75614053D01*
X96245263Y-75738655D01*
X96062039Y-75899338D01*
X95911167Y-76090722D01*
X95797697Y-76306393D01*
X95758076Y-76433990D01*
X95731222Y-76338771D01*
X95623436Y-76120204D01*
X95477625Y-75924938D01*
X95298669Y-75759514D01*
X95092565Y-75629472D01*
X94866214Y-75539168D01*
X94627196Y-75491624D01*
X94383519Y-75488434D01*
X94143339Y-75529705D01*
X93914701Y-75614053D01*
X93705263Y-75738655D01*
X93522039Y-75899338D01*
X93371167Y-76090722D01*
X93257697Y-76306393D01*
X93185182Y-76539925D01*
X93162000Y-76760494D01*
X93162000Y-77677716D01*
X93178628Y-77858677D01*
X93244778Y-78093229D01*
X93352565Y-78311796D01*
X93498376Y-78507062D01*
X93677331Y-78672486D01*
X93762000Y-78725908D01*
X93762000Y-79115148D01*
X93762001Y-79115154D01*
X93762000Y-83623648D01*
X93762001Y-83623654D01*
X93762001Y-83676986D01*
X93778639Y-83728192D01*
X93788926Y-83793142D01*
X93818780Y-83851733D01*
X93833067Y-83895706D01*
X93860246Y-83933114D01*
X93893332Y-83998050D01*
X94055950Y-84160669D01*
X94064109Y-84164826D01*
X95685812Y-85786530D01*
X95675152Y-85821838D01*
X95646921Y-86065836D01*
X95662344Y-86310975D01*
X95687971Y-86415309D01*
X94056298Y-88046984D01*
X94056296Y-88046985D01*
X93893332Y-88209950D01*
X93867068Y-88261495D01*
X93833067Y-88308294D01*
X93815190Y-88363314D01*
X93788926Y-88414859D01*
X93779874Y-88472005D01*
X93762001Y-88527014D01*
X93762001Y-88584346D01*
X93762000Y-88584352D01*
X93762000Y-88979780D01*
X93762001Y-90722164D01*
X93675590Y-90722164D01*
X93482765Y-90760520D01*
X93308775Y-90876775D01*
X93192520Y-91050765D01*
X93154164Y-91243590D01*
X91921129Y-91243590D01*
X91893264Y-91171000D01*
X91736709Y-90876565D01*
X91545440Y-90603404D01*
X91322307Y-90355588D01*
X91078442Y-90143600D01*
X91670591Y-90143600D01*
X91709819Y-90148452D01*
X91920096Y-90133009D01*
X91938378Y-90127956D01*
X91957330Y-90127211D01*
X92201016Y-90068708D01*
X92220985Y-90059502D01*
X92242456Y-90054761D01*
X92471931Y-89954028D01*
X92489953Y-89941432D01*
X92510244Y-89932965D01*
X92718257Y-89793188D01*
X92733763Y-89777600D01*
X92752233Y-89765674D01*
X92932206Y-89591269D01*
X92944708Y-89573179D01*
X92960774Y-89558172D01*
X93107016Y-89354654D01*
X93116116Y-89334640D01*
X93129273Y-89317021D01*
X93237165Y-89090822D01*
X93242577Y-89069509D01*
X93252404Y-89049842D01*
X93318534Y-88808112D01*
X93320086Y-88786183D01*
X93326277Y-88765082D01*
X93348555Y-88515462D01*
X93344000Y-88473184D01*
X93344000Y-81151009D01*
X93348851Y-81111783D01*
X93333410Y-80901504D01*
X93328357Y-80883222D01*
X93327612Y-80864271D01*
X93269108Y-80620584D01*
X93259902Y-80600615D01*
X93255161Y-80579144D01*
X93154429Y-80349670D01*
X93141836Y-80331651D01*
X93133366Y-80311355D01*
X92993589Y-80103346D01*
X92978001Y-80087839D01*
X92966072Y-80069364D01*
X92791670Y-79889396D01*
X92773582Y-79876894D01*
X92758571Y-79860825D01*
X92555054Y-79714583D01*
X92535041Y-79705484D01*
X92517422Y-79692327D01*
X92291221Y-79584435D01*
X92269910Y-79579023D01*
X92250243Y-79569196D01*
X92008512Y-79503066D01*
X91986583Y-79501514D01*
X91965482Y-79495323D01*
X91715862Y-79473045D01*
X91673584Y-79477600D01*
X91071216Y-79477600D01*
X91217731Y-79363130D01*
X91453530Y-79127331D01*
X91658833Y-78864555D01*
X91830582Y-78578716D01*
X91966216Y-78274078D01*
X92063713Y-77955180D01*
X92121907Y-77625147D01*
X92134283Y-77152510D01*
X92093442Y-76819882D01*
X92012768Y-76496319D01*
X91893264Y-76185000D01*
X91736709Y-75890565D01*
X91545440Y-75617404D01*
X91322307Y-75369588D01*
X91078442Y-75157600D01*
X125543409Y-75157600D01*
X125551417Y-75159949D01*
G36*
X98155902Y-87146757D02*
G01*
X98226990Y-87212470D01*
X98848496Y-87833977D01*
X98869850Y-87867047D01*
X98925208Y-87910688D01*
X98936076Y-87921557D01*
X98967292Y-87943865D01*
X99015283Y-87981697D01*
X99024099Y-88028291D01*
X99142269Y-88232969D01*
X99313750Y-88392080D01*
X99423699Y-88445029D01*
X99266531Y-88535769D01*
X99107420Y-88707250D01*
X99005924Y-88918009D01*
X98972482Y-89139881D01*
X98972482Y-89676118D01*
X98947068Y-89725995D01*
X98913067Y-89772794D01*
X98895190Y-89827814D01*
X98868926Y-89879359D01*
X98859874Y-89936505D01*
X98842001Y-89991514D01*
X98842001Y-90048846D01*
X98842000Y-90048852D01*
X98842000Y-90303283D01*
X98763007Y-90224290D01*
X98763005Y-90224286D01*
X98600041Y-90061322D01*
X98548492Y-90035056D01*
X98501696Y-90001057D01*
X98446679Y-89983181D01*
X98395132Y-89956916D01*
X98337986Y-89947865D01*
X98282976Y-89929991D01*
X98225645Y-89929991D01*
X98225639Y-89929990D01*
X97765505Y-89929990D01*
X97892877Y-89854512D01*
X98084807Y-89691455D01*
X98246521Y-89498391D01*
X98373393Y-89280840D01*
X98461796Y-89045022D01*
X98514508Y-88770000D01*
X95530668Y-88770000D01*
X95618096Y-89121970D01*
X95719123Y-89352662D01*
X95857575Y-89563033D01*
X96029493Y-89747071D01*
X96229960Y-89899510D01*
X96288388Y-89929990D01*
X95830361Y-89929990D01*
X95830355Y-89929991D01*
X95773022Y-89929991D01*
X95718013Y-89947864D01*
X95660867Y-89956916D01*
X95609322Y-89983180D01*
X95554303Y-90001057D01*
X95507504Y-90035058D01*
X95455959Y-90061322D01*
X95214000Y-90303282D01*
X95214000Y-88942718D01*
X95642719Y-88514000D01*
X98511565Y-88514000D01*
X98469922Y-88269094D01*
X98386477Y-88031476D01*
X98264188Y-87811315D01*
X98106554Y-87614907D01*
X97918080Y-87447866D01*
X97704156Y-87314969D01*
X97691359Y-87309760D01*
X97737484Y-87287462D01*
X97936198Y-87143087D01*
X98075528Y-86997797D01*
X98155902Y-87146757D01*
G37*
X98155902Y-87146757D02*
X98226990Y-87212470D01*
X98848496Y-87833977D01*
X98869850Y-87867047D01*
X98925208Y-87910688D01*
X98936076Y-87921557D01*
X98967292Y-87943865D01*
X99015283Y-87981697D01*
X99024099Y-88028291D01*
X99142269Y-88232969D01*
X99313750Y-88392080D01*
X99423699Y-88445029D01*
X99266531Y-88535769D01*
X99107420Y-88707250D01*
X99005924Y-88918009D01*
X98972482Y-89139881D01*
X98972482Y-89676118D01*
X98947068Y-89725995D01*
X98913067Y-89772794D01*
X98895190Y-89827814D01*
X98868926Y-89879359D01*
X98859874Y-89936505D01*
X98842001Y-89991514D01*
X98842001Y-90048846D01*
X98842000Y-90048852D01*
X98842000Y-90303283D01*
X98763007Y-90224290D01*
X98763005Y-90224286D01*
X98600041Y-90061322D01*
X98548492Y-90035056D01*
X98501696Y-90001057D01*
X98446679Y-89983181D01*
X98395132Y-89956916D01*
X98337986Y-89947865D01*
X98282976Y-89929991D01*
X98225645Y-89929991D01*
X98225639Y-89929990D01*
X97765505Y-89929990D01*
X97892877Y-89854512D01*
X98084807Y-89691455D01*
X98246521Y-89498391D01*
X98373393Y-89280840D01*
X98461796Y-89045022D01*
X98514508Y-88770000D01*
X95530668Y-88770000D01*
X95618096Y-89121970D01*
X95719123Y-89352662D01*
X95857575Y-89563033D01*
X96029493Y-89747071D01*
X96229960Y-89899510D01*
X96288388Y-89929990D01*
X95830361Y-89929990D01*
X95830355Y-89929991D01*
X95773022Y-89929991D01*
X95718013Y-89947864D01*
X95660867Y-89956916D01*
X95609322Y-89983180D01*
X95554303Y-90001057D01*
X95507504Y-90035058D01*
X95455959Y-90061322D01*
X95214000Y-90303282D01*
X95214000Y-88942718D01*
X95642719Y-88514000D01*
X98511565Y-88514000D01*
X98469922Y-88269094D01*
X98386477Y-88031476D01*
X98264188Y-87811315D01*
X98106554Y-87614907D01*
X97918080Y-87447866D01*
X97704156Y-87314969D01*
X97691359Y-87309760D01*
X97737484Y-87287462D01*
X97936198Y-87143087D01*
X98075528Y-86997797D01*
X98155902Y-87146757D01*
G36*
X103404778Y-78093229D02*
G01*
X103512565Y-78311796D01*
X103658376Y-78507062D01*
X103760000Y-78601002D01*
X103760000Y-81816020D01*
X102430196Y-83145824D01*
X102240751Y-83157742D01*
X102001156Y-83241179D01*
X101792825Y-83385972D01*
X101631107Y-83581456D01*
X101527916Y-83813228D01*
X101490853Y-84064212D01*
X101522652Y-84315918D01*
X101620967Y-84549800D01*
X101778556Y-84748628D01*
X101983808Y-84897752D01*
X102221602Y-84986187D01*
X102474418Y-85007416D01*
X102723630Y-84959877D01*
X102950878Y-84847070D01*
X103061326Y-84747622D01*
X103216202Y-84860146D01*
X103453996Y-84948581D01*
X103706812Y-84969810D01*
X103956024Y-84922271D01*
X104113828Y-84843937D01*
X104107607Y-84851456D01*
X104004416Y-85083228D01*
X103967353Y-85334212D01*
X103999152Y-85585918D01*
X104097467Y-85819800D01*
X104224533Y-85980117D01*
X104107607Y-86121456D01*
X104093845Y-86152365D01*
X103190506Y-85249026D01*
X103169150Y-85215953D01*
X103113792Y-85172312D01*
X103102923Y-85161442D01*
X103071699Y-85139129D01*
X102994001Y-85077877D01*
X102981488Y-85074665D01*
X102970748Y-85066989D01*
X102762472Y-85004701D01*
X102665784Y-85008500D01*
X101355222Y-85008500D01*
X101263731Y-84850031D01*
X101092250Y-84690920D01*
X100982301Y-84637971D01*
X101139469Y-84547231D01*
X101298580Y-84375750D01*
X101400076Y-84164991D01*
X101433518Y-83943119D01*
X101433518Y-83277507D01*
X101381901Y-83004709D01*
X101263731Y-82800031D01*
X101135149Y-82680725D01*
X101139469Y-82678231D01*
X101298580Y-82506750D01*
X101400076Y-82295991D01*
X101433518Y-82074119D01*
X101433518Y-81408507D01*
X101381901Y-81135709D01*
X101263731Y-80931031D01*
X101098542Y-80777758D01*
X101235279Y-80689882D01*
X101401745Y-80497770D01*
X101422262Y-80452844D01*
X101422262Y-81071121D01*
X101474438Y-81346876D01*
X101593814Y-81553643D01*
X101767063Y-81714394D01*
X101979996Y-81816937D01*
X102234000Y-81855221D01*
X102234000Y-80058000D01*
X102490000Y-80058000D01*
X102490000Y-81856817D01*
X102797876Y-81798562D01*
X103001237Y-81681152D01*
X103037063Y-81714394D01*
X103249996Y-81816937D01*
X103504000Y-81855221D01*
X103504000Y-78515183D01*
X103196124Y-78573438D01*
X102992763Y-78690848D01*
X102956937Y-78657606D01*
X102940510Y-78649695D01*
X103073960Y-78532662D01*
X103224833Y-78341279D01*
X103338303Y-78125608D01*
X103377924Y-77998011D01*
X103404778Y-78093229D01*
G37*
X103404778Y-78093229D02*
X103512565Y-78311796D01*
X103658376Y-78507062D01*
X103760000Y-78601002D01*
X103760000Y-81816020D01*
X102430196Y-83145824D01*
X102240751Y-83157742D01*
X102001156Y-83241179D01*
X101792825Y-83385972D01*
X101631107Y-83581456D01*
X101527916Y-83813228D01*
X101490853Y-84064212D01*
X101522652Y-84315918D01*
X101620967Y-84549800D01*
X101778556Y-84748628D01*
X101983808Y-84897752D01*
X102221602Y-84986187D01*
X102474418Y-85007416D01*
X102723630Y-84959877D01*
X102950878Y-84847070D01*
X103061326Y-84747622D01*
X103216202Y-84860146D01*
X103453996Y-84948581D01*
X103706812Y-84969810D01*
X103956024Y-84922271D01*
X104113828Y-84843937D01*
X104107607Y-84851456D01*
X104004416Y-85083228D01*
X103967353Y-85334212D01*
X103999152Y-85585918D01*
X104097467Y-85819800D01*
X104224533Y-85980117D01*
X104107607Y-86121456D01*
X104093845Y-86152365D01*
X103190506Y-85249026D01*
X103169150Y-85215953D01*
X103113792Y-85172312D01*
X103102923Y-85161442D01*
X103071699Y-85139129D01*
X102994001Y-85077877D01*
X102981488Y-85074665D01*
X102970748Y-85066989D01*
X102762472Y-85004701D01*
X102665784Y-85008500D01*
X101355222Y-85008500D01*
X101263731Y-84850031D01*
X101092250Y-84690920D01*
X100982301Y-84637971D01*
X101139469Y-84547231D01*
X101298580Y-84375750D01*
X101400076Y-84164991D01*
X101433518Y-83943119D01*
X101433518Y-83277507D01*
X101381901Y-83004709D01*
X101263731Y-82800031D01*
X101135149Y-82680725D01*
X101139469Y-82678231D01*
X101298580Y-82506750D01*
X101400076Y-82295991D01*
X101433518Y-82074119D01*
X101433518Y-81408507D01*
X101381901Y-81135709D01*
X101263731Y-80931031D01*
X101098542Y-80777758D01*
X101235279Y-80689882D01*
X101401745Y-80497770D01*
X101422262Y-80452844D01*
X101422262Y-81071121D01*
X101474438Y-81346876D01*
X101593814Y-81553643D01*
X101767063Y-81714394D01*
X101979996Y-81816937D01*
X102234000Y-81855221D01*
X102234000Y-80058000D01*
X102490000Y-80058000D01*
X102490000Y-81856817D01*
X102797876Y-81798562D01*
X103001237Y-81681152D01*
X103037063Y-81714394D01*
X103249996Y-81816937D01*
X103504000Y-81855221D01*
X103504000Y-78515183D01*
X103196124Y-78573438D01*
X102992763Y-78690848D01*
X102956937Y-78657606D01*
X102940510Y-78649695D01*
X103073960Y-78532662D01*
X103224833Y-78341279D01*
X103338303Y-78125608D01*
X103377924Y-77998011D01*
X103404778Y-78093229D01*
G36*
X116104778Y-78093229D02*
G01*
X116212565Y-78311796D01*
X116358376Y-78507062D01*
X116494369Y-78632772D01*
X116333004Y-78555063D01*
X116079000Y-78516779D01*
X116079000Y-80314000D01*
X115823000Y-80314000D01*
X115823000Y-78515183D01*
X115781557Y-78523025D01*
X115924833Y-78341279D01*
X116038303Y-78125608D01*
X116077924Y-77998011D01*
X116104778Y-78093229D01*
G37*
X116104778Y-78093229D02*
X116212565Y-78311796D01*
X116358376Y-78507062D01*
X116494369Y-78632772D01*
X116333004Y-78555063D01*
X116079000Y-78516779D01*
X116079000Y-80314000D01*
X115823000Y-80314000D01*
X115823000Y-78515183D01*
X115781557Y-78523025D01*
X115924833Y-78341279D01*
X116038303Y-78125608D01*
X116077924Y-77998011D01*
X116104778Y-78093229D01*
M02*
